<?xml version="1.0" standalone="no"?>
<!DOCTYPE svg PUBLIC "-//W3C//DTD SVG 1.1//EN" "http://www.w3.org/Graphics/SVG/1.1/DTD/svg11.dtd" >
<svg>
<metadata>
Created by FontForge 20090914 at Thu Dec 17 09:25:06 2015
 By www-data
   
</metadata>
<defs>
<font id="Futura_Book-Bold" horiz-adv-x="0" >
  <font-face 
    font-family="Futura_Book-Bold"
    font-weight="400"
    font-stretch="normal"
    units-per-em="1000"
    panose-1="0 0 0 0 0 0 0 0 0 0"
    ascent="800"
    descent="-200"
    x-height="427.999"
    cap-height="637"
    bbox="2 -209 971.003 878"
    underline-thickness="50"
    underline-position="-55"
    unicode-range="U+0020-U+2219"
  />
<missing-glyph 
 />
    <glyph glyph-name=".notdef" 
 />
    <glyph glyph-name="space" unicode=" " horiz-adv-x="365" 
 />
    <glyph glyph-name="exclam" unicode="!" horiz-adv-x="340" 
d="M240 60c0 -21.333 -7.16699 -37.667 -21.5 -49s-29.833 -17.666 -46.5 -18.999c-2 -0.666992 -3.83301 -1 -5.5 -1h-4.5c-18.667 0 -35.667 5.66699 -51 17s-23 28.666 -23 51.999c0 24.667 7.83301 43 23.5 55s33.167 18 52.5 18h2.5h2.5c18 -1.33301 34.333 -8 49 -20
s22 -29.667 22 -53v0zM97 651.999h125v-453h-125v453v0z" />
    <glyph glyph-name="quotedbl" unicode="&#x22;" horiz-adv-x="400" 
d="M86 626h84v-244h-84v244v0zM227 626h84v-244h-84v244v0z" />
    <glyph glyph-name="numbersign" unicode="#" horiz-adv-x="770" 
d="M348 637h98l-64 -182h106l65 182h95l-63 -182h122l-33 -85h-121l-36 -106h126l-30 -87h-128l-65 -180h-96l65 180h-107l-65 -180h-95l63 180h-125l34 87h123l37 106h-129l32 85h128l63 182v0zM420 264l39 106h-111l-37 -106h109v0z" />
    <glyph glyph-name="dollar" unicode="$" horiz-adv-x="580" 
d="M280 -65l-0.000976562 67.002c-39.333 2 -76 9.5 -110 22.5s-62.667 36.833 -86 71.5l76 81c12.667 -25.333 28.834 -43.5 48.501 -54.5s43.5 -17.167 71.5 -18.5v170l-20.5 10l-21.5 10c-35.333 18 -68 39.667 -98 65s-45.333 60.333 -46 105v0.5
c0 0.333008 -0.333008 0.833008 -1 1.5v0v0c0 0.666992 -0.166992 1.16699 -0.5 1.5l-0.5 0.5c0 46 17 82.167 51 108.5s71.333 44.166 112 53.499c6.66699 2 13.167 3.5 19.5 4.5s12.5 1.83301 18.5 2.5v50h41v-50c34 -2.66699 63.167 -9.83398 87.5 -21.501
s47.5 -30.834 69.5 -57.501l-79 -73c-0.666992 0.666992 -1.33398 1.5 -2.00098 2.5s-1 1.83301 -1 2.5c-10 14 -20.667 24.5 -32 31.5s-25.666 12.5 -42.999 16.5v-160l20.5 -8.5c7 -3 13.833 -6.5 20.5 -10.5c34 -16 65.167 -36.667 93.5 -62s43.5 -57.333 45.5 -96v-15
c0 -53.333 -19.5 -95.666 -58.5 -126.999s-83.167 -50 -132.5 -56v-68h-43v0zM322.999 109.002c16 6.66699 30.3311 15.499 42.998 26.499s19.334 25.833 20.001 44.5v2c0 16.667 -5.83301 30.834 -17.5 42.501s-24.167 21.167 -37.5 28.5
c-1.33301 0 -2.66602 0.333008 -3.99902 1l-4 2v-147v0zM228.997 483.001c-0.666992 -1.33301 -1.16699 -2.83203 -1.5 -4.49902s-0.833008 -3.16699 -1.5 -4.5c0 -1.33301 -0.166992 -2.83301 -0.5 -4.5s-0.5 -3.16699 -0.5 -4.5c0 -14.667 5.33301 -27.334 16 -38.001
s22.667 -19.667 36 -27l8 -4l8 -4v146c-14.667 -4 -28 -10.167 -40 -18.5s-20 -20.5 -24 -36.5v0z" />
    <glyph glyph-name="percent" unicode="%" horiz-adv-x="840" 
d="M259 -15h-66l373 658h64l-371 -658v0zM763 92c-9.33301 -36.667 -27.333 -63.502 -54 -80.502s-56.667 -25.5 -90 -25.5h-9.5h-10.5c-2.66699 0.666992 -5.16699 1 -7.5 1s-4.5 0.333008 -6.5 1c-38 6 -66.5 23.833 -85.5 53.5s-30.167 61.834 -33.5 96.501
c-0.666992 3.33301 -1 6.83301 -1 10.5v10.5v6.5c0 2.33301 0.333008 4.83301 1 7.5c0 6.66699 0.666992 13.334 2 20.001s2.66602 13 3.99902 19c8.66699 36.667 27.167 66.334 55.5 89.001s59.5 34 93.5 34c6 0 12.167 -0.333008 18.5 -1s12.833 -2 19.5 -4
c6.66699 -1.33301 13.167 -3.16602 19.5 -5.49902s12.5 -5.16602 18.5 -8.49902c24 -12.667 42 -31.834 54 -57.501s19 -52.5 21 -80.5c0.666992 -3.33301 1 -6.5 1 -9.5v-8.5c0 -4.66699 -0.166992 -9.33398 -0.5 -14.001s-0.833008 -9.33398 -1.5 -14.001l-4 -20.5
c-1.33301 -7 -2.66602 -13.5 -3.99902 -19.5v0zM559 158.998c0 -6 0.333984 -13.168 1.00098 -21.501s1.66699 -16.833 3 -25.5c3.33301 -16.667 9.16602 -32 17.499 -46s21.166 -21 38.499 -21c18.667 0 32 6.83301 40 20.5s13.333 28.834 16 45.501
c1.33301 6.66699 2.33301 13.334 3 20.001s1 12.667 1 18v16c0 5.33301 -0.166992 11.166 -0.5 17.499s-0.833008 12.833 -1.5 19.5c-2 15.333 -6.16699 29.833 -12.5 43.5s-16.5 22.167 -30.5 25.5c-0.666992 0 -1.66699 0.166992 -3 0.5s-2.66602 0.5 -3.99902 0.5h-4.5
h-4.5c-16 0 -28.167 -7.16699 -36.5 -21.5s-14.5 -29.833 -18.5 -46.5c-1.33301 -8 -2.33301 -16 -3 -24s-1 -15 -1 -21v0zM284.001 625.997c22.667 -12.667 39.998 -31.002 51.998 -55.002s19.333 -49 22 -75c0.666992 -4.66699 1.16699 -9.5 1.5 -14.5
s0.5 -9.83301 0.5 -14.5v-8.5c0 -3 -0.333008 -5.83301 -1 -8.5c0 -8.66699 -0.666992 -17.334 -2 -26.001s-3 -17 -5 -25c-10.667 -34.667 -29.167 -61.167 -55.5 -79.5s-56.166 -27.5 -89.499 -27.5c-5.33301 0 -10.833 0.333008 -16.5 1l-17.5 2
c-39.333 6 -68.5 24.333 -87.5 55s-29.5 63.667 -31.5 99c-0.666992 2.66699 -1 5.33398 -1 8.00098v8c0 3.33301 0.166992 6.83301 0.5 10.5s0.5 7.16699 0.5 10.5l2 12l2 12c0.666992 2 1.16699 3.83301 1.5 5.5s0.5 3.16699 0.5 4.5
c6.66699 36.667 24.167 66.667 52.5 90s59.833 35 94.5 35c6 0 12.333 -0.333008 19 -1s13.334 -2 20.001 -4c6 -1.33301 12.333 -3.16602 19 -5.49902s13 -5.16602 19 -8.49902v0zM221.999 579.995l-3.00098 -0.000976562c-1.33301 0 -2.33301 0.333008 -3 1h-1.5h-1.5
c-1.33301 0 -2.66602 0.166992 -3.99902 0.5s-2.33301 0.5 -3 0.5c-16 0 -28.5 -7 -37.5 -21s-15.167 -29.333 -18.5 -46c-1.33301 -7.33301 -2.33301 -14.333 -3 -21s-1 -13 -1 -19v-2c0 -0.666992 0.333008 -1 1 -1v-2v-2v-1v-3c-0.666992 0 -1 -0.166992 -1 -0.5v-1.5v-1
v-2c0 -5.33301 0.333008 -11.166 1 -17.499l2 -19.5c3.33301 -17.333 9.33301 -33.166 18 -47.499s21.667 -21.5 39 -21.5c18 0 31 6.66699 39 20s13.667 28 17 44c1.33301 7.33301 2.33301 14.333 3 21s1 13 1 19v16c0 6 -0.166992 12.167 -0.5 18.5
s-0.833008 12.833 -1.5 19.5c-2.66699 15.333 -7.16699 29.666 -13.5 42.999s-15.833 22 -28.5 26v0z" />
    <glyph glyph-name="ampersand" unicode="&#x26;" horiz-adv-x="710" 
d="M652 0h-144.996l-53 63c-22.667 -21.333 -48.834 -38.666 -78.501 -51.999s-59.834 -21.333 -90.501 -24c-3.33301 -0.666992 -6.5 -1 -9.5 -1h-9.5c-6.66699 0 -13.334 0.333008 -20.001 1l-20 2c-13.333 2.66699 -26.5 6.33398 -39.5 11.001s-25.5 10.667 -37.5 18
c-21.333 14.667 -38.5 34 -51.5 58s-20.833 48.667 -23.5 74c-0.666992 3.33301 -1 6.33301 -1 9v8c0 2 0.166992 4.33301 0.5 7s0.5 5.33398 0.5 8.00098c0 0.666992 0.166992 1.33398 0.5 2.00098s0.5 1.66699 0.5 3s0.166992 2.83301 0.5 4.5s0.5 3.16699 0.5 4.5
c6.66699 37.333 22.667 68.333 48 93s53 46.667 83 66c-18.667 20 -34.334 41.5 -47.001 64.5s-19 46.833 -19 71.5c0 4.66699 0.333008 9.5 1 14.5l2 14.5c0.666992 3.33301 1.5 6.66602 2.5 9.99902s1.83301 6.66602 2.5 9.99902c10.667 32.667 31 56.667 61 72
s62 23 96 23c42.667 0 81.667 -11.5 117 -34.5s53 -56.833 53 -101.5v-11c-2.66699 -28 -13 -52 -31 -72s-37.333 -38 -58 -54c-4.66699 -2.66699 -9.16699 -5.66699 -13.5 -9s-8.5 -6.33301 -12.5 -9l107 -125l16 16c5.33301 5.33301 10.333 10.666 15 15.999l32 33
c10.667 11.333 20.667 22.666 30 33.999l71 -75l-24 -25.5l-24 -25.5l-25 -25.5l-24 -25.5l117 -141v0zM204.004 131c6.66699 -8.66699 13.332 -15.999 19.999 -21.999s13.667 -10.667 21 -14c6.66699 -4 13.334 -6.83301 20.001 -8.5s13.334 -2.5 20.001 -2.5
c14 0 27.167 2.83301 39.5 8.5s23.5 12.167 33.5 19.5c9.33301 6.66699 16.833 12.834 22.5 18.501l8.5 8.5l-120 143c-2.66699 -2 -5.33398 -3.83301 -8.00098 -5.5s-5 -3.5 -7 -5.5c-12.667 -10.667 -24.667 -22.834 -36 -36.501s-19.333 -27.834 -24 -42.501
c-1.33301 -4 -2.33301 -7.83301 -3 -11.5s-1 -7.5 -1 -11.5c0 -6.66699 1.33301 -13.167 4 -19.5s6 -12.5 10 -18.5v0zM300.002 405.001c0.666992 0.666992 1.33398 1.16699 2.00098 1.5l3 1.5l2 2c0.666992 0.666992 1.33398 1 2.00098 1
c13.333 9.33301 25.666 19.166 36.999 29.499s18.666 23.833 21.999 40.5v12c0 17.333 -6 31.333 -18 42s-25 17 -39 19h-4h-4h-2.5h-3.5c-10.667 -1.33301 -20.834 -5.83301 -30.501 -13.5s-15.167 -19.167 -16.5 -34.5c0 -0.666992 -0.166992 -1.5 -0.5 -2.5
s-0.5 -2.16699 -0.5 -3.5c0 -0.666992 -0.166992 -1.5 -0.5 -2.5s-0.5 -2.16699 -0.5 -3.5c0 -13.333 3.66699 -25.666 11 -36.999s15.333 -22.333 24 -33c3.33301 -3.33301 6.33301 -6.5 9 -9.5s5.33398 -6.16699 8.00098 -9.5v0z" />
    <glyph glyph-name="quotesingle" unicode="'" horiz-adv-x="381" 
d="M78 366l86 271h133l-135 -271h-84v0z" />
    <glyph glyph-name="parenleft" unicode="(" horiz-adv-x="381" 
d="M318 637c-25.333 -56 -45.832 -114 -61.499 -174s-25.5 -120 -29.5 -180c-0.666992 -10.667 -1.16699 -21 -1.5 -31s-0.5 -20 -0.5 -30s0.166992 -19.833 0.5 -29.5s0.833008 -19.167 1.5 -28.5c4 -58.667 13.667 -116.667 29 -174s36 -113 62 -167l-98 -26
c-30 64 -53.833 129.333 -71.5 196s-27.834 134 -30.501 202c-0.666992 6 -1 12.167 -1 18.5v18.5c0 18.667 0.666992 37.667 2 57s3 38.333 5 57c6.66699 54 18 107.333 34 160s36.667 104 62 154l98 -23v0z" />
    <glyph glyph-name="parenright" unicode=")" horiz-adv-x="361" 
d="M58 637l98.998 22.999c26 -50.667 47 -103.667 63 -159s27 -111 33 -167c1.33301 -16.667 2.5 -33.167 3.5 -49.5s1.5 -32.833 1.5 -49.5c0 -10 -0.166992 -20 -0.5 -30s-0.833008 -20 -1.5 -30c-4 -64.667 -14.5 -128.667 -31.5 -192s-39.5 -125 -67.5 -185l-99 24
c31.333 63.333 54.333 128.5 69 195.5s22 134.5 22 202.5c0 16 -0.333008 31.833 -1 47.5s-2 31.167 -4 46.5c-5.33301 55.333 -15.166 110.333 -29.499 165s-33.166 107.334 -56.499 158.001v0z" />
    <glyph glyph-name="asterisk" unicode="*" horiz-adv-x="472" 
d="M117 363l-39 60l102 52l-99 52l36 60l89 -65l-5 115h70l-7 -113l89 63l34 -60l-97 -54l97 -50l-34 -60l-90 65l8 -109h-70l8 107l-92 -63v0z" />
    <glyph glyph-name="plus" unicode="+" horiz-adv-x="580" 
d="M243 530h88v-220h217v-86h-217v-224h-88v224h-215v86h215v220v0z" />
    <glyph glyph-name="comma" unicode="," horiz-adv-x="391" 
d="M78 -143l86 271h133l-135 -271h-84v0z" />
    <glyph glyph-name="hyphen" unicode="-" horiz-adv-x="332" 
d="M45 157v110h243v-110h-243v0z" />
    <glyph glyph-name="period" unicode="." horiz-adv-x="311" 
d="M164 -15c-25.333 0.666992 -44.167 8.83301 -56.5 24.5s-18.5 33.167 -18.5 52.5v2.5v2.5c1.33301 18 8.33301 34.333 21 49s30.667 22 54 22c21.333 0 38 -7.16699 50 -21.5s18.667 -29.833 20 -46.5c0.666992 -2 1 -3.83301 1 -5.5v-4.5v-1.5v-1.5
c-0.666992 -18 -7 -34.333 -19 -49s-29.333 -22 -52 -22v-1z" />
    <glyph glyph-name="slash" unicode="/" horiz-adv-x="580" 
d="M92 -81l312 733h92l-311 -733h-93v0z" />
    <glyph glyph-name="zero" unicode="0" horiz-adv-x="590" 
d="M410 611c35.333 -24 61.666 -58.335 78.999 -103.002s28.333 -91 33 -139c1.33301 -10 2.16602 -19.833 2.49902 -29.5s0.5 -19.167 0.5 -28.5c0 -22.667 -1.16699 -44.667 -3.5 -66s-5.5 -41.333 -9.5 -60c-14.667 -60 -40.834 -108.167 -78.501 -144.5
s-84.5 -54.5 -140.5 -54.5c-6 0 -12.333 0.333008 -19 1l-20 2c-2.66699 0 -5.16699 0.166992 -7.5 0.5s-4.5 0.833008 -6.5 1.5c-62 10.667 -106.667 42.167 -134 94.5s-43.666 108.833 -48.999 169.5c-0.666992 9.33301 -1.16699 18.5 -1.5 27.5s-0.5 18.167 -0.5 27.5
v13.5c0 4.33301 0.333008 8.83301 1 13.5l2 24l2 24c0.666992 4.66699 1.16699 9.33398 1.5 14.001s0.833008 9.33398 1.5 14.001c0.666992 6 1.66699 11.833 3 17.5l4 17.5c9.33301 35.333 23.833 69.166 43.5 101.499s46.5 57.166 80.5 74.499
c9.33301 4.66699 19.333 8.33398 30 11.001s21.667 4.66699 33 6c5.33301 0.666992 10.833 1.16699 16.5 1.5s11.167 0.5 16.5 0.5c4.66699 0 9.33398 -0.166992 14.001 -0.5s9.33398 -0.833008 14.001 -1.5c16.667 -1.33301 33 -4.66602 49 -9.99902s30.333 -12 43 -20v0z
M186 312.998c0 -12 0.5 -25.8311 1.5 -41.498s2.83301 -31.834 5.5 -48.501c5.33301 -30.667 15.166 -58.834 29.499 -84.501s36.833 -38.5 67.5 -38.5s53.167 12.5 67.5 37.5s23.833 52.5 28.5 82.5c2.66699 14 4.33398 27.833 5.00098 41.5s1 25.834 1 36.501v15
c0 12 -0.333008 26 -1 42s-2.33398 32.333 -5.00098 49c-4 26.667 -11.167 51.5 -21.5 74.5s-26.5 38.167 -48.5 45.5c-1.33301 0 -2.83301 0.166992 -4.5 0.5s-3.5 0.5 -5.5 0.5c-2.66699 0.666992 -5.5 1.16699 -8.5 1.5s-6.16699 0.5 -9.5 0.5
c-28.667 0 -50.167 -12.833 -64.5 -38.5s-24.166 -53.834 -29.499 -84.501c-3.33301 -16.667 -5.5 -33 -6.5 -49s-1.5 -30 -1.5 -42v0z" />
    <glyph glyph-name="one" unicode="1" horiz-adv-x="350" 
d="M149 0v528h-81v101h196v-629h-115v0z" />
    <glyph glyph-name="two" unicode="2" horiz-adv-x="590" 
d="M512 105l0.00195312 -105.002h-441l227 297l16.5 21.5c6.33301 8.33301 12.833 17.5 19.5 27.5l20 33c6.66699 11.333 12.334 22.666 17.001 33.999c3.33301 8 5.83301 16 7.5 24s2.5 15.667 2.5 23v3.5v3.5c-1.33301 10.667 -4.5 20.834 -9.5 30.501
s-12.833 17.834 -23.5 24.501c-4 2.66699 -8.83301 5 -14.5 7s-11.167 3.33301 -16.5 4c-3.33301 0.666992 -6.33301 1.16699 -9 1.5s-5.33398 0.5 -8.00098 0.5c-2 0 -4.16699 -0.166992 -6.5 -0.5s-4.83301 -0.5 -7.5 -0.5c-6 -1.33301 -11.833 -3 -17.5 -5
s-10.834 -4.33301 -15.501 -7c-13.333 -10 -22.333 -22.167 -27 -36.5s-7.66699 -29.166 -9 -44.499v-3.5v-3.5h-128c1.33301 37.333 7.33301 71.833 18 103.5s34 57.834 70 78.501c14 8 29.5 14.333 46.5 19s34.167 7.66699 51.5 9c4 0.666992 7.83301 1 11.5 1h11.5h2.5
h3.5c52 -1.33301 99.667 -16.833 143 -46.5s65 -73.5 65 -131.5c0 -42.667 -11.333 -83.334 -34 -122.001s-47.334 -75 -74.001 -109l-24 -29.5l-23 -28.5l-59 -73h214v0z" />
    <glyph glyph-name="three" unicode="3" horiz-adv-x="580" 
d="M63 169l126.998 -0.00195312c0 -26 9.5 -46 28.5 -60s40.167 -21 63.5 -21h6c2 0 4 0.333008 6 1c20 2 38.833 9 56.5 21s28.167 28.333 31.5 49c0 1.33301 0.166992 2.83301 0.5 4.5s0.5 3.5 0.5 5.5c0 1.33301 0.166992 2.83301 0.5 4.5s0.5 3.16699 0.5 4.5v4.5v5.5
c-1.33301 14.667 -5.33301 29 -12 43s-16.667 24.667 -30 32c-4 2 -8.33301 3.66699 -13 5s-9.33398 2.33301 -14.001 3c-5.33301 1.33301 -10.666 2.16602 -15.999 2.49902s-10.333 0.5 -15 0.5h-25v112c1.33301 0 2.66602 -0.166992 3.99902 -0.5s3 -0.5 5 -0.5h1h2
c0.666992 -0.666992 1.66699 -1 3 -1h3h8.5c3 0 5.83301 0.333008 8.5 1c11.333 1.33301 22.333 4.33301 33 9s19.334 11.667 26.001 21c2.66699 3.33301 4.83398 7 6.50098 11s3.16699 8 4.5 12c1.33301 3.33301 2.33301 7 3 11s1 7.66699 1 11
c0 21.333 -8.66699 40 -26 56s-37.333 24 -60 24c-1.33301 0 -3 -0.166992 -5 -0.5s-3.66699 -0.5 -5 -0.5c-2 0 -4 -0.166992 -6 -0.5s-3.66699 -0.5 -5 -0.5c-16 -4 -28.167 -11.667 -36.5 -23s-14.166 -24.666 -17.499 -39.999h-121
c2.66699 55.333 25.5 97.833 68.5 127.5s89.833 44.5 140.5 44.5c6 0 12 -0.166992 18 -0.5s12 -1.16602 18 -2.49902c18 -2.66699 35.667 -7.16699 53 -13.5s33 -14.5 47 -24.5c18 -12.667 32.333 -28.834 43 -48.501s17.667 -40.167 21 -61.5
c0 -3.33301 0.166992 -6.83301 0.5 -10.5s0.5 -7.16699 0.5 -10.5v-2v-2c-0.666992 -30.667 -10 -59.5 -28 -86.5s-44.333 -43.833 -79 -50.5c38.667 -9.33301 68 -28.166 88 -56.499s31.333 -58.5 34 -90.5c0.666992 -2.66699 1 -5.16699 1 -7.5v-7.5v-5.5v-5.5
c-2 -28.667 -10.333 -55.834 -25 -81.501s-35 -46.167 -61 -61.5c-15.333 -7.33301 -32 -13.5 -50 -18.5s-36.333 -8.83301 -55 -11.5c-6.66699 -1.33301 -13.667 -2.16602 -21 -2.49902s-14.333 -0.5 -21 -0.5h-2.5h-3.5c-38 0.666992 -74.333 8.5 -109 23.5
s-61.667 39.167 -81 72.5c-8 13.333 -13 26.833 -15 40.5s-3.66699 27.834 -5 42.501v2.5v2.5v0z" />
    <glyph glyph-name="four" unicode="4" horiz-adv-x="609" 
d="M480 0h-117v122h-306v60l306 461h117v-429h68v-92h-68v-122v0zM366 214v219c0 13.333 0.166992 26.5 0.5 39.5s1.5 26.167 3.5 39.5c-6 -15.333 -12.5 -30.5 -19.5 -45.5s-15.167 -29.5 -24.5 -43.5l-138 -209h178v0z" />
    <glyph glyph-name="five" unicode="5" horiz-adv-x="580" 
d="M89 139l22.502 -13.4971c7 -4.33301 14.167 -8.5 21.5 -12.5c12.667 -6.66699 25.834 -12.334 39.501 -17.001s29.167 -7.33398 46.5 -8.00098c1.33301 0 2.66602 -0.166992 3.99902 -0.5s2.66602 -0.5 3.99902 -0.5s2.66602 -0.166992 3.99902 -0.5
s2.66602 -0.5 3.99902 -0.5h9.5c3 0 5.83301 0.333008 8.5 1c26.667 2.66699 51.334 11.167 74.001 25.5s37 36.166 43 65.499v4c0 1.33301 0.333008 2.66602 1 3.99902v11v10c0 36.667 -13.333 64 -40 82s-57 27 -91 27c-6 0 -12 -0.166992 -18 -0.5
s-12 -1.16602 -18 -2.49902c-15.333 -2.66699 -30.666 -6.83398 -45.999 -12.501s-29 -12.5 -41 -20.5l-29 18l77 332h329v-106h-244l-31 -129c6.66699 2 13.5 3.66699 20.5 5l21.5 4l21.5 2c7 0.666992 13.833 1 20.5 1c6 0 11.833 -0.166992 17.5 -0.5
s11.167 -0.833008 16.5 -1.5c12 -2 23.667 -4.66699 35 -8s22.333 -7.66602 33 -12.999c33.333 -18 58.166 -43.5 74.499 -76.5s24.5 -67.5 24.5 -103.5c0 -5.33301 -0.166992 -10.833 -0.5 -16.5s-0.833008 -11.167 -1.5 -16.5s-1.5 -10.833 -2.5 -16.5
s-2.16699 -11.167 -3.5 -16.5c-15.333 -53.333 -46.666 -92 -93.999 -116s-97.666 -36 -150.999 -36h-9.5h-9.5c-30.667 2 -60.834 7.33301 -90.501 16s-55.834 20 -78.501 34l26 103v0z" />
    <glyph glyph-name="six" unicode="6" horiz-adv-x="571" 
d="M246 381c8.66699 4 17.499 7.16406 26.499 9.49707s18.167 3.83301 27.5 4.5c4 0.666992 8.33301 1.16699 13 1.5s9.33398 0.5 14.001 0.5c3.33301 0 6.83301 -0.166992 10.5 -0.5s7.16699 -0.5 10.5 -0.5c21.333 -2 42 -7.5 62 -16.5s37.333 -21.5 52 -37.5
c15.333 -16 27 -34.667 35 -56s12.667 -43 14 -65c0.666992 -3.33301 1 -6.5 1 -9.5v-8.5v-5.5v-4.5c-2 -37.333 -12.167 -72.666 -30.5 -105.999s-43.833 -58.666 -76.5 -75.999c-13.333 -6.66699 -27.5 -11.834 -42.5 -15.501s-30.5 -6.16699 -46.5 -7.5
c-5.33301 -0.666992 -10.5 -1.16699 -15.5 -1.5s-10.167 -0.5 -15.5 -0.5c-40.667 0 -79.167 9.16699 -115.5 27.5s-63.166 46.833 -80.499 85.5c-4 10.667 -7.66699 21.5 -11 32.5s-5.66602 22.167 -6.99902 33.5c-1.33301 5.33301 -2.16602 10.833 -2.49902 16.5
s-0.5 11.167 -0.5 16.5c0 6.66699 0.166992 13.334 0.5 20.001s1.16602 13.334 2.49902 20.001c5.33301 39.333 17.333 78.333 36 117s38.667 74.667 60 108c1.33301 2 2.66602 4.16699 3.99902 6.5s2.66602 4.5 3.99902 6.5l101 154h152l-182 -249v0zM189.999 195.997
c0 -22.667 8.83301 -42.5 26.5 -59.5s37.5 -27.5 59.5 -31.5c2 0 4.16699 -0.166992 6.5 -0.5s4.83301 -0.5 7.5 -0.5c26 0 49.333 9.16699 70 27.5s31 39.833 31 64.5c0 30.667 -10.167 53.5 -30.5 68.5s-42.833 22.833 -67.5 23.5h-1.5h-1.5
c-24.667 0 -47.5 -7.5 -68.5 -22.5s-31.5 -38.167 -31.5 -69.5v0z" />
    <glyph glyph-name="seven" unicode="7" horiz-adv-x="590" 
d="M104 0l256 524h-289v106h456v-38l-287 -592h-136v0z" />
    <glyph glyph-name="eight" unicode="8" horiz-adv-x="590" 
d="M94 480c2.66699 56 24.665 97.1641 65.998 123.497s87.333 39.5 138 39.5h3c50.667 0 96.334 -14 137.001 -42s61.667 -69.667 63 -125v-9c0 -31.333 -8.5 -57.833 -25.5 -79.5s-40.5 -38.5 -70.5 -50.5c36.667 -12.667 65.334 -33.5 86.001 -62.5s31 -62.833 31 -101.5
v-16c-4 -56 -28 -98.167 -72 -126.5s-92 -43.5 -144 -45.5h-4.5h-4.5h-6h-6c-51.333 2 -98.833 17.333 -142.5 46s-67.5 70.667 -71.5 126v2v2v0h-1v3v1c0 38 10.5 72.833 31.5 104.5s49.833 54.167 86.5 67.5c-30 14 -53.5 31 -70.5 51s-25.5 48.333 -25.5 85
c0 0.666992 0.166992 1.33398 0.5 2.00098s0.5 1.33398 0.5 2.00098l0.5 1c0.333008 0.666992 0.5 1.33398 0.5 2.00098v0zM299.998 279.997l-1.50098 0.000976562h-1.5c-24.667 -0.666992 -47.167 -11 -67.5 -31s-30.5 -42 -30.5 -66c0 -29.333 10.167 -51.833 30.5 -67.5
s42.833 -23.834 67.5 -24.501h1.5h1.5h5.5h4.5c22.667 2.66699 43.334 11.667 62.001 27s28 37 28 65c0 24.667 -10.167 47 -30.5 67s-43.5 30 -69.5 30v0zM296.997 386.998l1.5 -0.00292969h1.5c20.667 0.666992 39.834 8.83398 57.501 24.501s26.5 34.167 26.5 55.5
c0 25.333 -8.83301 44.5 -26.5 57.5s-36.834 19.833 -57.501 20.5h-1.5h-1.5c-22 0 -42.167 -6.5 -60.5 -19.5s-27.5 -32.5 -27.5 -58.5c0 -21.333 8.66699 -39.666 26 -54.999s36.333 -23.666 57 -24.999h2.5h2.5v0z" />
    <glyph glyph-name="nine" unicode="9" horiz-adv-x="592" 
d="M335 246c-7.33301 -3.33301 -15.501 -6.32129 -24.501 -8.98828s-17.833 -4.66699 -26.5 -6c-5.33301 -0.666992 -10.666 -1.16699 -15.999 -1.5s-10.333 -0.5 -15 -0.5h-4h-5c-22.667 1.33301 -45 6.66602 -67 15.999s-41 22.666 -57 39.999
c-14.667 16.667 -26.667 35.167 -36 55.5s-15 41.166 -17 62.499c0 3.33301 -0.166992 6.66602 -0.5 9.99902s-0.5 6.66602 -0.5 9.99902v4.5v4.5c2 40.667 14.833 79.167 38.5 115.5s55.167 62.5 94.5 78.5c11.333 4 23.166 7.33301 35.499 10s24.833 4.66699 37.5 6
c4 0 8.16699 0.166992 12.5 0.5s8.5 0.5 12.5 0.5h2h2c43.333 -0.666992 84 -12.334 122 -35.001s64 -56.334 78 -101.001c2 -6.66699 3.83301 -13.334 5.5 -20.001s3.16699 -13.334 4.5 -20.001l2 -21c0.666992 -6.66699 1 -13.334 1 -20.001
c0 -4.66699 -0.166992 -9.16699 -0.5 -13.5s-0.5 -8.5 -0.5 -12.5c-4.66699 -43.333 -17.167 -86 -37.5 -128s-42.166 -81 -65.499 -117c-0.666992 -0.666992 -1.16699 -1.33398 -1.5 -2.00098s-0.833008 -1.33398 -1.5 -2.00098l-101 -151h-152l181 246v0zM388.999 436.012
c0 24.667 -9.83301 46.502 -29.5 65.502s-41.834 28.5 -66.501 28.5h-3h-5.5c-1.66699 0 -3.16699 -0.333008 -4.5 -1c-21.333 -2.66699 -40.666 -13 -57.999 -31s-26 -38 -26 -60c0 -28.667 9.83301 -50.834 29.5 -66.501s41.167 -23.834 64.5 -24.501h1.5h1.5h2.5h3.5
c22 1.33301 42.5 9.5 61.5 24.5s28.5 36.5 28.5 64.5v0z" />
    <glyph glyph-name="colon" unicode=":" horiz-adv-x="321" 
d="M162 138c21.333 0 38 -7.16699 50 -21.5s18.667 -29.833 20 -46.5c0.666992 -2 1 -3.83301 1 -5.5v-4.5v-1.5v-1.5c-0.666992 -18 -7 -34.333 -19 -49s-29.333 -22 -52 -22c-24.667 0 -43 7.83301 -55 23.5s-18 33.167 -18 52.5v2.5v2.5c1.33301 18 8 34.333 20 49
s29.667 22 53 22v0zM162 269c-24.667 0 -43.498 7.83398 -56.498 23.501s-19.5 33.167 -19.5 52.5c1.33301 19.333 8.16602 37.166 20.499 53.499s30.833 24.5 55.5 24.5c21.333 0 38 -7.16699 50 -21.5s18.667 -29.833 20 -46.5c0.666992 -2 1 -3.83301 1 -5.5v-4.5v-2.5
v-2.5c-1.33301 -18 -7.83301 -34.333 -19.5 -49s-28.834 -22 -51.501 -22v0z" />
    <glyph glyph-name="semicolon" unicode=";" horiz-adv-x="340" 
d="M26 -143l83 271h134l-134 -271h-83v0zM105 345c0 24 7.66797 42 23.001 54s32.333 18.333 51 19h1.5h1.5h4h4c17.333 -2 33.166 -9 47.499 -21s21.5 -29.333 21.5 -52c0 -24.667 -7.66699 -43 -23 -55s-32.333 -18.333 -51 -19h-1.5h-1.5c-19.333 0 -37 6.16699 -53 18.5
s-24 30.833 -24 55.5v0z" />
    <glyph glyph-name="less" unicode="&#x3c;" horiz-adv-x="590" 
d="M549 520v-97l-389 -157l389 -159v-96l-512 213v86l512 210v0z" />
    <glyph glyph-name="equal" unicode="=" horiz-adv-x="569" 
d="M528 130h-520v86h520v-86v0zM8 402h520v-86h-520v86v0z" />
    <glyph glyph-name="greater" unicode="&#x3e;" horiz-adv-x="590" 
d="M37 520l512 -210v-86l-512 -213v96l388 159l-388 157v97v0z" />
    <glyph glyph-name="question" unicode="?" horiz-adv-x="540" 
d="M258 130c19.333 0 36.999 -6.16699 52.999 -18.5s24 -30.5 24 -54.5c0 -22 -7.16699 -38.833 -21.5 -50.5s-30.166 -18.5 -47.499 -20.5h-4h-4c-18.667 0 -36 6 -52 18s-24 29.667 -24 53c0 24 7.83301 42.167 23.5 54.5s33.167 18.5 52.5 18.5v0zM317.999 186h-119.996
v187c1.33301 0 2.66602 -0.166992 3.99902 -0.5s2.66602 -0.5 3.99902 -0.5s2.66602 -0.166992 3.99902 -0.5s2.66602 -0.5 3.99902 -0.5h8h8c17.333 1.33301 33.833 4.83301 49.5 10.5s28.5 16.834 38.5 33.501c2 4.66699 4 9.83398 6 15.501s3.33301 11.5 4 17.5
c0 2.66699 0.166992 5.16699 0.5 7.5s0.5 4.5 0.5 6.5v5.5v4.5c-2 21.333 -9.33301 40.666 -22 57.999s-28.667 26 -48 26c-2.66699 0 -5.83398 -0.333008 -9.50098 -1l-11.5 -2c-2 -1.33301 -4.33301 -2.5 -7 -3.5s-5 -2.16699 -7 -3.5
c-13.333 -7.33301 -22.166 -17 -26.499 -29s-6.83301 -24.667 -7.5 -38v-10v-10h-124v0.5v1.5c-0.666992 0.666992 -1 1.16699 -1 1.5v1.5c0 31.333 6.83301 61.166 20.5 89.499s34.167 50.833 61.5 67.5c16.667 10.667 35.167 18.667 55.5 24s40.833 8 61.5 8
c4 0 7.83301 -0.166992 11.5 -0.5s7.16699 -0.5 10.5 -0.5c18.667 -2 36.834 -5.83301 54.501 -11.5s33.167 -13.167 46.5 -22.5c20.667 -14.667 36.667 -33.667 48 -57s18.333 -47.333 21 -72c0 -4 0.166992 -7.83301 0.5 -11.5s0.5 -7.16699 0.5 -10.5v-10.5
c0 -3.66699 -0.333008 -7.16699 -1 -10.5c-0.666992 -7.33301 -1.5 -14.5 -2.5 -21.5s-2.5 -13.833 -4.5 -20.5c-8.66699 -30 -25.334 -53.333 -50.001 -70s-51.667 -28.667 -81 -36v-112v0z" />
    <glyph glyph-name="at" unicode="@" horiz-adv-x="929" 
d="M742 86c-12 -8 -25.3311 -15.168 -39.998 -21.501s-29.667 -11.166 -45 -14.499c-6.66699 -2 -13.334 -3.33301 -20.001 -4s-13 -1 -19 -1c-8.66699 0 -16.834 0.833008 -24.501 2.5s-15.167 3.5 -22.5 5.5c-16.667 5.33301 -28.167 13.833 -34.5 25.5
s-10.166 24.834 -11.499 39.501c-15.333 -21.333 -34 -38.833 -56 -52.5s-46.667 -20.5 -74 -20.5l-3 2c-45.333 1.33301 -79.833 14.833 -103.5 40.5s-35.5 60.167 -35.5 103.5v3c0 1.33301 0.333008 3 1 5v4v3v3.5v2.5c4 55.333 23.667 106.333 59 153
s83.333 71.334 144 74.001h5c22 0 42.333 -4.5 61 -13.5s33.334 -22.833 44.001 -41.5l25 42h76l-63 -261c0 -1.33301 -0.166992 -2.66602 -0.5 -3.99902s-0.5 -2.66602 -0.5 -3.99902c-0.666992 0 -1 -0.166992 -1 -0.5v-1.5
c-0.666992 -1.33301 -1.16699 -2.83301 -1.5 -4.5s-0.5 -3.16699 -0.5 -4.5c0 -10.667 3.33301 -18.167 10 -22.5s14.334 -6.5 23.001 -6.5c4.66699 0 10 0.666992 16 2s12 3.33301 18 6c6.66699 2.66699 13.5 5.83398 20.5 9.50098s13.167 7.5 18.5 11.5
c0.666992 0.666992 1.66699 1.5 3 2.5s2.33301 1.83301 3 2.5c22 19.333 39.333 43 52 71s20 56.667 22 86c0.666992 4 1 7.66699 1 11v10c0 6 -0.166992 11.833 -0.5 17.5s-0.833008 11.5 -1.5 17.5c-2 11.333 -4.5 22.833 -7.5 34.5s-6.83301 22.5 -11.5 32.5
c-22 44.667 -54.5 78 -97.5 100s-87.833 35.333 -134.5 40c-4 0 -8 0.166992 -12 0.5s-8 0.5 -12 0.5h-15c-66.667 0 -129 -15.833 -187 -47.5s-102.667 -77.834 -134 -138.501c-8.66699 -17.333 -16.167 -36.333 -22.5 -57s-10.833 -41.334 -13.5 -62.001
c-1.33301 -7.33301 -2.16602 -14.5 -2.49902 -21.5s-0.5 -13.833 -0.5 -20.5v-4v-4c1.33301 -38 9.33301 -75 24 -111s37 -66.333 67 -91c32.667 -27.333 69.167 -47.333 109.5 -60s81.5 -19 123.5 -19c6.66699 0 13.334 0.166992 20.001 0.5s13.334 0.833008 20.001 1.5
c41.333 4 82.166 13.167 122.499 27.5s76.5 31.833 108.5 52.5l36 -50c-37.333 -26.667 -78.5 -48.334 -123.5 -65.001s-90.833 -27.334 -137.5 -32.001c-8.66699 -1.33301 -17.334 -2.16602 -26.001 -2.49902s-17.334 -0.5 -26.001 -0.5
c-53.333 0 -105.5 8.83301 -156.5 26.5s-96.833 45.167 -137.5 82.5c-34.667 32 -60.834 70 -78.501 114s-26.5 89.333 -26.5 136c0 6 0.166992 12.167 0.5 18.5s0.833008 12.5 1.5 18.5c2.66699 33.333 9.66699 66 21 98s26 61.667 44 89c42 64 96.667 112 164 144
s138 48 212 48c7.33301 0 14.833 -0.166992 22.5 -0.5s15.167 -0.5 22.5 -0.5c5.33301 -0.666992 10.666 -1.16699 15.999 -1.5s10.333 -0.833008 15 -1.5c80 -11.333 148.667 -42.833 206 -94.5s87 -119.834 89 -204.501v-11v-8.5c0 -3 -0.333008 -6.16699 -1 -9.5
c-2.66699 -44 -14.834 -86.333 -36.501 -127s-51.5 -73.334 -89.5 -98.001v0zM546.002 304.999c-2.66699 20 -11.1641 37.166 -25.4971 51.499s-31.833 21.5 -52.5 21.5h-8c-26 -4 -47 -16.5 -63 -37.5s-27.667 -43.833 -35 -68.5
c-2.66699 -7.33301 -4.66699 -14.666 -6 -21.999l-4 -21c0 -1.33301 -0.166992 -2.83301 -0.5 -4.5s-0.833008 -3.16699 -1.5 -4.5v-2v-1c-0.666992 -4.66699 -1.33398 -9 -2.00098 -13s-1 -7.66699 -1 -11c0 -27.333 7.16699 -48 21.5 -62s29.833 -21 46.5 -21
c5.33301 0 10.666 0.5 15.999 1.5s10.666 2.83301 15.999 5.5c16 6.66699 31.333 18 46 34s25 36 31 60l22 94v0z" />
    <glyph glyph-name="A" unicode="A" horiz-adv-x="690" 
d="M19 0l240 637h156l246 -637h-154l-53 135h-245l-45 -135h-145v0zM246 241l177 -0.000976562l-71 208c-2.66699 10 -5.16699 20.5 -7.5 31.5s-4.5 21.833 -6.5 32.5l-2 11.5l-2 10.5l-8 -46c-2.66699 -15.333 -6 -29.666 -10 -42.999l-70 -205v0z" />
    <glyph glyph-name="B" unicode="B" horiz-adv-x="571" 
d="M84 0l0.000976562 637.001h128c12 0 24.167 -0.166992 36.5 -0.5s24.833 -0.833008 37.5 -1.5c48.667 -3.33301 93.5 -14.833 134.5 -34.5s63.833 -57.834 68.5 -114.501v-18c0 -40.667 -12.833 -71.167 -38.5 -91.5s-57.5 -34.5 -95.5 -42.5
c44.667 -8 82 -23.333 112 -46s45 -57.667 45 -105v-16c-4.66699 -61.333 -29.5 -102.833 -74.5 -124.5s-93.833 -34.834 -146.5 -39.501c-18.667 -1.33301 -36.834 -2.16602 -54.501 -2.49902s-34.5 -0.5 -50.5 -0.5h-102v0zM220.001 277.001l-0.00195312 -169.998
c2 0 4.33301 -0.166992 7 -0.5s5.33398 -0.5 8.00098 -0.5h2h3c1.33301 -0.666992 3 -1 5 -1h5h11.5c3.66699 0 7.5 0.333008 11.5 1c26 1.33301 49.833 7.33301 71.5 18s32.834 33 33.501 67l-2 2c0 33.333 -10.833 55.166 -32.5 65.499s-45.167 16.166 -70.5 17.499
c-4 0.666992 -7.83301 1 -11.5 1h-11.5h-30v0zM219.999 382.003l6 0.000976562h6c0.666992 -0.666992 1.16699 -1 1.5 -1h1.5h5h5h12.5c4.33301 0 8.83301 0.333008 13.5 1c22.667 1.33301 43.5 6.66602 62.5 15.999s28.833 28.333 29.5 57v4
c0 27.333 -9.33301 45.833 -28 55.5s-39 15.167 -61 16.5c-4 0.666992 -8 1 -12 1h-12h-30v-150v0z" />
    <glyph glyph-name="C" unicode="C" horiz-adv-x="660" 
d="M600 472c-27.333 22.667 -55.502 40.168 -84.502 52.501s-59.833 18.5 -92.5 18.5c-8 0 -16.333 -0.333008 -25 -1s-17.334 -2 -26.001 -4c-2.66699 0 -5.5 -0.333008 -8.5 -1s-5.83301 -1.33398 -8.5 -2.00098c-50 -11.333 -88.167 -37.333 -114.5 -78
s-40.5 -84 -42.5 -130v-5.5v-5.5v-2v-1c0.666992 -50 15.834 -96 45.501 -138s72.834 -66.333 129.501 -73c2 0 4.16699 -0.166992 6.5 -0.5s4.5 -0.833008 6.5 -1.5c4.66699 0 9.16699 -0.166992 13.5 -0.5s8.5 -0.5 12.5 -0.5c34.667 0 67.5 6.5 98.5 19.5
s60.833 31.833 89.5 56.5l-2 -141c-18.667 -10 -38.167 -18.333 -58.5 -25s-40.833 -12 -61.5 -16c-12.667 -2 -25.167 -3.66699 -37.5 -5s-24.5 -2 -36.5 -2c-89.333 0 -169 29 -239 87s-105 139.667 -105 245c0 86.667 27.667 161 83 223s126 97.667 212 107
c9.33301 1.33301 18.333 2.33301 27 3s17.334 1 26.001 1c33.333 0 66.5 -4 99.5 -12s65.5 -18.667 97.5 -32l-5 -136v0z" />
    <glyph glyph-name="D" unicode="D" horiz-adv-x="679" 
d="M78 0v637h186c44.667 0 88.5 -3.16699 131.5 -9.5s83.5 -23.833 121.5 -52.5c35.333 -28 63 -63.667 83 -107s31 -88 33 -134c0.666992 -3.33301 1 -6.66602 1 -9.99902v-10v-3.5v-3.5c-1.33301 -48 -12 -94.333 -32 -139s-49.333 -81.334 -88 -110.001
c-34 -23.333 -70.5 -38.5 -109.5 -45.5s-78.833 -11.167 -119.5 -12.5h-20.5h-21.5h-165v0zM214 522v-406.997c4.66699 0 9.66699 -0.166992 15 -0.5s11 -0.5 17 -0.5h5.5h5.5c4 -0.666992 8 -1 12 -1h11c6.66699 0 13.334 0.166992 20.001 0.5s13.334 0.833008 20.001 1.5
c20 1.33301 39.667 4.66602 59 9.99902s36 13.333 50 24c22 17.333 38.5 40.666 49.5 69.999s16.833 59.666 17.5 90.999v2.5v3.5v3.5v3.5c-0.666992 31.333 -6.33398 61.5 -17.001 90.5s-26.667 52.833 -48 71.5c-15.333 13.333 -33 22.5 -53 27.5s-40.667 7.83301 -62 8.5
c-4.66699 0.666992 -9.33398 1 -14.001 1h-14h-74v0z" />
    <glyph glyph-name="E" unicode="E" horiz-adv-x="520" 
d="M83 0v637h374v-115h-238v-130h238v-116h-238v-159h238v-117h-374v0z" />
    <glyph glyph-name="F" unicode="F" horiz-adv-x="431" 
d="M83 0v637h374v-115h-238v-130h238v-116h-238v-276h-136v0z" />
    <glyph glyph-name="G" unicode="G" horiz-adv-x="741" 
d="M400 335l290.004 -0.0078125v-21c0 -58 -9.33301 -112.333 -28 -163s-55 -91.667 -109 -123c-17.333 -11.333 -36.333 -20.166 -57 -26.499s-41.334 -10.833 -62.001 -13.5c-7.33301 -0.666992 -14.5 -1.16699 -21.5 -1.5s-13.833 -0.5 -20.5 -0.5h-12
c-4 0 -8 0.333008 -12 1c-50 3.33301 -98.333 17.5 -145 42.5s-84.334 58.5 -113.001 100.5c-14 22.667 -25.333 46.834 -34 72.501s-14.334 51.5 -17.001 77.5c-0.666992 5.33301 -1.16699 10.833 -1.5 16.5s-0.5 11.5 -0.5 17.5c0 61.333 15.5 119.833 46.5 175.5
s74.833 97.834 131.5 126.501c12 6 24.333 11 37 15s25.667 7.66699 39 11c12.667 2.66699 25.334 4.66699 38.001 6s25 2 37 2h4.5h4.5c48.667 -1.33301 96 -13.166 142 -35.499s85.667 -53.166 119 -92.499l-90 -68c-24.667 25.333 -50.834 44.833 -78.501 58.5
s-57.167 20.5 -88.5 20.5c-10 0 -20.333 -0.666992 -31 -2s-21.667 -3.33301 -33 -6c-46 -14.667 -80.667 -42.167 -104 -82.5s-35 -83.166 -35 -128.499c0 -3.33301 0.166992 -6.83301 0.5 -10.5s0.833008 -7.16699 1.5 -10.5c0 -2 0.166992 -3.83301 0.5 -5.5
s0.5 -3.5 0.5 -5.5c0.666992 -1.33301 1.16699 -3 1.5 -5s0.5 -3.66699 0.5 -5c8 -50 28.833 -89.167 62.5 -117.5s70.167 -45.5 109.5 -51.5c5.33301 -1.33301 11 -2.16602 17 -2.49902s11.667 -0.5 17 -0.5c37.333 0 70.666 10.333 99.999 31s44 50.334 44 89.001l2 4
h-153v111v0z" />
    <glyph glyph-name="H" unicode="H" horiz-adv-x="700" 
d="M94 0v637h136v-256h276v256h136v-637h-136v267h-276v-267h-136v0z" />
    <glyph glyph-name="I" unicode="I" horiz-adv-x="271" 
d="M79 0v637h137v-637h-137v0z" />
    <glyph glyph-name="J" unicode="J" horiz-adv-x="400" 
d="M345 637l0.000976562 -429.999v-6v-6c-0.666992 -50 -9.16699 -95.833 -25.5 -137.5s-56.5 -64.834 -120.5 -69.501c-2 0 -4.33301 -0.166992 -7 -0.5s-5.33398 -0.5 -8.00098 -0.5s-5.33398 -0.166992 -8.00098 -0.5s-5 -0.5 -7 -0.5
c-41.333 0 -75.166 10.833 -101.499 32.5s-43.5 53.834 -51.5 96.501l97 47c0.666992 -2.66699 1.16699 -5.33398 1.5 -8.00098s0.833008 -5.33398 1.5 -8.00098c3.33301 -11.333 8.5 -21.833 15.5 -31.5s16.167 -14.5 27.5 -14.5c1.33301 0 2.83301 0.166992 4.5 0.5
s3.16699 0.5 4.5 0.5c1.33301 0.666992 2.83301 1.16699 4.5 1.5s3.16699 0.833008 4.5 1.5c13.333 4 21.5 10.833 24.5 20.5s4.83301 20.5 5.5 32.5c0.666992 9.33301 1.16699 18.333 1.5 27s0.5 17.334 0.5 26.001v26.5v26.5v374h136v0z" />
    <glyph glyph-name="K" unicode="K" horiz-adv-x="621" 
d="M73 0v637h136v-289l211 289h159l-229 -290l237 -347h-164l-214 334v-334h-136v0z" />
    <glyph glyph-name="L" unicode="L" horiz-adv-x="470" 
d="M84 0v637h136v-520h218v-117h-354v0z" />
    <glyph glyph-name="M" unicode="M" horiz-adv-x="859" 
d="M52 0l97.0029 636.993h143l123 -374c4 -10.667 7 -21.667 9 -33l6 -35c0.666992 -3.33301 1.16699 -6.66602 1.5 -9.99902s0.833008 -6.66602 1.5 -9.99902c1.33301 15.333 3 30.333 5 45s5 29.334 9 44.001l125 373h143l95 -637h-128l-47 384
c-2.66699 18 -4.83398 35.833 -6.50098 53.5s-2.5 34.834 -2.5 51.501v4.5v5.5v1l1 1v6v5c-2.66699 -18 -5.83398 -35.667 -9.50098 -53s-7.83398 -34.666 -12.501 -51.999l-137 -407h-74l-135 407l-6 26l-6 27c-2 8.66699 -3.83301 17.334 -5.5 26.001
s-3.16699 17.334 -4.5 26.001c0 -20.667 -0.833008 -41.667 -2.5 -63s-3.5 -43 -5.5 -65l-47 -384h-130v0z" />
    <glyph glyph-name="N" unicode="N" horiz-adv-x="731" 
d="M79 0l-0.000976562 637.003h141l282 -370c2.66699 -3.33301 5.16699 -7 7.5 -11l7.5 -13l10 -18c3.33301 -6 6.33301 -12 9 -18c4.66699 -9.33301 8.83398 -18.333 12.501 -27l10.5 -24c-2.66699 20 -4.66699 40.5 -6 61.5s-2 41.833 -2 62.5v357h130v-637h-135l-288 378
l-6.5 9c-2.33301 3.33301 -4.5 6.66602 -6.5 9.99902c-4 6.66699 -8 13.834 -12 21.501l-12 23.5l-11.5 25.5l-10.5 23.5c1.33301 -10.667 2.5 -21.334 3.5 -32.001s2.16699 -21.334 3.5 -32.001l2 -32c0.666992 -10.667 1 -21.334 1 -32.001v-363h-130v0z" />
    <glyph glyph-name="O" unicode="O" horiz-adv-x="770" 
d="M84 475c31.333 56.667 74.165 100.001 128.498 130.001s111.5 45 171.5 45c7.33301 0 14.833 -0.166992 22.5 -0.5s15.167 -1.16602 22.5 -2.49902c25.333 -3.33301 50.5 -9.33301 75.5 -18s48.5 -20 70.5 -34c43.333 -28.667 78 -66.334 104 -113.001
s40.667 -95 44 -145c0.666992 -4 1 -8 1 -12v-12c0 -6.66699 -0.166992 -13.5 -0.5 -20.5s-1.16602 -13.833 -2.49902 -20.5c-1.33301 -14 -3.83301 -27.833 -7.5 -41.5s-8.16699 -27.167 -13.5 -40.5c-27.333 -64.667 -70.666 -114.834 -129.999 -150.501
s-122.333 -53.5 -189 -53.5h-10c-3.33301 0 -6.66602 0.333008 -9.99902 1c-24 1.33301 -47.5 5 -70.5 11s-45.167 14.333 -66.5 25c-56.667 30 -100.834 71.833 -132.501 125.5s-47.5 110.167 -47.5 169.5c0 9.33301 0.5 18.833 1.5 28.5s2.16699 19.5 3.5 29.5
c3.33301 16.667 8 33.5 14 50.5s13 33.167 21 48.5v0zM568.999 235.001c5.33301 13.333 9 26.667 11 40s3 27 3 41v5.5v5.5c-2 36 -11.833 70.667 -29.5 104s-42.167 59.333 -73.5 78c-9.33301 5.33301 -18.833 9.5 -28.5 12.5s-19.5 5.5 -29.5 7.5l-18 2
c-6 0.666992 -12 1 -18 1c-40.667 0 -78.167 -12 -112.5 -36s-59.166 -56.333 -74.499 -97c-2.66699 -8 -5 -16.667 -7 -26s-3.66699 -18.666 -5 -27.999c-0.666992 -4 -1.16699 -8.33301 -1.5 -13s-0.5 -9.33398 -0.5 -14.001v-4v-4c1.33301 -43.333 14 -84 38 -122
s57.333 -63.333 100 -76c4.66699 -1.33301 9.5 -2.5 14.5 -3.5s10.167 -2.16699 15.5 -3.5l14.5 -2c5 -0.666992 9.83301 -1 14.5 -1c41.333 0 79.166 11.833 113.499 35.5s58.833 56.167 73.5 97.5v0z" />
    <glyph glyph-name="P" unicode="P" horiz-adv-x="451" 
d="M78 0l-0.000976562 636.999h155c8 0 15.833 -0.166992 23.5 -0.5s15.5 -0.5 23.5 -0.5c30.667 -2 60.334 -7.83301 89.001 -17.5s52.667 -27.167 72 -52.5c8 -11.333 14.833 -24.5 20.5 -39.5s9.83398 -30.167 12.501 -45.5c1.33301 -7.33301 2.33301 -14.666 3 -21.999
s1 -14.333 1 -21v-6v-6c0 -4 -0.166992 -8 -0.5 -12s-0.833008 -8 -1.5 -12c-12.667 -68 -44.334 -111.5 -95.001 -130.5s-105 -28.5 -163 -28.5h-2h-2v-243h-136v0zM338.999 437.999v12.999c0 38 -12.333 61.667 -37 71s-54 14 -88 14v-188c33.333 0 62 4.83301 86 14.5
s37 34.834 39 75.501v0z" />
    <glyph glyph-name="Q" unicode="Q" horiz-adv-x="780" 
d="M721 -71l-136.002 -0.00292969l-70 79c-23.333 -5.33301 -46.166 -9.66602 -68.499 -12.999s-44.166 -5 -65.499 -5c-12.667 0 -26 0.666992 -40 2s-28.333 3.66602 -43 6.99902c-50 12 -95.5 34.833 -136.5 68.5s-71.5 74.834 -91.5 123.501
c-3.33301 8.66699 -6.5 17.5 -9.5 26.5s-5.5 18.167 -7.5 27.5c-3.33301 12 -5.66602 24 -6.99902 36s-2 23.667 -2 35c0 71.333 22 137.166 66 197.499s102.333 101.5 175 123.5c5.33301 2 10.833 3.66699 16.5 5s11.167 2.33301 16.5 3c11.333 2.66699 22.5 4.5 33.5 5.5
s21.833 1.5 32.5 1.5c83.333 0 158.666 -28.167 225.999 -84.5s105 -128.166 113 -215.499v-8.5v-9.5v-1.5c0 -0.333008 0.333008 -0.833008 1 -1.5v-10v-10c0 -49.333 -10.333 -94.166 -31 -134.499s-50 -78.166 -88 -113.499l116 -134v0zM433.998 109.997l-90.001 105.999
h132l46 -56c15.333 17.333 27.333 36 36 56s15 40.333 19 61l2 20.5c0.666992 7 1 13.833 1 20.5c0 55.333 -17.833 104.833 -53.5 148.5s-82.5 65.5 -140.5 65.5c-6.66699 0 -13.5 -0.166992 -20.5 -0.5s-14.167 -1.16602 -21.5 -2.49902l-10.5 -2
c-3.66699 -0.666992 -7.16699 -1.66699 -10.5 -3c-42.667 -13.333 -75.667 -38.333 -99 -75s-36.333 -75.667 -39 -117v-8v-8c0 -44.667 11.833 -86.5 35.5 -125.5s57.834 -65.167 102.501 -78.5c3.33301 -1.33301 7 -2.33301 11 -3l12 -2
c5.33301 -1.33301 10.5 -2.16602 15.5 -2.49902s9.83301 -0.5 14.5 -0.5c5.33301 0 11 0.166992 17 0.5s12 1.16602 18 2.49902c4 0 7.83301 0.333008 11.5 1l11.5 2v0z" />
    <glyph glyph-name="R" unicode="R" horiz-adv-x="571" 
d="M449 590c14.667 -13.333 26.333 -28.668 35 -46.001s14.667 -35 18 -53c0.666992 -4.66699 1.16699 -9.5 1.5 -14.5s0.5 -9.83301 0.5 -14.5v-4.5v-5.5c-2 -37.333 -15.333 -72.166 -40 -104.499s-57.667 -51.5 -99 -57.5l175 -290h-158l-166 298v-298h-137v637h195
c8 0 16.333 -0.166992 25 -0.5s17.334 -0.5 26.001 -0.5c22.667 -2 44.667 -6.16699 66 -12.5s40.666 -17.5 57.999 -33.5v0zM215.999 365.998l8.50098 0.00292969h9.5c2.66699 -0.666992 5.66699 -1 9 -1h10h9h9c24 1.33301 46.167 6.66602 66.5 15.999
s31.5 28.333 33.5 57v11c0 33.333 -11 55.166 -33 65.499s-46 16.166 -72 17.499c-4.66699 0.666992 -9.33398 1 -14.001 1h-14h-22v-167v0z" />
    <glyph glyph-name="S" unicode="S" horiz-adv-x="551" 
d="M71 81l76.001 85.998c8.66699 -18.667 22.667 -35 42 -49s39.666 -23 60.999 -27c4 -1.33301 8 -2.16602 12 -2.49902s8 -0.5 12 -0.5c3.33301 0 6.66602 0.166992 9.99902 0.5s6.66602 0.833008 9.99902 1.5c10.667 2 21 5.83301 31 11.5s18.333 13.5 25 23.5
c4.66699 5.33301 8.5 11.833 11.5 19.5s5.16699 15.167 6.5 22.5v4v4v5.5c0 1.66699 -0.333008 3.16699 -1 4.5c-0.666992 6 -2.16699 11.833 -4.5 17.5s-5.5 10.5 -9.5 14.5c-5.33301 6 -13.666 12.5 -24.999 19.5s-23.666 14.167 -36.999 21.5l-13.5 7.5
c-4.33301 2.33301 -8.83301 4.5 -13.5 6.5l-44.5 22.5c-14.333 7 -25.833 13.167 -34.5 18.5c-29.333 16 -53.666 37.167 -72.999 63.5s-29.666 56.833 -30.999 91.5l-2 4c0 30.667 9 59.667 27 87s40.333 48.333 67 63c19.333 10 39.5 17.667 60.5 23s42.167 8 63.5 8h4h4
c32.667 -1.33301 64.334 -8.83301 95.001 -22.5s56.667 -34.167 78 -61.5l-79 -78c-8.66699 14 -21.167 26.167 -37.5 36.5s-33.5 16.833 -51.5 19.5c-2.66699 0 -5.5 0.166992 -8.5 0.5s-5.83301 0.5 -8.5 0.5h-4.5h-4.5c-12.667 -1.33301 -25 -5.5 -37 -12.5
s-21 -17.5 -27 -31.5c-0.666992 -1.33301 -1.16699 -2.66602 -1.5 -3.99902s-0.833008 -2.66602 -1.5 -3.99902c-1.33301 -4.66699 -2.5 -9 -3.5 -13s-1.5 -7.66699 -1.5 -11c0 -18 7.16699 -33.333 21.5 -46s30.166 -23 47.499 -31
c5.33301 -2.66699 10.833 -5.16699 16.5 -7.5l15.5 -6.5l16 -6c5.33301 -2 10.666 -4.33301 15.999 -7c39.333 -18 75.166 -43 107.499 -75s48.5 -70.333 48.5 -115c0 -60.667 -23 -107.334 -69 -140.001s-96.667 -50.334 -152 -53.001h-7.5h-6.5
c-38.667 0 -76 7.83301 -112 23.5s-63.667 39.834 -83 72.501v0z" />
    <glyph glyph-name="T" unicode="T" horiz-adv-x="481" 
d="M350 522v-522h-136v522h-156v115h449v-115h-157v0z" />
    <glyph glyph-name="U" unicode="U" horiz-adv-x="669" 
d="M611 637l-0.000976562 -396.002c0 -89.333 -24 -154.166 -72 -194.499s-116.333 -60.5 -205 -60.5c-87.333 0 -154.833 19.833 -202.5 59.5s-71.5 104.834 -71.5 195.501v396h136v-374c0 -46.667 10.333 -84.834 31 -114.501s56.334 -44.5 107.001 -44.5
c49.333 0 85 14.833 107 44.5s33.333 67.834 34 114.501v374h136v0z" />
    <glyph glyph-name="V" unicode="V" horiz-adv-x="630" 
d="M284 0l-234 637.002h149l124 -397c3.33301 -11.333 6.33301 -22.833 9 -34.5s5 -23.5 7 -35.5c0.666992 -1.33301 1.16699 -2.83301 1.5 -4.5s0.5 -3.5 0.5 -5.5c1.33301 -6.66699 2.83301 -13.334 4.5 -20.001s3.16699 -13.334 4.5 -20.001c1.33301 11.333 3 23 5 35
s4.33301 24 7 36c2 9.33301 4.16699 18.5 6.5 27.5s4.83301 17.833 7.5 26.5l125 392h149l-238 -637h-128v0z" />
    <glyph glyph-name="W" unicode="W" horiz-adv-x="900" 
d="M556 637l94 -345.001c7.33301 -26 13.5 -52 18.5 -78s9.5 -52.333 13.5 -79c1.33301 26.667 3.5 53 6.5 79s7.5 52 13.5 78l84 345h133l-165 -637h-132l-113 405c-2.66699 10 -5.16699 19.833 -7.5 29.5s-4.16602 19.5 -5.49902 29.5c-2 9.33301 -3.66699 18.833 -5 28.5
s-2.33301 19.5 -3 29.5c-0.666992 -13.333 -1.83398 -26.5 -3.50098 -39.5s-3.5 -25.833 -5.5 -38.5l-4 -19.5c-1.33301 -6.33301 -3 -12.833 -5 -19.5l-115 -405h-130l-168 637h136l86 -353c4 -19.333 7.16699 -39.166 9.5 -59.499s4.5 -40.833 6.5 -61.5
c0 -4 0.166992 -8 0.5 -12s0.833008 -8 1.5 -12l10 57.5c3.33301 19 7 37.833 11 56.5c1.33301 6 2.83301 12.167 4.5 18.5s3.16699 12.5 4.5 18.5l94 347h135v0z" />
    <glyph glyph-name="X" unicode="X" horiz-adv-x="619" 
d="M285 470c6 -9.33301 11.1699 -18.998 15.5029 -28.998s8.5 -20.333 12.5 -31c2.66699 5.33301 5.16699 10.666 7.5 15.999s4.83301 10.666 7.5 15.999l6.5 15c2.33301 5.33301 4.83301 10.666 7.5 15.999l91 164h144l-191 -303l196 -334h-146l-96 177
c-2.66699 5.33301 -5.16699 11 -7.5 17s-4.5 12 -6.5 18c-2.66699 5.33301 -4.83398 11 -6.50098 17s-3.5 11.667 -5.5 17c-0.666992 -2 -1.33398 -3.83301 -2.00098 -5.5s-1.33398 -3.5 -2.00098 -5.5l-6 -14.5l-6 -14.5c-2 -5.33301 -4.16699 -10.666 -6.5 -15.999
s-4.83301 -10.333 -7.5 -15l-94 -175h-145l195 334l-191 303h145l91 -167v0z" />
    <glyph glyph-name="Y" unicode="Y" horiz-adv-x="592" 
d="M264 0l-0.00195312 289.998l-214 347h159l94 -173c4 -6.66699 7.33301 -13.334 10 -20.001s5 -13.334 7 -20.001l4 -12.5l4 -13.5c0.666992 -2 1.33398 -4.16699 2.00098 -6.5s1.33398 -4.83301 2.00098 -7.5c2 6.66699 4.16699 13.334 6.5 20.001
s4.83301 13.334 7.5 20.001s5.5 13.334 8.5 20.001s6.5 13.334 10.5 20.001l92 173h159l-214 -347v-290h-138v0z" />
    <glyph glyph-name="Z" unicode="Z" horiz-adv-x="650" 
d="M595 0h-535l331 528h-297v109h514l-329 -527h316v-110v0z" />
    <glyph glyph-name="bracketleft" unicode="[" horiz-adv-x="361" 
d="M107 652h196v-101h-87v-643h87v-102h-196v846v0z" />
    <glyph glyph-name="backslash" unicode="\" horiz-adv-x="540" 
d="M378 -81l-312 733h93l311 -733h-92v0z" />
    <glyph glyph-name="bracketright" unicode="]" horiz-adv-x="352" 
d="M251 652v-846h-196v102h88v643h-88v101h196v0z" />
    <glyph glyph-name="asciicircum" unicode="^" horiz-adv-x="650" 
d="M267 635h111l209 -243h-102l-161 161l-164 -161h-102l209 243v0z" />
    <glyph glyph-name="underscore" unicode="_" horiz-adv-x="451" 
d="M2 -120h445v-89h-445v89v0z" />
    <glyph glyph-name="grave" unicode="`" horiz-adv-x="381" 
d="M78 366l86 271h133l-135 -271h-84v0z" />
    <glyph glyph-name="a" unicode="a" horiz-adv-x="561" 
d="M506 0l-119.999 0.00390625l1 62c-17.333 -26 -37.833 -45.167 -61.5 -57.5s-51.167 -18.5 -82.5 -18.5l-5 -1c-46 0.666992 -85 15.667 -117 45s-53 65.666 -63 108.999c-0.666992 3.33301 -1.16699 6.66602 -1.5 9.99902s-0.833008 6.66602 -1.5 9.99902
c-0.666992 4 -1.16699 8 -1.5 12s-0.833008 8 -1.5 12c-0.666992 4.66699 -1.16699 9.5 -1.5 14.5s-0.5 9.83301 -0.5 14.5c0 5.33301 0.166992 10.666 0.5 15.999s0.5 10.666 0.5 15.999c4 42 16.667 81.5 38 118.5s53.666 60.833 96.999 71.5l10.5 2l10.5 2l16 2
c5.33301 0.666992 10.333 1 15 1c30 0 58.167 -7.16699 84.5 -21.5s47.833 -35.166 64.5 -62.499v71h119v-428v0zM284.001 92.0039l1.00195 -0.998047c32 0 57.167 12 75.5 36s28.5 50.333 30.5 79v5.5v5.5v2v2c-0.666992 24.667 -6.83398 47.667 -18.501 69
s-29.5 36 -53.5 44c-2 0.666992 -4.33301 1.16699 -7 1.5s-5 0.833008 -7 1.5c-4 0.666992 -7.83301 1.16699 -11.5 1.5s-6.83398 0.5 -9.50098 0.5c-30 0 -54.333 -11.333 -73 -34s-29.667 -47.667 -33 -75v-4.5v-5.5c-0.666992 -0.666992 -1 -1.33398 -1 -2.00098v-2v-3.5
v-3.5v-1.5v-1.5c0.666992 -28.667 9.5 -54.834 26.5 -78.501s42.5 -35.5 76.5 -35.5h4v0z" />
    <glyph glyph-name="b" unicode="b" horiz-adv-x="559" 
d="M57 0l-0.00195312 673.998h118v-243c0 -12.667 -0.5 -25.667 -1.5 -39s-2.16699 -26.666 -3.5 -39.999c18.667 27.333 41.834 49 69.501 65s56.834 24 87.501 24c6.66699 0 13.5 -0.5 20.5 -1.5s14.167 -2.16699 21.5 -3.5c6.66699 -2 13.5 -4.16699 20.5 -6.5
s13.833 -5.16602 20.5 -8.49902c32.667 -17.333 57.334 -43.333 74.001 -78s26 -71 28 -109v-7.5v-7.5v-5.5v-5.5c-2 -56 -19.5 -107 -52.5 -153s-79.167 -69 -138.5 -69l-2 -1c-32.667 0.666992 -60.334 7.16699 -83.001 19.5s-43 31.5 -61 57.5l2 -62h-120v0z
M385.998 213.998c0 38.667 -10.333 68.167 -31 88.5s-43.667 31.5 -69 33.5c-1.33301 0.666992 -2.83301 1 -4.5 1h-5.5c-26.667 0 -51.167 -10 -73.5 -30s-33.5 -50.333 -33.5 -91l1 -2c0 -34 8.66699 -62.833 26 -86.5s44.333 -35.5 81 -35.5s64 11.833 82 35.5
s27 52.5 27 86.5v0z" />
    <glyph glyph-name="c" unicode="c" horiz-adv-x="451" 
d="M392 13c-9.33301 -4.66699 -19.001 -8.66406 -29.001 -11.9971s-20 -6.33301 -30 -9c-10 -2 -20 -3.66699 -30 -5s-19.667 -2 -29 -2c-60 0 -112.5 21 -157.5 63s-67.5 97.333 -67.5 166l1 5c1.33301 69.333 24.833 123.666 70.5 162.999s97.834 59 156.501 59
c9.33301 0 18.833 -0.5 28.5 -1.5s19.5 -2.5 29.5 -4.5c9.33301 -2 18.833 -4.66699 28.5 -8s19.167 -7.33301 28.5 -12v-125c-10 9.33301 -21.5 17.166 -34.5 23.499s-26.5 10.5 -40.5 12.5c-4.66699 1.33301 -9.5 2.16602 -14.5 2.49902s-9.83301 0.5 -14.5 0.5
c-28.667 0 -54.667 -9 -78 -27s-35 -44.667 -35 -80c0 -0.666992 0.166992 -1.16699 0.5 -1.5l0.5 -0.5c0 -0.666992 0.166992 -1.16699 0.5 -1.5s0.5 -0.833008 0.5 -1.5c0.666992 -30 9 -56.167 25 -78.5s39.333 -35.5 70 -39.5h3.5c1 0 2.16699 -0.333008 3.5 -1h2h2
c2 0 3.83301 -0.166992 5.5 -0.5s3.16699 -0.5 4.5 -0.5c19.333 0 37.5 4 54.5 12s31.833 19.333 44.5 34v-130v0z" />
    <glyph glyph-name="d" unicode="d" horiz-adv-x="561" 
d="M506 0l-120 0.00292969l1 62c-16.667 -26 -37 -45.167 -61 -57.5s-51.667 -18.5 -83 -18.5c-48 0 -88.167 14.333 -120.5 43s-53.833 65.334 -64.5 110.001c-0.666992 3.33301 -1.16699 6.66602 -1.5 9.99902s-0.833008 6.66602 -1.5 9.99902
c-0.666992 4 -1.16699 8 -1.5 12s-0.833008 8 -1.5 12c-0.666992 4.66699 -1.16699 9.5 -1.5 14.5s-0.5 9.83301 -0.5 14.5c0 5.33301 0.166992 10.666 0.5 15.999s0.5 10.666 0.5 15.999c4 42 16.667 81.5 38 118.5s53.666 60.833 96.999 71.5
c10.667 2.66699 21 4.66699 31 6s19.333 2 28 2c30.667 0 57.834 -7.66699 81.501 -23s45.5 -37.666 65.5 -66.999c-1.33301 13.333 -2.5 26.666 -3.5 39.999s-1.5 26.333 -1.5 39v243h119v-674v0zM178 230.003l0.00195312 -4.49805v-5.5
c-0.666992 -0.666992 -1 -1.33398 -1 -2.00098v-2v-3.5v-3.5v-2.5v-3.5c1.33301 -28 10.5 -53.667 27.5 -77s42.167 -35 75.5 -35l4 1l1 -1c30.667 0 55.167 11.5 73.5 34.5s28.833 48.5 31.5 76.5c0.666992 2.66699 1 5.16699 1 7.5v7.5v6v5
c-2 22.667 -8.83301 44.167 -20.5 64.5s-28.834 34.166 -51.501 41.499c-2 0.666992 -4.33301 1.16699 -7 1.5s-5 0.833008 -7 1.5c-4 0.666992 -7.83301 1.16699 -11.5 1.5s-6.83398 0.5 -9.50098 0.5c-30 0 -54.333 -11.333 -73 -34s-29.667 -47.667 -33 -75v0z" />
    <glyph glyph-name="e" unicode="e" horiz-adv-x="549" 
d="M493 183l-321.002 0.00292969c6.66699 -26.667 16.334 -47.834 29.001 -63.501s33.334 -24.834 62.001 -27.501h4h4h0.5h1.5c1.33301 -0.666992 2.83301 -1 4.5 -1h4.5c19.333 0 37 4.5 53 13.5s29.667 21.833 41 38.5l100 -49c-25.333 -38 -54.666 -65.5 -87.999 -82.5
s-73 -25.5 -119 -25.5l-13 -1c-64.667 3.33301 -115.334 26.5 -152.001 69.5s-55 93.833 -55 152.5c0 5.33301 0.166992 10.5 0.5 15.5s0.833008 10.167 1.5 15.5c0.666992 3.33301 1.16699 6.66602 1.5 9.99902s0.5 6.66602 0.5 9.99902
c10 56.667 36.5 101.334 79.5 134.001s90.833 49 143.5 49c7.33301 0 15.166 -0.333008 23.499 -1s16.5 -2 24.5 -4c6.66699 -0.666992 13.334 -2 20.001 -4s13 -4 19 -6c51.333 -18.667 85.833 -48 103.5 -88s26.5 -83.667 26.5 -131v-24v0zM273.998 339.003
c-28.667 0 -50.668 -7.00098 -66.001 -21.001s-25.666 -34 -30.999 -60h193c-4.66699 26.667 -14.5 46.834 -29.5 60.501s-37.167 20.5 -66.5 20.5v0z" />
    <glyph glyph-name="f" unicode="f" horiz-adv-x="331" 
d="M78 0v331.005h-57v97h57v96c0 33.333 5 63 15 89s32 45.333 66 58l20.5 6c7 2 14.167 3.33301 21.5 4c5.33301 1.33301 10.666 2.16602 15.999 2.49902s10.666 0.5 15.999 0.5c6 0 12 -0.333008 18 -1l18 -2c6 -1.33301 12 -2.5 18 -3.5s12 -2.16699 18 -3.5v-99
c-4 2 -8.66699 4 -14 6s-10.666 3.33301 -15.999 4c-3.33301 0.666992 -6.66602 1.16699 -9.99902 1.5s-6.33301 0.5 -9 0.5h-2.5h-3.5c-6.66699 -0.666992 -13 -2.33398 -19 -5.00098s-11 -6.33398 -15 -11.001c-6.66699 -8 -11.5 -17.5 -14.5 -28.5
s-4.83301 -22.5 -5.5 -34.5v-3.5v-3.5v-7.5v-6.5c0.666992 -4.66699 1.16699 -9 1.5 -13s0.833008 -8 1.5 -12c0 -6.66699 0.333008 -12.834 1 -18.501s1 -10.834 1 -15.501h79v-97h-79v-331h-123v0z" />
    <glyph glyph-name="g" unicode="g" horiz-adv-x="561" 
d="M392 428l117 0.00390625v-422c0 -27.333 -2 -54.166 -6 -80.499s-18.333 -49.833 -43 -70.5c-18.667 -16 -39.667 -27.333 -63 -34s-47.333 -10.667 -72 -12c-5.33301 -0.666992 -10.666 -1 -15.999 -1h-16c-7.33301 0 -14.833 0.166992 -22.5 0.5
s-15.5 0.833008 -23.5 1.5c-39.333 4 -76 15.5 -110 34.5s-52.667 51.833 -56 98.5l135 -1c2.66699 -16 11 -27.833 25 -35.5s29 -11.834 45 -12.501h2.5h3.5c3.33301 0 6.83301 0.166992 10.5 0.5s7.5 0.833008 11.5 1.5l13.5 2c4.33301 0.666992 8.16602 1.66699 11.499 3
c21.333 8.66699 35.333 22.667 42 42s10.334 39.666 11.001 60.999v6v6v49c-17.333 -24.667 -37.666 -43.334 -60.999 -56.001s-50.333 -19 -81 -19c-48.667 0 -89.334 13.833 -122.001 41.5s-54.334 64.834 -65.001 111.501c-2 8.66699 -3.66699 18 -5 28
s-2.33301 20 -3 30v7.5v7.5v10.5c0 3.66699 0.333008 7.16699 1 10.5c2.66699 43.333 14.667 84.166 36 122.499s54.333 63.166 99 74.499c4 1.33301 8 2.16602 12 2.49902s8.33301 0.833008 13 1.5c4 0.666992 8 1 12 1h12c30 0 58.667 -6.83301 86 -20.5
s49.333 -34.167 66 -61.5v71v0zM397 214.004c0 38 -10.332 67.332 -30.999 87.999s-43.667 32 -69 34c-1.33301 0.666992 -2.83301 1 -4.5 1h-5.5h-1.5h-1.5c-24.667 -0.666992 -47.334 -10.167 -68.001 -28.5s-31.667 -45.5 -33 -81.5v-4v-4
c-0.666992 -1.33301 -1 -2.66602 -1 -3.99902v-4c0 -32 9.16699 -59.5 27.5 -82.5s44.5 -34.5 78.5 -34.5c36.667 0 64 11.5 82 34.5s27 51.5 27 85.5v0z" />
    <glyph glyph-name="h" unicode="h" horiz-adv-x="540" 
d="M57 0l0.00292969 673.998h121v-240c0 -12 -0.666992 -24.5 -2 -37.5l-4 -39.5c23.333 23.333 49.166 43.333 77.499 60s58.5 25 90.5 25c10 0 20.5 -0.833008 31.5 -2.5s21.833 -4.5 32.5 -8.5c38 -13.333 61.667 -34.833 71 -64.5s14 -61.5 14 -95.5v-271h-123v211v2.5
v3.5c0 30.667 -3.83301 58.667 -11.5 84s-29.834 38 -66.501 38h-14c-34.667 -2.66699 -58.334 -16 -71.001 -40s-20 -50.333 -22 -79c0 -5.33301 -0.166992 -10.666 -0.5 -15.999s-0.5 -10.666 -0.5 -15.999v-188h-123v0z" />
    <glyph glyph-name="i" unicode="i" horiz-adv-x="241" 
d="M57 0v428h123v-428h-123v0zM115 671h2.5h2.5c18 -1.33301 34.333 -8 49 -20s22 -29.667 22 -53s-7.33301 -41 -22 -53s-31 -18.667 -49 -20h-2.5h-2.5c-18.667 0 -35.667 6 -51 18s-23 30.333 -23 55s7.66699 43 23 55s32.333 18 51 18v0z" />
    <glyph glyph-name="j" unicode="j" horiz-adv-x="241" 
d="M57 -193v621h123v-621h-123v0zM44 598c0 19.333 6.00195 37.167 18.002 53.5s30.333 24.5 55 24.5c21.333 0 37.666 -7.16699 48.999 -21.5s17.666 -29.833 18.999 -46.5c0.666992 -2 1 -3.83301 1 -5.5v-4.5v-2.5v-2.5c-1.33301 -18 -7.5 -34.333 -18.5 -49
s-27.833 -22 -50.5 -22c-24.667 0 -43 7.83301 -55 23.5s-18 33.167 -18 52.5v0z" />
    <glyph glyph-name="k" unicode="k" horiz-adv-x="540" 
d="M57 674h123v-436l159 190h149l-172 -190l188 -238h-152l-172 227v-227h-123v674v0z" />
    <glyph glyph-name="l" unicode="l" horiz-adv-x="232" 
d="M57 0v674h123v-674h-123v0z" />
    <glyph glyph-name="m" unicode="m" horiz-adv-x="799" 
d="M170 0l-125.003 -0.000976562v428h125v-68c19.333 25.333 40.5 45.166 63.5 59.499s49.5 21.5 79.5 21.5h16.5c5.66699 0 11.5 -0.666992 17.5 -2c25.333 -4 46.333 -13.667 63 -29s28.667 -34.666 36 -57.999c18.667 26.667 41 48.167 67 64.5s55 24.5 87 24.5h7h8
c2.66699 0 5.33398 -0.166992 8.00098 -0.5s5 -0.833008 7 -1.5c39.333 -5.33301 66.333 -22 81 -50s23.334 -58.333 26.001 -91c0.666992 -8 1.16699 -16 1.5 -24s0.5 -16 0.5 -24v-250h-125v224v12.5v12.5c-1.33301 22.667 -6.16602 43.5 -14.499 62.5
s-26.5 28.5 -54.5 28.5h-5c-30.667 0 -52 -10.833 -64 -32.5s-19.333 -45.834 -22 -72.501c-0.666992 -8 -1.16699 -16 -1.5 -24s-0.5 -15.667 -0.5 -23v-188h-123v211v19.5c0 7 -0.333008 13.833 -1 20.5c-2 22 -7.33301 42.167 -16 60.5s-25 27.5 -49 27.5h-12
c-28 -3.33301 -47.5 -15.666 -58.5 -36.999s-17.833 -44.333 -20.5 -69c-0.666992 -8 -1.16699 -15.667 -1.5 -23s-0.5 -14.666 -0.5 -21.999v-188v0z" />
    <glyph glyph-name="n" unicode="n" horiz-adv-x="549" 
d="M57 0l0.00292969 427.997h121v-68c21.333 23.333 46 42.833 74 58.5s57.333 23.5 88 23.5c5.33301 0 10.666 -0.166992 15.999 -0.5s10.666 -1.16602 15.999 -2.49902c5.33301 -0.666992 10.833 -1.66699 16.5 -3s10.834 -3 15.501 -5
c38 -13.333 61.667 -34.833 71 -64.5s14 -61.5 14 -95.5v-271h-123v211v2.5v3.5c0 30.667 -3.83301 58.667 -11.5 84s-29.834 38 -66.501 38h-14c-34.667 -2.66699 -58.334 -16 -71.001 -40s-20 -50.333 -22 -79c0 -5.33301 -0.166992 -10.666 -0.5 -15.999
s-0.5 -10.666 -0.5 -15.999v-188h-123v0z" />
    <glyph glyph-name="o" unicode="o" horiz-adv-x="580" 
d="M527 212c0 -68 -23.668 -122.333 -71.001 -163s-103.666 -61 -168.999 -61l-23 -1c-61.333 4.66699 -112.5 29 -153.5 73s-61.5 95.333 -61.5 154v7.5c0 2.33301 0.333008 4.83301 1 7.5c0 2 0.166992 4 0.5 6s0.5 4 0.5 6c0.666992 3.33301 1.16699 6.5 1.5 9.5
s0.5 5.83301 0.5 8.5c12.667 60 41.167 105.167 85.5 135.5s91.833 45.833 142.5 46.5h2h2h2.5h3.5c58.667 -1.33301 112.667 -21.5 162 -60.5s74 -95.167 74 -168.5v0zM174.999 216c0 -25.333 9.33301 -47.833 28 -67.5s39 -32.5 61 -38.5l12 -2c4 -0.666992 8 -1 12 -1
c29.333 0 56 10.833 80 32.5s36 47.167 36 76.5v1.5v1.5c-0.666992 27.333 -13 52.5 -37 75.5s-50.333 34.5 -79 34.5h-1.5h-1.5c-26.667 -0.666992 -51.5 -12.5 -74.5 -35.5s-34.833 -47.833 -35.5 -74.5v-1.5v-1.5v0z" />
    <glyph glyph-name="p" unicode="p" horiz-adv-x="559" 
d="M57 -193v621h118v-71c17.333 26.667 39.333 47.5 66 62.5s55 22.5 85 22.5c6 0 12.167 -0.333008 18.5 -1s12.833 -1.66699 19.5 -3c8 -2 15.833 -4.5 23.5 -7.5s15.167 -6.16699 22.5 -9.5c32.667 -17.333 57.334 -43.333 74.001 -78s26 -71 28 -109v-7.5v-7.5v-5.5
v-5.5c-2 -56 -19.5 -107 -52.5 -153s-79.167 -69 -138.5 -69l-2 -1c-32.667 0.666992 -60.334 7.16699 -83.001 19.5s-43 31.5 -61 57.5c2.66699 -12.667 4.16699 -25.5 4.5 -38.5s0.5 -25.5 0.5 -37.5v-179h-123v0zM277 92c36.667 0 64 11.833 82 35.5s27 52.5 27 86.5
c0 38.667 -10.333 68.167 -31 88.5s-43.667 31.5 -69 33.5c-1.33301 0.666992 -2.83301 1 -4.5 1h-5.5c-26.667 0 -51.167 -10 -73.5 -30s-33.5 -50.333 -33.5 -91l1 -2c0 -34 8.66699 -62.833 26 -86.5s44.333 -35.5 81 -35.5v0z" />
    <glyph glyph-name="q" unicode="q" horiz-adv-x="561" 
d="M506 -193l-123.999 0.00390625v178c0 12.667 0.166992 25.5 0.5 38.5s1.83301 25.833 4.5 38.5c-17.333 -26 -37.833 -45.167 -61.5 -57.5s-51.167 -18.5 -82.5 -18.5l-5 -1c-46 0.666992 -85 15.667 -117 45s-53 65.666 -63 108.999
c-0.666992 3.33301 -1.16699 6.66602 -1.5 9.99902s-0.833008 6.66602 -1.5 9.99902c-0.666992 4 -1.16699 8 -1.5 12s-0.833008 8 -1.5 12c-0.666992 4.66699 -1.16699 9.5 -1.5 14.5s-0.5 9.83301 -0.5 14.5c0 5.33301 0.166992 10.666 0.5 15.999s0.5 10.666 0.5 15.999
c4 42 16.667 81.5 38 118.5s53.666 60.833 96.999 71.5l10.5 2l10.5 2l16 2c5.33301 0.666992 10.333 1 15 1c30 0 58.167 -7.16699 84.5 -21.5s47.833 -35.166 64.5 -62.499v71h119v-621v0zM178.001 230.004l0.00195312 -4.49805v-5.5
c-0.666992 -0.666992 -1 -1.33398 -1 -2.00098v-2v-3.5v-3.5v-2.5v-3.5c1.33301 -28 10.5 -53.667 27.5 -77s42.167 -35 75.5 -35l4 1l1 -1c30.667 0 55.167 11.5 73.5 34.5s28.833 48.5 31.5 76.5c0.666992 2.66699 1 5.16699 1 7.5v7.5v6v5
c-2 22.667 -8.83301 44.167 -20.5 64.5s-28.834 34.166 -51.501 41.499c-2 0.666992 -4.33301 1.16699 -7 1.5s-5 0.833008 -7 1.5c-4 0.666992 -7.83301 1.16699 -11.5 1.5s-6.83398 0.5 -9.50098 0.5c-30 0 -54.333 -11.333 -73 -34s-29.667 -47.667 -33 -75v0z" />
    <glyph glyph-name="r" unicode="r" horiz-adv-x="381" 
d="M170 316c14.667 41.333 32.999 72.168 54.999 92.501s50.667 30.5 86 30.5c4.66699 0 9.83398 -0.166992 15.501 -0.5s11.5 -0.833008 17.5 -1.5c2.66699 0 5.16699 -0.166992 7.5 -0.5s4.5 -0.5 6.5 -0.5l-19 -133c-10 3.33301 -20.167 5.83301 -30.5 7.5
s-20.833 2.5 -31.5 2.5h-21c-34 -4.66699 -56 -19.334 -66 -44.001s-15 -51.667 -15 -81v-188h-123v428h123l-5 -112v0z" />
    <glyph glyph-name="s" unicode="s" horiz-adv-x="460" 
d="M55 75l95.9971 50.0039c2.66699 -16.667 11.167 -30 25.5 -40s29.833 -15.667 46.5 -17h2.5h3.5c2.66699 0 5.33398 0.166992 8.00098 0.5s5.33398 0.833008 8.00098 1.5c5.33301 0.666992 10.333 1.83398 15 3.50098s8.66699 3.5 12 5.5c6.66699 3.33301 11.667 8 15 14
s5 12.333 5 19c0 1.33301 -0.166992 2.83301 -0.5 4.5s-0.5 3.5 -0.5 5.5c-0.666992 1.33301 -1.16699 2.83301 -1.5 4.5s-0.833008 3.16699 -1.5 4.5c-3.33301 7.33301 -10.5 13.833 -21.5 19.5s-22.833 10.5 -35.5 14.5c-9.33301 4 -18.5 7.33301 -27.5 10
s-16.167 5 -21.5 7c-1.33301 0.666992 -2.5 1.16699 -3.5 1.5s-2.16699 0.833008 -3.5 1.5c-24 9.33301 -46.667 22.166 -68 38.499s-34.333 38.5 -39 66.5c0 1.33301 -0.166992 2.66602 -0.5 3.99902s-0.5 2.66602 -0.5 3.99902c0 0.666992 -0.166992 1.66699 -0.5 3
s-0.5 2.66602 -0.5 3.99902c0 26 8.33301 50 25 72s37 38 61 48c9.33301 4 19.166 7.33301 29.499 10s20.833 4.33398 31.5 5.00098c4.66699 0.666992 9.33398 1.16699 14.001 1.5s9.33398 0.5 14.001 0.5c4 0 7.83301 -0.166992 11.5 -0.5s7.16699 -0.5 10.5 -0.5
c29.333 -3.33301 57.166 -12 83.499 -26s46.5 -34 60.5 -60l-91 -45c-4.66699 13.333 -13.167 24.166 -25.5 32.499s-25.5 13.166 -39.5 14.499c-1.33301 0.666992 -2.83301 1 -4.5 1h-5.5c-2.66699 0 -5.5 -0.166992 -8.5 -0.5s-5.83301 -0.833008 -8.5 -1.5
c-4.66699 -1.33301 -9.16699 -2.83301 -13.5 -4.5s-8.5 -3.83398 -12.5 -6.50098c-2.66699 -2 -5.16699 -4.83301 -7.5 -8.5s-4.16602 -7.16699 -5.49902 -10.5c-0.666992 -2 -1.16699 -3.83301 -1.5 -5.5s-0.5 -3.16699 -0.5 -4.5s0.166992 -2.66602 0.5 -3.99902
s0.5 -2.66602 0.5 -3.99902c1.33301 -3.33301 2.83301 -6.33301 4.5 -9l4.5 -7c6 -6.66699 15.333 -12.667 28 -18s26 -10.333 40 -15c10 -2.66699 19.667 -5.5 29 -8.5s17.333 -5.83301 24 -8.5c2 -0.666992 3.66699 -1.33398 5 -2.00098l4 -2
c24.667 -10 44 -25.167 58 -45.5s22.667 -41.5 26 -63.5c0 -2.66699 0.166992 -5.5 0.5 -8.5s0.5 -5.83301 0.5 -8.5c0 -20.667 -5.5 -40.667 -16.5 -60s-28.167 -35 -51.5 -47c-10.667 -4 -22.834 -7.5 -36.501 -10.5s-27.834 -5.16699 -42.501 -6.5
c-5.33301 -0.666992 -10.666 -1.16699 -15.999 -1.5s-10.666 -0.5 -15.999 -0.5h-2.5h-2.5c-35.333 0.666992 -68.833 7.66699 -100.5 21s-54.5 36 -68.5 68v0z" />
    <glyph glyph-name="t" unicode="t" horiz-adv-x="311" 
d="M94 0v331h-62v97h62v141h123v-141h59v-97h-59v-331h-123v0z" />
    <glyph glyph-name="u" unicode="u" horiz-adv-x="549" 
d="M178 428l0.000976562 -225c1.33301 -34 8.16602 -59.833 20.499 -77.5s36.833 -27.167 73.5 -28.5c36 1.33301 60.5 10.833 73.5 28.5s19.5 43.5 19.5 77.5v225h124v-225c0 -72.667 -17.667 -127 -53 -163s-90 -54 -164 -54c-6 0 -12.167 0.166992 -18.5 0.5
s-12.833 0.833008 -19.5 1.5c-20.667 2 -41 6 -61 12s-38.333 15.333 -55 28c-28 23.333 -45.5 49.833 -52.5 79.5s-10.5 61.5 -10.5 95.5v225h123v0z" />
    <glyph glyph-name="v" unicode="v" horiz-adv-x="522" 
d="M198 0l-172 427.999h141l73 -222c5.33301 -15.333 9.5 -31 12.5 -47s5.83301 -32.333 8.5 -49c0.666992 8 1.66699 16.333 3 25s3 17.334 5 26.001l6 25c2 8.66699 4.33301 17 7 25l75 217h139l-175 -428h-123v0z" />
    <glyph glyph-name="w" unicode="w" horiz-adv-x="801" 
d="M468 428l60 -221.998c3.33301 -11.333 6 -23.166 8 -35.499l6 -36.5c0.666992 -3.33301 1.16699 -6.5 1.5 -9.5s0.833008 -6.16699 1.5 -9.5c3.33301 15.333 7 30.666 11 45.999s8.33301 30.333 13 45l66 222h135l-148 -428h-131l-65 220
c-5.33301 17.333 -10.166 34.5 -14.499 51.5s-8.5 34.5 -12.5 52.5c-2.66699 -18 -5.83398 -35.167 -9.50098 -51.5s-8.16699 -32.5 -13.5 -48.5l-65 -224h-131l-148 428h135l65 -214l2 -8c0.666992 -2.66699 1.66699 -5.33398 3 -8.00098l10.5 -41
c3.66699 -14 6.5 -28 8.5 -42c2.66699 17.333 5.5 34.166 8.5 50.499s6.83301 32.5 11.5 48.5l56 214h136v0z" />
    <glyph glyph-name="x" unicode="x" horiz-adv-x="522" 
d="M175 0l-145.999 -0.000976562l151 217l-143 211h154l42 -80c4.66699 -8 8.5 -16 11.5 -24s5.83301 -16.333 8.5 -25c1.33301 -2.66699 2.5 -5.5 3.5 -8.5s1.83301 -5.83301 2.5 -8.5c3.33301 12 7.5 23.333 12.5 34l15.5 32l47 80h146l-146 -209l154 -219h-154l-50 88
c-4 7.33301 -7.83301 15.333 -11.5 24s-7.16699 17.667 -10.5 27c-0.666992 2 -1.33398 4.16699 -2.00098 6.5s-1.33398 4.5 -2.00098 6.5c-1.33301 -3.33301 -2.66602 -7 -3.99902 -11s-2.66602 -7.66699 -3.99902 -11
c-2.66699 -7.33301 -5.83398 -14.666 -9.50098 -21.999l-11.5 -22l-54 -86v0z" />
    <glyph glyph-name="y" unicode="y" horiz-adv-x="522" 
d="M198 32l-170 396h141l74 -196c5.33301 -15.333 9.5 -31 12.5 -47s5.5 -32.333 7.5 -49c1.33301 8.66699 3 17.167 5 25.5s4.33301 16.833 7 25.5c2 8 4.33301 16.167 7 24.5l8 25.5l65 191h141l-255 -621h-137l94 225v0z" />
    <glyph glyph-name="z" unicode="z" horiz-adv-x="511" 
d="M455 0h-408l225 331h-199v97h387l-223 -331h218v-97v0z" />
    <glyph glyph-name="braceleft" unicode="{" horiz-adv-x="460" 
d="M405 642l0.000976562 -89.0039c-35.333 0 -59.833 -4.66699 -73.5 -14s-20.5 -34 -20.5 -74v-104c0 -38 -5.33301 -66.667 -16 -86s-35.667 -33.666 -75 -42.999c39.333 -10.667 64.333 -25.5 75 -44.5s16 -47.5 16 -85.5v-104c0 -36.667 5.5 -60 16.5 -70
s31.5 -15 61.5 -15l16 -1v-90h-37c-5.33301 0.666992 -11 1 -17 1s-12 0.333008 -18 1c-11.333 0.666992 -22.666 1.83398 -33.999 3.50098s-22.333 4.83398 -33 9.50098c-30 11.333 -47.5 29.5 -52.5 54.5s-7.5 51.167 -7.5 78.5v106c0 43.333 -8.33301 72.333 -25 87
s-44 22 -82 22h-8v92h2.5h3.5c0 -0.666992 0.166992 -1 0.5 -1h1.5h2.5h2.5c35.333 0 61.166 8.16699 77.499 24.5s24.5 44.833 24.5 85.5v108v2.5v2.5c0 26.667 2.66699 52.167 8 76.5s22.666 42.166 51.999 53.499c11.333 4.66699 23.5 7.83398 36.5 9.50098
s26.167 2.83398 39.5 3.50098h6.5h6.5h50v0z" />
    <glyph glyph-name="bar" unicode="|" horiz-adv-x="241" 
d="M71 681h89v-890h-89v890v0z" />
    <glyph glyph-name="braceright" unicode="}" horiz-adv-x="460" 
d="M58 642l42 0.00195312h16c5.33301 0 10.666 -0.333008 15.999 -1c14.667 -0.666992 29 -2.5 43 -5.5s27 -7.83301 39 -14.5c18 -10.667 29.833 -24.834 35.5 -42.501s8.83398 -36.167 9.50098 -55.5v-14.5v-14.5v-110c0 -39.333 7.66699 -67.166 23 -83.499
s41.333 -24.5 78 -24.5h3c1.33301 0 2.66602 0.333008 3.99902 1h4h3v-92h-9c-38.667 0 -66 -7.33301 -82 -22s-24 -43.667 -24 -87v-107c0 -32 -3.5 -60.333 -10.5 -85s-28.833 -42.334 -65.5 -53.001c-7.33301 -2 -15.166 -3.66699 -23.499 -5s-16.833 -2 -25.5 -2
c-5.33301 -0.666992 -10.5 -1 -15.5 -1h-14.5l-46 -1v90h15c30 0.666992 51 6 63 16s18 33.667 18 71v101c0 39.333 5.33301 68.5 16 87.5s35 33.833 73 44.5c-38 9.33301 -62.333 23.666 -73 42.999s-16 48 -16 86v106c-0.666992 39.333 -7.5 63.5 -20.5 72.5
s-38.167 13.5 -75.5 13.5v89v0z" />
    <glyph glyph-name="asciitilde" unicode="~" horiz-adv-x="669" 
d="M627 348l0.000976562 -95c-31.333 -20.667 -59.833 -35.834 -85.5 -45.501s-50.5 -14.5 -74.5 -14.5c-19.333 0 -39.833 3 -61.5 9s-46.167 13.333 -73.5 22c-24 8 -46.167 14.333 -66.5 19s-39.166 7 -56.499 7c-8 0 -15.667 -0.5 -23 -1.5s-15 -2.5 -23 -4.5
c-18 -4.66699 -36.833 -12.167 -56.5 -22.5s-42.167 -23.5 -67.5 -39.5v95c24.667 15.333 47.667 27.833 69 37.5s42.666 16.5 63.999 20.5c6.66699 1.33301 13.5 2.33301 20.5 3s14.167 1 21.5 1c18 0 37.333 -2 58 -6s42.334 -10.333 65.001 -19
c27.333 -9.33301 51.666 -17 72.999 -23s40.666 -9 57.999 -9c23.333 0 47.5 5.33301 72.5 16s53.833 27.334 86.5 50.001v0z" />
    <glyph glyph-name="space" 
 />
    <glyph glyph-name="F" 
 />
    <glyph glyph-name="F" unicode="&#x402;" 
 />
    <glyph glyph-name="asciitilde" 
 />
    <glyph glyph-name="asciitilde" unicode="&#x403;" 
 />
    <glyph glyph-name="D" 
 />
    <glyph glyph-name="D" unicode="&#x40c;" 
 />
    <glyph glyph-name="N" 
 />
    <glyph glyph-name="N" unicode="&#x40b;" 
 />
    <glyph glyph-name="bullet" 
 />
    <glyph glyph-name="bullet" unicode="&#x40f;" 
 />
    <glyph glyph-name="guilsinglleft" 
 />
    <glyph glyph-name="guilsinglleft" unicode="&#x452;" 
 />
    <glyph glyph-name="Ydieresis" 
 />
    <glyph glyph-name="Ydieresis" unicode="&#x45c;" 
 />
    <glyph glyph-name="tilde" 
 />
    <glyph glyph-name="tilde" unicode="&#x45b;" 
 />
    <glyph glyph-name="greater" unicode="&#xa0;" 
 />
    <glyph glyph-name="Z" unicode="&#xa1;" 
 />
    <glyph glyph-name="Z" unicode="&#x40e;" 
 />
    <glyph glyph-name="slash" unicode="&#xa2;" 
 />
    <glyph glyph-name="slash" unicode="&#x45e;" 
 />
    <glyph glyph-name="endash" unicode="&#xa3;" 
 />
    <glyph glyph-name="endash" unicode="&#x408;" 
 />
    <glyph glyph-name="quotedblleft" unicode="&#xa4;" 
 />
    <glyph glyph-name="emdash" unicode="&#xa5;" 
 />
    <glyph glyph-name="emdash" unicode="&#x490;" 
 />
    <glyph glyph-name="circumflex" unicode="&#xa6;" 
 />
    <glyph glyph-name="scaron" unicode="&#xa7;" horiz-adv-x="551" 
d="M152 379c-18 12.667 -32.001 27.6729 -42.001 45.0059s-16 35 -18 53v4.5v4.5v4v4c2.66699 35.333 18.834 67.666 48.501 96.999s69.167 44 118.5 44c68 0 117.167 -15.5 147.5 -46.5s45.5 -74.167 45.5 -129.5h-128c0 2 0.166992 4 0.5 6s0.5 4 0.5 6
s0.166992 3.83301 0.5 5.5s0.5 3.16699 0.5 4.5c0 20.667 -5.66699 35.5 -17 44.5s-23.666 13.833 -36.999 14.5h-1.5h-1.5h-1.5h-1.5c-12.667 -0.666992 -24.167 -4.66699 -34.5 -12s-15.5 -17.333 -15.5 -30c0 -24.667 10.333 -44.334 31 -59.001
s44.667 -28.334 72 -41.001l12.5 -6l13.5 -6c30 -14 58 -30.5 84 -49.5s40.667 -45.833 44 -80.5v-15c0 -31.333 -8.83301 -57.833 -26.5 -79.5s-39.5 -38.167 -65.5 -49.5c22.667 -8.66699 40.667 -24.667 54 -48s20 -47.666 20 -72.999
c0 -2.66699 -0.166992 -5.5 -0.5 -8.5s-0.5 -5.83301 -0.5 -8.5c-4 -30 -19.667 -57.5 -47 -82.5s-69 -37.5 -125 -37.5l-10 -1c-64.667 0.666992 -109 14.167 -133 40.5s-37.667 55.166 -41 86.499c-0.666992 4.66699 -1.16699 9.33398 -1.5 14.001
s-0.5 9.33398 -0.5 14.001h128c0 -0.666992 -0.166992 -1.33398 -0.5 -2.00098s-0.5 -1.33398 -0.5 -2.00098s-0.166992 -1.33398 -0.5 -2.00098s-0.5 -1.33398 -0.5 -2.00098c0 -18.667 5 -33.167 15 -43.5s21.333 -16.166 34 -17.499h2.5h2.5c2 0 4 0.166992 6 0.5
s3.66699 0.5 5 0.5c10.667 2.66699 20.5 8.16699 29.5 16.5s13.833 19.5 14.5 33.5v4c0 19.333 -8.66699 36.333 -26 51s-38 29 -62 43l-18.5 10c-6.33301 3.33301 -12.5 7 -18.5 11c-30.667 17.333 -58.834 36.333 -84.501 57s-39.167 46.334 -40.5 77.001
c0 1.33301 -0.166992 2.66602 -0.5 3.99902s-0.5 2.66602 -0.5 3.99902c0 0.666992 -0.166992 1.66699 -0.5 3s-0.5 2.66602 -0.5 3.99902c0 22.667 5.66699 43.167 17 61.5s24 33.5 38 45.5l9.5 7.5l8.5 6.5v0zM237.999 327.006c-12 -6 -21.6699 -13.832 -29.0029 -23.499
s-11.666 -19.834 -12.999 -30.501v-3.5v-2.5c0 -4 0.666992 -8 2 -12s3 -8 5 -12c1.33301 -4.66699 3.33301 -9.5 6 -14.5s6.33398 -9.83301 11.001 -14.5c8 -9.33301 19 -18.5 33 -27.5s30 -16.5 48 -22.5c4.66699 2.66699 8.83398 5.33398 12.501 8.00098
s7.16699 5.66699 10.5 9c10 8 17.167 16.167 21.5 24.5s6.5 16.166 6.5 23.499c0 19.333 -11.5 37.5 -34.5 54.5s-49.5 31.5 -79.5 43.5v0z" />
    <glyph glyph-name="H" unicode="&#xa8;" 
 />
    <glyph glyph-name="H" unicode="&#x401;" 
 />
    <glyph glyph-name="I" unicode="&#xa9;" horiz-adv-x="749" 
d="M50 288l0.000976562 2.99902v2c-0.666992 1.33301 -1 2.33301 -1 3v2c0 74 24.167 134 72.5 180s101.5 76.667 159.5 92c14.667 4 29.167 7 43.5 9s28.166 3 41.499 3h12c84 0 157.667 -29.167 221 -87.5s95 -127.166 95 -206.499c0 -74.667 -32.667 -141.667 -98 -201
s-140.666 -89 -225.999 -89c-84.667 0 -158.334 27.333 -221.001 82s-95.667 124 -99 208v0zM366.001 526.999c-69.333 0 -128.167 -23.334 -176.5 -70.001s-72.5 -103 -72.5 -169c2 -58 19 -104.833 51 -140.5s67.333 -61.5 106 -77.5
c17.333 -7.33301 34.166 -12.666 50.499 -15.999s31.5 -5 45.5 -5c72.667 0 134.834 23.333 186.501 70s77.5 103 77.5 169c0 72.667 -26.833 130.667 -80.5 174s-116.167 65 -187.5 65v0zM280 287.998c2 -33.333 11.666 -59.1699 28.999 -77.5029
s36.666 -29.5 57.999 -33.5c2.66699 -0.666992 5.66699 -1.16699 9 -1.5s6.66602 -0.5 9.99902 -0.5c19.333 0 36.833 5.66699 52.5 17s23.5 27.333 23.5 48h66c0 -33.333 -14.333 -60.666 -43 -81.999s-63 -32 -103 -32c-49.333 0 -88.666 14 -117.999 42
s-47.666 59 -54.999 93c0 2 -0.333008 4.33301 -1 7s-1 5.33398 -1 8.00098v2.5v3.5c-0.666992 0.666992 -1 1.5 -1 2.5v2.5c0 46.667 12.5 83.334 37.5 110.001s52.5 45 82.5 55c9.33301 3.33301 18.833 5.83301 28.5 7.5s18.834 2.5 27.501 2.5
c37.333 0 71 -10.667 101 -32s45 -49 45 -83h-66c-2.66699 18.667 -12 33.334 -28 44.001s-33.667 16.334 -53 17.001h-1.5h-1.5h-6c-2 0 -4 -0.333008 -6 -1c-22 -2.66699 -42 -12.834 -60 -30.501s-27 -42.834 -27 -75.501v-2.5c0 -1 0.333008 -2.16699 1 -3.5v-3v-4v0z
" />
    <glyph glyph-name="J" unicode="&#xaa;" 
 />
    <glyph glyph-name="J" unicode="&#x404;" 
 />
    <glyph glyph-name="ampersand" unicode="&#xab;" horiz-adv-x="441" 
d="M45 282l120 196l78 -39l-99 -157l99 -164l-78 -32l-120 196v0zM323 478l79 -39l-101 -157l101 -164l-79 -32l-122 196l122 196v0z" />
    <glyph glyph-name="quotesingle" unicode="&#xac;" 
 />
    <glyph glyph-name="daggerdbl" unicode="&#xad;" 
 />
    <glyph glyph-name="dagger" unicode="&#xae;" horiz-adv-x="749" 
d="M49 288c0 1.33301 -0.168945 2.33008 -0.501953 2.99707s-0.5 1.33398 -0.5 2.00098c0 1.33301 -0.166992 2.33301 -0.5 3s-0.5 1.33398 -0.5 2.00098c0 74.667 24.167 135.167 72.5 181.5s101.5 77.5 159.5 93.5c14.667 4 29.334 7 44.001 9s29 3 43 3h12
c84 0 157.667 -29.667 221 -89s95 -128.666 95 -207.999c0 -74.667 -32.667 -141.667 -98 -201s-140.666 -89 -225.999 -89s-159.333 27.333 -222 82s-95.667 124 -99 208v0zM365.998 529.997c-69.333 0 -128.5 -23.668 -177.5 -71.001s-73.5 -104.333 -73.5 -171
c2.66699 -58 20.167 -104.833 52.5 -140.5s67.5 -61.5 105.5 -77.5c17.333 -7.33301 34.333 -12.666 51 -15.999s32 -5 46 -5c73.333 0 135.833 23.333 187.5 70s77.5 103 77.5 169c0 73.333 -27 132 -81 176s-116.667 66 -188 66v0zM240.998 451.996h187
c44.667 0 76 -8.33301 94 -25s27 -40.667 27 -72c0 -30 -7.83301 -51.667 -23.5 -65s-38.5 -21.333 -68.5 -24l84 -140h-84l-81 140h-63v-140h-72v326v0zM312.998 403.996v-91h115c18 0 31.333 4.66699 40 14s13 19.333 13 30v3.5c0 1 -0.333008 2.16699 -1 3.5
c-1.33301 10 -6.5 19.167 -15.5 27.5s-21.167 12.5 -36.5 12.5h-115v0z" />
    <glyph glyph-name="macron" unicode="&#xaf;" 
 />
    <glyph glyph-name="macron" unicode="&#x407;" 
 />
    <glyph glyph-name="zero" unicode="&#xb0;" horiz-adv-x="379" 
d="M92 543c0 27.333 9.50098 48.166 28.501 62.499s39.833 22.166 62.5 23.499h4h4h4h4c23.333 -1.33301 44.666 -9.16602 63.999 -23.499s29 -35.166 29 -62.499v-8c0 -28 -9.16699 -49.5 -27.5 -64.5s-38.5 -23.833 -60.5 -26.5h-4.5h-5.5h-2.5h-3.5
c-24 1.33301 -46 10.333 -66 27s-30 40.667 -30 72v0zM233.001 543c0 11.333 -4.33301 19.833 -13 25.5s-18.334 8.5 -29.001 8.5s-20.334 -2.83301 -29.001 -8.5s-13 -14.167 -13 -25.5c0 -12.667 4.33301 -22.334 13 -29.001s18.334 -10 29.001 -10
s20.334 3.33301 29.001 10s13 16.334 13 29.001v0z" />
    <glyph glyph-name="at" unicode="&#xb1;" 
 />
    <glyph glyph-name="P" unicode="&#xb2;" 
 />
    <glyph glyph-name="P" unicode="&#x406;" 
 />
    <glyph glyph-name="S" unicode="&#xb3;" 
 />
    <glyph glyph-name="S" unicode="&#x456;" 
 />
    <glyph glyph-name="T" unicode="&#xb4;" 
 />
    <glyph glyph-name="T" unicode="&#x491;" 
 />
    <glyph glyph-name="U" unicode="&#xb5;" 
 />
    <glyph glyph-name="V" unicode="&#xb6;" horiz-adv-x="571" 
d="M193 -83l-0.000976562 422.999h-2.5h-2.5c-1.33301 -0.666992 -2.5 -1 -3.5 -1h-2.5c-40.667 0 -72.5 14.667 -95.5 44s-35.167 61.333 -36.5 96v3.5v2.5v2.5v3.5c1.33301 34.667 13.833 66.334 37.5 95.001s58.834 43 105.501 43h324v-99h-37v-613h-115v613h-57v-613
h-115v0z" />
    <glyph glyph-name="quoteleft" unicode="&#xb8;" 
 />
    <glyph glyph-name="quoteleft" unicode="&#x451;" 
 />
    <glyph glyph-name="one" unicode="&#xb9;" 
 />
    <glyph glyph-name="one" unicode="&#x2116;" 
 />
    <glyph glyph-name="G" unicode="&#xba;" 
 />
    <glyph glyph-name="G" unicode="&#x454;" 
 />
    <glyph glyph-name="bracketleft" unicode="&#xbb;" 
 />
    <glyph glyph-name="w" unicode="&#xbc;" 
 />
    <glyph glyph-name="w" unicode="&#x458;" 
 />
    <glyph glyph-name="bracketright" unicode="&#xbd;" 
 />
    <glyph glyph-name="bracketright" unicode="&#x405;" 
 />
    <glyph glyph-name="R" unicode="&#xbe;" 
 />
    <glyph glyph-name="R" unicode="&#x455;" 
 />
    <glyph glyph-name="underscore" unicode="&#xbf;" 
 />
    <glyph glyph-name="underscore" unicode="&#x457;" 
 />
    <glyph glyph-name="grave" unicode="&#xc0;" horiz-adv-x="690" 
d="M19 0l240 637h156l246 -637h-154l-53 135h-245l-45 -135h-145v0zM246 241l177 -0.000976562l-71 208c-2.66699 10 -5.16699 20.5 -7.5 31.5s-4.5 21.833 -6.5 32.5l-2 11.5l-2 10.5l-8 -46c-2.66699 -15.333 -6 -29.666 -10 -42.999l-70 -205v0z" />
    <glyph glyph-name="grave" unicode="&#x410;" horiz-adv-x="690" 
d="M19 0l240 637h156l246 -637h-154l-53 135h-245l-45 -135h-145v0zM246 241l177 -0.000976562l-71 208c-2.66699 10 -5.16699 20.5 -7.5 31.5s-4.5 21.833 -6.5 32.5l-2 11.5l-2 10.5l-8 -46c-2.66699 -15.333 -6 -29.666 -10 -42.999l-70 -205v0z" />
    <glyph glyph-name="a" unicode="&#xc1;" horiz-adv-x="559" 
d="M73 637l374.002 -0.000976562v-115h-238v-140h62c18.667 0 38.334 -1 59.001 -3s42 -6.33301 64 -13c33.333 -14 58 -34 74 -60s26 -53.333 30 -82c1.33301 -6 2.16602 -12.333 2.49902 -19s0.5 -13 0.5 -19v-19c-4.66699 -60.667 -29.334 -102 -74.001 -124
s-93.334 -35.333 -146.001 -40c-18 -1.33301 -36 -2.16602 -54 -2.49902s-35.333 -0.5 -52 -0.5h-102v637v0zM366.002 190.999l-1 1.99902c0 33.333 -11 55.333 -33 66s-46.333 16.667 -73 18h-10.5h-10.5h-29v-170c2 0 4.16699 -0.166992 6.5 -0.5s4.83301 -0.5 7.5 -0.5
h1.5h0.5c2.66699 -0.666992 5 -1 7 -1h6h10.5h10.5c26.667 1.33301 51 7.33301 73 18s33.333 33.334 34 68.001v0z" />
    <glyph glyph-name="a" unicode="&#x411;" horiz-adv-x="559" 
d="M73 637l374.002 -0.000976562v-115h-238v-140h62c18.667 0 38.334 -1 59.001 -3s42 -6.33301 64 -13c33.333 -14 58 -34 74 -60s26 -53.333 30 -82c1.33301 -6 2.16602 -12.333 2.49902 -19s0.5 -13 0.5 -19v-19c-4.66699 -60.667 -29.334 -102 -74.001 -124
s-93.334 -35.333 -146.001 -40c-18 -1.33301 -36 -2.16602 -54 -2.49902s-35.333 -0.5 -52 -0.5h-102v637v0zM366.002 190.999l-1 1.99902c0 33.333 -11 55.333 -33 66s-46.333 16.667 -73 18h-10.5h-10.5h-29v-170c2 0 4.16699 -0.166992 6.5 -0.5s4.83301 -0.5 7.5 -0.5
h1.5h0.5c2.66699 -0.666992 5 -1 7 -1h6h10.5h10.5c26.667 1.33301 51 7.33301 73 18s33.333 33.334 34 68.001v0z" />
    <glyph glyph-name="b" unicode="&#xc2;" horiz-adv-x="571" 
d="M84 0v637.001h89c13.333 1.33301 26.333 2 39 2h36c76 0 133.5 -11.833 172.5 -35.5s61.833 -62.834 68.5 -117.501v-18c0 -40.667 -12.833 -71.167 -38.5 -91.5s-57.5 -34.5 -95.5 -42.5c44.667 -8 82 -23.333 112 -46s45 -57.667 45 -105v-16
c-8 -57.333 -30.333 -99.5 -67 -126.5s-105.667 -40.5 -207 -40.5h-154v0zM220 277.001l-0.00195312 -169.998c2 0 4.33301 -0.166992 7 -0.5s5.33398 -0.5 8.00098 -0.5h2h3c1.33301 -0.666992 3 -1 5 -1h5h11.5c3.66699 0 7.5 0.333008 11.5 1
c26 1.33301 49.833 7.33301 71.5 18s32.834 33 33.501 67l-2 2c0 33.333 -10.833 55.166 -32.5 65.499s-45.167 16.166 -70.5 17.499c-4 0.666992 -7.83301 1 -11.5 1h-11.5h-30v0zM219.998 382.003l6 0.000976562h6c0.666992 -0.666992 1.16699 -1 1.5 -1h1.5h5h5h12.5
c4.33301 0 8.83301 0.333008 13.5 1c22.667 1.33301 43.5 6.66602 62.5 15.999s28.833 28.333 29.5 57v4c0 27.333 -9.33301 45.833 -28 55.5s-39 15.167 -61 16.5c-4 0.666992 -8 1 -12 1h-12h-30v-150v0z" />
    <glyph glyph-name="b" unicode="&#x412;" horiz-adv-x="571" 
d="M84 0v637.001h89c13.333 1.33301 26.333 2 39 2h36c76 0 133.5 -11.833 172.5 -35.5s61.833 -62.834 68.5 -117.501v-18c0 -40.667 -12.833 -71.167 -38.5 -91.5s-57.5 -34.5 -95.5 -42.5c44.667 -8 82 -23.333 112 -46s45 -57.667 45 -105v-16
c-8 -57.333 -30.333 -99.5 -67 -126.5s-105.667 -40.5 -207 -40.5h-154v0zM220 277.001l-0.00195312 -169.998c2 0 4.33301 -0.166992 7 -0.5s5.33398 -0.5 8.00098 -0.5h2h3c1.33301 -0.666992 3 -1 5 -1h5h11.5c3.66699 0 7.5 0.333008 11.5 1
c26 1.33301 49.833 7.33301 71.5 18s32.834 33 33.501 67l-2 2c0 33.333 -10.833 55.166 -32.5 65.499s-45.167 16.166 -70.5 17.499c-4 0.666992 -7.83301 1 -11.5 1h-11.5h-30v0zM219.998 382.003l6 0.000976562h6c0.666992 -0.666992 1.16699 -1 1.5 -1h1.5h5h5h12.5
c4.33301 0 8.83301 0.333008 13.5 1c22.667 1.33301 43.5 6.66602 62.5 15.999s28.833 28.333 29.5 57v4c0 27.333 -9.33301 45.833 -28 55.5s-39 15.167 -61 16.5c-4 0.666992 -8 1 -12 1h-12h-30v-150v0z" />
    <glyph glyph-name="c" unicode="&#xc3;" horiz-adv-x="420" 
d="M83 0v637h374v-115h-238v-522h-136v0z" />
    <glyph glyph-name="c" unicode="&#x413;" horiz-adv-x="420" 
d="M83 0v637h374v-115h-238v-522h-136v0z" />
    <glyph glyph-name="d" unicode="&#xc4;" horiz-adv-x="741" 
d="M632 118h67v-257h-137v139h-384v-139h-136v257h42l4.5 4.5c1.66699 1.66699 3.5 3.16699 5.5 4.5c4.66699 6 9.5 13 14.5 21s9.5 16.333 13.5 25l6 13.5c2 4.33301 3.66699 8.5 5 12.5c9.33301 20 16.833 49 22.5 87s10.167 77.667 13.5 119c4 58 6.5 111 7.5 159
s1.5 72.333 1.5 73h454v-519v0zM496 118l0.000976562 396h-186l-3 -55c-2 -36.667 -5.66699 -77.334 -11 -122.001c-3.33301 -31.333 -7.33301 -61.5 -12 -90.5s-10.334 -51.167 -17.001 -66.5l-4.5 -10c-3 -6.66699 -6.83301 -13.667 -11.5 -21
c-2.66699 -4.66699 -5.5 -9 -8.5 -13l-8.5 -11c-1.33301 -1.33301 -3 -2.66602 -5 -3.99902s-3.66699 -2.33301 -5 -3h272v0z" />
    <glyph glyph-name="d" unicode="&#x414;" horiz-adv-x="741" 
d="M632 118h67v-257h-137v139h-384v-139h-136v257h42l4.5 4.5c1.66699 1.66699 3.5 3.16699 5.5 4.5c4.66699 6 9.5 13 14.5 21s9.5 16.333 13.5 25l6 13.5c2 4.33301 3.66699 8.5 5 12.5c9.33301 20 16.833 49 22.5 87s10.167 77.667 13.5 119c4 58 6.5 111 7.5 159
s1.5 72.333 1.5 73h454v-519v0zM496 118l0.000976562 396h-186l-3 -55c-2 -36.667 -5.66699 -77.334 -11 -122.001c-3.33301 -31.333 -7.33301 -61.5 -12 -90.5s-10.334 -51.167 -17.001 -66.5l-4.5 -10c-3 -6.66699 -6.83301 -13.667 -11.5 -21
c-2.66699 -4.66699 -5.5 -9 -8.5 -13l-8.5 -11c-1.33301 -1.33301 -3 -2.66602 -5 -3.99902s-3.66699 -2.33301 -5 -3h272v0z" />
    <glyph glyph-name="e" unicode="&#xc5;" horiz-adv-x="511" 
d="M83 0v637h374v-115h-238v-130h238v-116h-238v-159h238v-117h-374v0z" />
    <glyph glyph-name="e" unicode="&#x415;" horiz-adv-x="511" 
d="M83 0v637h374v-115h-238v-130h238v-116h-238v-159h238v-117h-374v0z" />
    <glyph glyph-name="f" unicode="&#xc6;" horiz-adv-x="849" 
d="M361 2v329l-176 -329l-143 -2l178 342l-176 295h146l171 -292v292h135v-292l172 292h146l-177 -295l178 -342l-142 2l-177 329v-329h-135v0z" />
    <glyph glyph-name="f" unicode="&#x416;" horiz-adv-x="849" 
d="M361 2v329l-176 -329l-143 -2l178 342l-176 295h146l171 -292v292h135v-292l172 292h146l-177 -295l178 -342l-142 2l-177 329v-329h-135v0z" />
    <glyph glyph-name="g" unicode="&#xc7;" horiz-adv-x="640" 
d="M515 41c-24 -18.667 -52.667 -32.498 -86 -41.498s-67.333 -13.833 -102 -14.5h-4.5h-4.5h-12c-4 0 -8.33301 0.333008 -13 1c-44.667 2 -88 10.667 -130 26s-76.333 37.333 -103 66l70 104c17.333 -23.333 42.5 -42.5 75.5 -57.5s67.833 -22.5 104.5 -22.5
c2 0 4.33301 0.166992 7 0.5s5.66699 0.833008 9 1.5h0.5h1.5c2.66699 0 5.16699 0.166992 7.5 0.5s4.5 0.5 6.5 0.5c33.333 2.66699 59.666 11.5 78.999 26.5s29.333 34.833 30 59.5l-2 2c0 29.333 -11.167 49.666 -33.5 60.999s-46.833 18 -73.5 20
c-7.33301 0.666992 -14.5 1.16699 -21.5 1.5s-13.833 0.5 -20.5 0.5h-37v108c2 0 4.33301 -0.166992 7 -0.5s5.33398 -0.5 8.00098 -0.5h3.5c1 0 2.16699 -0.333008 3.5 -1h5.5h4.5c6.66699 0 13.5 0.166992 20.5 0.5s14.167 0.833008 21.5 1.5c24 2.66699 46.333 9 67 19
s32 27.333 34 52c0 22 -8.5 39.333 -25.5 52s-41.167 21 -72.5 25h-17c-26 0 -48.5 -3.5 -67.5 -10.5s-34.5 -14.5 -46.5 -22.5c-12.667 -8.66699 -22 -16.5 -28 -23.5l-9 -10.5l-89 84c25.333 26 59.666 49.667 102.999 71s97.333 32 162 32h13
c8 -0.666992 16 -1.83398 24 -3.50098s16.333 -3.5 25 -5.5c36.667 -10.667 70.5 -28.834 101.5 -54.501s47.833 -59.834 50.5 -102.501v-21c0 -38 -11.667 -67 -35 -87s-53.666 -33.667 -90.999 -41c47.333 -8.66699 83.833 -25.834 109.5 -51.501
s38.834 -65.167 39.501 -118.5c-2 -20.667 -5.5 -38.167 -10.5 -52.5s-13.167 -28.166 -24.5 -41.499c-4.66699 -5.33301 -9.83398 -10.666 -15.501 -15.999s-12.167 -10.666 -19.5 -15.999v0z" />
    <glyph glyph-name="g" unicode="&#x417;" horiz-adv-x="640" 
d="M515 41c-24 -18.667 -52.667 -32.498 -86 -41.498s-67.333 -13.833 -102 -14.5h-4.5h-4.5h-12c-4 0 -8.33301 0.333008 -13 1c-44.667 2 -88 10.667 -130 26s-76.333 37.333 -103 66l70 104c17.333 -23.333 42.5 -42.5 75.5 -57.5s67.833 -22.5 104.5 -22.5
c2 0 4.33301 0.166992 7 0.5s5.66699 0.833008 9 1.5h0.5h1.5c2.66699 0 5.16699 0.166992 7.5 0.5s4.5 0.5 6.5 0.5c33.333 2.66699 59.666 11.5 78.999 26.5s29.333 34.833 30 59.5l-2 2c0 29.333 -11.167 49.666 -33.5 60.999s-46.833 18 -73.5 20
c-7.33301 0.666992 -14.5 1.16699 -21.5 1.5s-13.833 0.5 -20.5 0.5h-37v108c2 0 4.33301 -0.166992 7 -0.5s5.33398 -0.5 8.00098 -0.5h3.5c1 0 2.16699 -0.333008 3.5 -1h5.5h4.5c6.66699 0 13.5 0.166992 20.5 0.5s14.167 0.833008 21.5 1.5c24 2.66699 46.333 9 67 19
s32 27.333 34 52c0 22 -8.5 39.333 -25.5 52s-41.167 21 -72.5 25h-17c-26 0 -48.5 -3.5 -67.5 -10.5s-34.5 -14.5 -46.5 -22.5c-12.667 -8.66699 -22 -16.5 -28 -23.5l-9 -10.5l-89 84c25.333 26 59.666 49.667 102.999 71s97.333 32 162 32h13
c8 -0.666992 16 -1.83398 24 -3.50098s16.333 -3.5 25 -5.5c36.667 -10.667 70.5 -28.834 101.5 -54.501s47.833 -59.834 50.5 -102.501v-21c0 -38 -11.667 -67 -35 -87s-53.666 -33.667 -90.999 -41c47.333 -8.66699 83.833 -25.834 109.5 -51.501
s38.834 -65.167 39.501 -118.5c-2 -20.667 -5.5 -38.167 -10.5 -52.5s-13.167 -28.166 -24.5 -41.499c-4.66699 -5.33301 -9.83398 -10.666 -15.501 -15.999s-12.167 -10.666 -19.5 -15.999v0z" />
    <glyph glyph-name="h" unicode="&#xc8;" horiz-adv-x="689" 
d="M81 0l-0.000976562 637h136v-352c0 -10.667 -0.5 -20.834 -1.5 -30.501s-2.16699 -19.5 -3.5 -29.5c-0.666992 -4.66699 -1.16699 -9.16699 -1.5 -13.5s-0.833008 -8.83301 -1.5 -13.5c-1.33301 -5.33301 -2.33301 -10.666 -3 -15.999s-1.33398 -11 -2.00098 -17
c3.33301 7.33301 6.83301 15.5 10.5 24.5l11.5 27.5c4.66699 12 9.83398 23.667 15.501 35s11.167 20.666 16.5 27.999l235 357h137v-637h-137v357c0 10.667 0.166992 20.167 0.5 28.5s0.833008 16.5 1.5 24.5c0 6.66699 0.5 13.834 1.5 21.501s2.5 16.167 4.5 25.5
c-3.33301 -6 -6.16602 -12 -8.49902 -18s-4.83301 -12 -7.5 -18l-12 -26c-4 -8.66699 -9.33301 -17 -16 -25l-241 -370h-135v0z" />
    <glyph glyph-name="h" unicode="&#x418;" horiz-adv-x="689" 
d="M81 0l-0.000976562 637h136v-352c0 -10.667 -0.5 -20.834 -1.5 -30.501s-2.16699 -19.5 -3.5 -29.5c-0.666992 -4.66699 -1.16699 -9.16699 -1.5 -13.5s-0.833008 -8.83301 -1.5 -13.5c-1.33301 -5.33301 -2.33301 -10.666 -3 -15.999s-1.33398 -11 -2.00098 -17
c3.33301 7.33301 6.83301 15.5 10.5 24.5l11.5 27.5c4.66699 12 9.83398 23.667 15.501 35s11.167 20.666 16.5 27.999l235 357h137v-637h-137v357c0 10.667 0.166992 20.167 0.5 28.5s0.833008 16.5 1.5 24.5c0 6.66699 0.5 13.834 1.5 21.501s2.5 16.167 4.5 25.5
c-3.33301 -6 -6.16602 -12 -8.49902 -18s-4.83301 -12 -7.5 -18l-12 -26c-4 -8.66699 -9.33301 -17 -16 -25l-241 -370h-135v0z" />
    <glyph glyph-name="i" unicode="&#xc9;" horiz-adv-x="689" 
d="M216 0h-135.001v637h136v-352c0 -10.667 -0.5 -20.834 -1.5 -30.501s-2.16699 -19.5 -3.5 -29.5c-0.666992 -4.66699 -1.16699 -9.16699 -1.5 -13.5s-0.833008 -8.83301 -1.5 -13.5c-1.33301 -5.33301 -2.33301 -10.666 -3 -15.999s-1.33398 -11 -2.00098 -17
c3.33301 7.33301 6.83301 15.5 10.5 24.5l11.5 27.5c4.66699 12 9.83398 23.667 15.501 35s11.167 20.666 16.5 27.999l235 357h137v-637h-137v357c0 10.667 0.166992 20.167 0.5 28.5s0.833008 16.5 1.5 24.5c0 6.66699 0.5 13.834 1.5 21.501s2.5 16.167 4.5 25.5
c-3.33301 -6 -6.16602 -12 -8.49902 -18s-4.83301 -12 -7.5 -18l-12 -26c-4 -8.66699 -9.33301 -17 -16 -25l-241 -370v0zM372.999 854c22 0 37.834 0.999023 47.501 2.99902s15.834 4.33301 18.501 7c1.33301 1.33301 2.16602 2.5 2.49902 3.5s0.5 1.83301 0.5 2.5v7l2 1
h99v-4c0 -4.66699 -1.33301 -12.334 -4 -23.001s-8.33398 -21.667 -17.001 -33c-11.333 -15.333 -29 -29.166 -53 -41.499s-57.667 -18.833 -101 -19.5c-43.333 0 -76.833 6.33301 -100.5 19s-40.834 26.667 -51.501 42c-11.333 14.667 -17.833 28.334 -19.5 41.001l-2.5 19
h106v-3c0 -1.33301 0.333008 -2.83301 1 -4.5s2.33398 -3.5 5.00098 -5.5c4 -2.66699 11 -5.16699 21 -7.5s25.333 -3.5 46 -3.5v0z" />
    <glyph glyph-name="i" unicode="&#x419;" horiz-adv-x="689" 
d="M216 0h-135.001v637h136v-352c0 -10.667 -0.5 -20.834 -1.5 -30.501s-2.16699 -19.5 -3.5 -29.5c-0.666992 -4.66699 -1.16699 -9.16699 -1.5 -13.5s-0.833008 -8.83301 -1.5 -13.5c-1.33301 -5.33301 -2.33301 -10.666 -3 -15.999s-1.33398 -11 -2.00098 -17
c3.33301 7.33301 6.83301 15.5 10.5 24.5l11.5 27.5c4.66699 12 9.83398 23.667 15.501 35s11.167 20.666 16.5 27.999l235 357h137v-637h-137v357c0 10.667 0.166992 20.167 0.5 28.5s0.833008 16.5 1.5 24.5c0 6.66699 0.5 13.834 1.5 21.501s2.5 16.167 4.5 25.5
c-3.33301 -6 -6.16602 -12 -8.49902 -18s-4.83301 -12 -7.5 -18l-12 -26c-4 -8.66699 -9.33301 -17 -16 -25l-241 -370v0zM372.999 854c22 0 37.834 0.999023 47.501 2.99902s15.834 4.33301 18.501 7c1.33301 1.33301 2.16602 2.5 2.49902 3.5s0.5 1.83301 0.5 2.5v7l2 1
h99v-4c0 -4.66699 -1.33301 -12.334 -4 -23.001s-8.33398 -21.667 -17.001 -33c-11.333 -15.333 -29 -29.166 -53 -41.499s-57.667 -18.833 -101 -19.5c-43.333 0 -76.833 6.33301 -100.5 19s-40.834 26.667 -51.501 42c-11.333 14.667 -17.833 28.334 -19.5 41.001l-2.5 19
h106v-3c0 -1.33301 0.333008 -2.83301 1 -4.5s2.33398 -3.5 5.00098 -5.5c4 -2.66699 11 -5.16699 21 -7.5s25.333 -3.5 46 -3.5v0z" />
    <glyph glyph-name="j" unicode="&#xca;" horiz-adv-x="640" 
d="M83 0v637h136v-289l210 289h159l-228 -290l236 -347h-163l-214 334v-334h-136v0z" />
    <glyph glyph-name="j" unicode="&#x41a;" horiz-adv-x="640" 
d="M83 0v637h136v-289l210 289h159l-228 -290l236 -347h-163l-214 334v-334h-136v0z" />
    <glyph glyph-name="k" unicode="&#xcb;" horiz-adv-x="710" 
d="M28 -2l0.00195312 122.004l0.5 -0.5c0.333008 -0.333008 1.16602 -0.5 2.49902 -0.5c0.666992 0 1.5 -0.166992 2.5 -0.5s2.16699 -0.5 3.5 -0.5c6.66699 0 15 1 25 3s20.667 5.66699 32 11c6.66699 2.66699 13 6.33398 19 11.001s11.667 10 17 16
c14 17.333 24.167 48.166 30.5 92.499s10.5 91.166 12.5 140.499c2 33.333 3.16699 65.666 3.5 96.999s0.5 58.666 0.5 81.999v13v12v30c0 7.33301 0.333008 11 1 11h470v-637l-136 2v525h-202v-25c0 -19.333 -1 -48 -3 -86s-5.66699 -78 -11 -120
c-5.33301 -46.667 -12.5 -90.5 -21.5 -131.5s-20.5 -69.5 -34.5 -85.5c-24.667 -28.667 -50.834 -49.334 -78.501 -62.001s-59.5 -19 -95.5 -19h-8.5h-9.5c-2 0.666992 -3.83301 1 -5.5 1h-4.5h-5.5h-4.5v-1z" />
    <glyph glyph-name="k" unicode="&#x41b;" horiz-adv-x="710" 
d="M28 -2l0.00195312 122.004l0.5 -0.5c0.333008 -0.333008 1.16602 -0.5 2.49902 -0.5c0.666992 0 1.5 -0.166992 2.5 -0.5s2.16699 -0.5 3.5 -0.5c6.66699 0 15 1 25 3s20.667 5.66699 32 11c6.66699 2.66699 13 6.33398 19 11.001s11.667 10 17 16
c14 17.333 24.167 48.166 30.5 92.499s10.5 91.166 12.5 140.499c2 33.333 3.16699 65.666 3.5 96.999s0.5 58.666 0.5 81.999v13v12v30c0 7.33301 0.333008 11 1 11h470v-637l-136 2v525h-202v-25c0 -19.333 -1 -48 -3 -86s-5.66699 -78 -11 -120
c-5.33301 -46.667 -12.5 -90.5 -21.5 -131.5s-20.5 -69.5 -34.5 -85.5c-24.667 -28.667 -50.834 -49.334 -78.501 -62.001s-59.5 -19 -95.5 -19h-8.5h-9.5c-2 0.666992 -3.83301 1 -5.5 1h-4.5h-5.5h-4.5v-1z" />
    <glyph glyph-name="l" unicode="&#xcc;" horiz-adv-x="849" 
d="M42 0l97.001 636.992h143l123 -374c4 -10.667 7 -21.667 9 -33l6 -35c0.666992 -3.33301 1.16699 -6.66602 1.5 -9.99902s0.833008 -6.66602 1.5 -9.99902c1.33301 15.333 3 30.333 5 45s5.33301 29.334 10 44.001l124 373h143l96 -637h-128l-47 384
c-2.66699 18 -5 35.833 -7 53.5s-3 34.834 -3 51.501v4.5c0 1.66699 0.333008 3.5 1 5.5v1v1c0 2 0.166992 4 0.5 6s0.5 3.66699 0.5 5c-2.66699 -18 -5.83398 -35.667 -9.50098 -53s-8.16699 -34.666 -13.5 -51.999l-136 -407h-75l-134 407
c-2.66699 8.66699 -5 17.334 -7 26.001l-6 27c-2 8.66699 -3.83301 17.334 -5.5 26.001s-3.16699 17.334 -4.5 26.001c0 -20.667 -0.666992 -41.667 -2 -63s-3.33301 -43 -6 -65l-47 -384h-130v0z" />
    <glyph glyph-name="l" unicode="&#x41c;" horiz-adv-x="849" 
d="M42 0l97.001 636.992h143l123 -374c4 -10.667 7 -21.667 9 -33l6 -35c0.666992 -3.33301 1.16699 -6.66602 1.5 -9.99902s0.833008 -6.66602 1.5 -9.99902c1.33301 15.333 3 30.333 5 45s5.33301 29.334 10 44.001l124 373h143l96 -637h-128l-47 384
c-2.66699 18 -5 35.833 -7 53.5s-3 34.834 -3 51.501v4.5c0 1.66699 0.333008 3.5 1 5.5v1v1c0 2 0.166992 4 0.5 6s0.5 3.66699 0.5 5c-2.66699 -18 -5.83398 -35.667 -9.50098 -53s-8.16699 -34.666 -13.5 -51.999l-136 -407h-75l-134 407
c-2.66699 8.66699 -5 17.334 -7 26.001l-6 27c-2 8.66699 -3.83301 17.334 -5.5 26.001s-3.16699 17.334 -4.5 26.001c0 -20.667 -0.666992 -41.667 -2 -63s-3.33301 -43 -6 -65l-47 -384h-130v0z" />
    <glyph glyph-name="m" unicode="&#xcd;" horiz-adv-x="689" 
d="M83 0v637h136v-256h275v256h136v-637h-136v267h-275v-267h-136v0z" />
    <glyph glyph-name="m" unicode="&#x41d;" horiz-adv-x="689" 
d="M83 0v637h136v-256h275v256h136v-637h-136v267h-275v-267h-136v0z" />
    <glyph glyph-name="n" unicode="&#xce;" horiz-adv-x="780" 
d="M84 475c31.333 56.667 74.165 100.001 128.498 130.001s111.5 45 171.5 45c7.33301 0 14.833 -0.166992 22.5 -0.5s15.167 -1.16602 22.5 -2.49902c25.333 -3.33301 50.5 -9.33301 75.5 -18s48.5 -20 70.5 -34c43.333 -28.667 78 -66.334 104 -113.001
s40.667 -95 44 -145c0.666992 -4 1 -8 1 -12v-12c0 -6.66699 -0.166992 -13.5 -0.5 -20.5s-1.16602 -13.833 -2.49902 -20.5c-1.33301 -14 -3.83301 -27.833 -7.5 -41.5s-8.16699 -27.167 -13.5 -40.5c-27.333 -64.667 -70.666 -114.834 -129.999 -150.501
s-122.333 -53.5 -189 -53.5h-10c-3.33301 0 -6.66602 0.333008 -9.99902 1c-24 1.33301 -47.5 5 -70.5 11s-45.167 14.333 -66.5 25c-56.667 30 -100.834 71.833 -132.501 125.5s-47.5 110.167 -47.5 169.5c0 9.33301 0.5 18.833 1.5 28.5s2.16699 19.5 3.5 29.5
c3.33301 16.667 8 33.5 14 50.5s13 33.167 21 48.5v0zM568.999 235.001c5.33301 13.333 9 26.667 11 40s3 27 3 41v5.5v5.5c-2 36 -11.833 70.667 -29.5 104s-42.167 59.333 -73.5 78c-9.33301 5.33301 -18.833 9.5 -28.5 12.5s-19.5 5.5 -29.5 7.5l-18 2
c-6 0.666992 -12 1 -18 1c-40.667 0 -78.167 -12 -112.5 -36s-59.166 -56.333 -74.499 -97c-2.66699 -8 -5 -16.667 -7 -26s-3.66699 -18.666 -5 -27.999c-0.666992 -4 -1.16699 -8.33301 -1.5 -13s-0.5 -9.33398 -0.5 -14.001v-4v-4c1.33301 -43.333 14 -84 38 -122
s57.333 -63.333 100 -76c4.66699 -1.33301 9.5 -2.5 14.5 -3.5s10.167 -2.16699 15.5 -3.5l14.5 -2c5 -0.666992 9.83301 -1 14.5 -1c41.333 0 79.166 11.833 113.499 35.5s58.833 56.167 73.5 97.5v0z" />
    <glyph glyph-name="n" unicode="&#x41e;" horiz-adv-x="780" 
d="M84 475c31.333 56.667 74.165 100.001 128.498 130.001s111.5 45 171.5 45c7.33301 0 14.833 -0.166992 22.5 -0.5s15.167 -1.16602 22.5 -2.49902c25.333 -3.33301 50.5 -9.33301 75.5 -18s48.5 -20 70.5 -34c43.333 -28.667 78 -66.334 104 -113.001
s40.667 -95 44 -145c0.666992 -4 1 -8 1 -12v-12c0 -6.66699 -0.166992 -13.5 -0.5 -20.5s-1.16602 -13.833 -2.49902 -20.5c-1.33301 -14 -3.83301 -27.833 -7.5 -41.5s-8.16699 -27.167 -13.5 -40.5c-27.333 -64.667 -70.666 -114.834 -129.999 -150.501
s-122.333 -53.5 -189 -53.5h-10c-3.33301 0 -6.66602 0.333008 -9.99902 1c-24 1.33301 -47.5 5 -70.5 11s-45.167 14.333 -66.5 25c-56.667 30 -100.834 71.833 -132.501 125.5s-47.5 110.167 -47.5 169.5c0 9.33301 0.5 18.833 1.5 28.5s2.16699 19.5 3.5 29.5
c3.33301 16.667 8 33.5 14 50.5s13 33.167 21 48.5v0zM568.999 235.001c5.33301 13.333 9 26.667 11 40s3 27 3 41v5.5v5.5c-2 36 -11.833 70.667 -29.5 104s-42.167 59.333 -73.5 78c-9.33301 5.33301 -18.833 9.5 -28.5 12.5s-19.5 5.5 -29.5 7.5l-18 2
c-6 0.666992 -12 1 -18 1c-40.667 0 -78.167 -12 -112.5 -36s-59.166 -56.333 -74.499 -97c-2.66699 -8 -5 -16.667 -7 -26s-3.66699 -18.666 -5 -27.999c-0.666992 -4 -1.16699 -8.33301 -1.5 -13s-0.5 -9.33398 -0.5 -14.001v-4v-4c1.33301 -43.333 14 -84 38 -122
s57.333 -63.333 100 -76c4.66699 -1.33301 9.5 -2.5 14.5 -3.5s10.167 -2.16699 15.5 -3.5l14.5 -2c5 -0.666992 9.83301 -1 14.5 -1c41.333 0 79.166 11.833 113.499 35.5s58.833 56.167 73.5 97.5v0z" />
    <glyph glyph-name="o" unicode="&#xcf;" horiz-adv-x="689" 
d="M83 0v637h547v-637h-136v517h-275v-517h-136v0z" />
    <glyph glyph-name="o" unicode="&#x41f;" horiz-adv-x="689" 
d="M83 0v637h547v-637h-136v517h-275v-517h-136v0z" />
    <glyph glyph-name="p" unicode="&#xd0;" horiz-adv-x="460" 
d="M88 0l-0.00292969 637h155c8 0 15.833 -0.166992 23.5 -0.5s15.5 -0.5 23.5 -0.5c30.667 -2 60.334 -7.83301 89.001 -17.5s52.667 -27.167 72 -52.5c8 -11.333 14.833 -24.5 20.5 -39.5s9.83398 -30.167 12.501 -45.5c1.33301 -7.33301 2.33301 -14.666 3 -21.999
s1 -14.333 1 -21v-6v-6c0 -4 -0.166992 -8 -0.5 -12s-0.833008 -8 -1.5 -12c-12.667 -68.667 -44.667 -112.334 -96 -131.001s-106.666 -28 -165.999 -28v-243h-136v0zM347.997 438v12.999c0 38 -12.167 61.667 -36.5 71s-53.5 14 -87.5 14v-188
c33.333 0 62 4.83301 86 14.5s36.667 34.834 38 75.501v0z" />
    <glyph glyph-name="p" unicode="&#x420;" horiz-adv-x="460" 
d="M88 0l-0.00292969 637h155c8 0 15.833 -0.166992 23.5 -0.5s15.5 -0.5 23.5 -0.5c30.667 -2 60.334 -7.83301 89.001 -17.5s52.667 -27.167 72 -52.5c8 -11.333 14.833 -24.5 20.5 -39.5s9.83398 -30.167 12.501 -45.5c1.33301 -7.33301 2.33301 -14.666 3 -21.999
s1 -14.333 1 -21v-6v-6c0 -4 -0.166992 -8 -0.5 -12s-0.833008 -8 -1.5 -12c-12.667 -68.667 -44.667 -112.334 -96 -131.001s-106.666 -28 -165.999 -28v-243h-136v0zM347.997 438v12.999c0 38 -12.167 61.667 -36.5 71s-53.5 14 -87.5 14v-188
c33.333 0 62 4.83301 86 14.5s36.667 34.834 38 75.501v0z" />
    <glyph glyph-name="q" unicode="&#xd1;" horiz-adv-x="650" 
d="M590 472c-27.333 22.667 -55.502 40.168 -84.502 52.501s-59.833 18.5 -92.5 18.5c-8 0 -16.333 -0.333008 -25 -1s-17.334 -2 -26.001 -4c-2.66699 0 -5.5 -0.333008 -8.5 -1s-5.83301 -1.33398 -8.5 -2.00098c-50 -11.333 -88.167 -37.333 -114.5 -78
s-40.5 -84 -42.5 -130v-5.5v-5.5v-2v-1c0.666992 -50 15.834 -96 45.501 -138s72.834 -66.333 129.501 -73c2 0 4.16699 -0.166992 6.5 -0.5s4.5 -0.833008 6.5 -1.5c4.66699 0 9.33398 -0.166992 14.001 -0.5s8.66699 -0.5 12 -0.5c35.333 0 68.333 6.5 99 19.5
s60.334 31.833 89.001 56.5l-2 -141c-20.667 -11.333 -42.334 -20.5 -65.001 -27.5s-45.334 -12.167 -68.001 -15.5c-10.667 -2 -21 -3.33301 -31 -4s-20 -1 -30 -1c-88.667 0 -168.167 29 -238.5 87s-105.5 139.667 -105.5 245c0 86.667 27.667 161 83 223
s126 97.667 212 107c9.33301 1.33301 18.5 2.33301 27.5 3s17.833 1 26.5 1c6.66699 0 13.334 -0.166992 20.001 -0.5s13.334 -0.833008 20.001 -1.5c26 -2.66699 52.167 -7.66699 78.5 -15s52.166 -16.333 77.499 -27l-5 -136v0z" />
    <glyph glyph-name="q" unicode="&#x421;" horiz-adv-x="650" 
d="M590 472c-27.333 22.667 -55.502 40.168 -84.502 52.501s-59.833 18.5 -92.5 18.5c-8 0 -16.333 -0.333008 -25 -1s-17.334 -2 -26.001 -4c-2.66699 0 -5.5 -0.333008 -8.5 -1s-5.83301 -1.33398 -8.5 -2.00098c-50 -11.333 -88.167 -37.333 -114.5 -78
s-40.5 -84 -42.5 -130v-5.5v-5.5v-2v-1c0.666992 -50 15.834 -96 45.501 -138s72.834 -66.333 129.501 -73c2 0 4.16699 -0.166992 6.5 -0.5s4.5 -0.833008 6.5 -1.5c4.66699 0 9.33398 -0.166992 14.001 -0.5s8.66699 -0.5 12 -0.5c35.333 0 68.333 6.5 99 19.5
s60.334 31.833 89.001 56.5l-2 -141c-20.667 -11.333 -42.334 -20.5 -65.001 -27.5s-45.334 -12.167 -68.001 -15.5c-10.667 -2 -21 -3.33301 -31 -4s-20 -1 -30 -1c-88.667 0 -168.167 29 -238.5 87s-105.5 139.667 -105.5 245c0 86.667 27.667 161 83 223
s126 97.667 212 107c9.33301 1.33301 18.5 2.33301 27.5 3s17.833 1 26.5 1c6.66699 0 13.334 -0.166992 20.001 -0.5s13.334 -0.833008 20.001 -1.5c26 -2.66699 52.167 -7.66699 78.5 -15s52.166 -16.333 77.499 -27l-5 -136v0z" />
    <glyph glyph-name="Scaron" unicode="&#xd2;" horiz-adv-x="472" 
d="M340 522v-522h-136v522h-155v115h449v-115h-158v0z" />
    <glyph glyph-name="Scaron" unicode="&#x422;" horiz-adv-x="472" 
d="M340 522v-522h-136v522h-155v115h449v-115h-158v0z" />
    <glyph glyph-name="r" unicode="&#xd3;" horiz-adv-x="520" 
d="M545 637l-266 -637h-136l89 206l-191 431h139l100 -255l15 -64l16 63l96 256h138v0z" />
    <glyph glyph-name="r" unicode="&#x423;" horiz-adv-x="520" 
d="M545 637l-266 -637h-136l89 206l-191 431h139l100 -255l15 -64l16 63l96 256h138v0z" />
    <glyph glyph-name="t" unicode="&#xd4;" horiz-adv-x="880" 
d="M501 -125l-131.004 0.000976562v110c-26 1.33301 -51.667 5.16602 -77 11.499s-49.666 15.5 -72.999 27.5c-55.333 29.333 -99 70.833 -131 124.5s-48 110.5 -48 170.5c0 9.33301 0.5 18.833 1.5 28.5s2.16699 19.167 3.5 28.5c3.33301 17.333 7.83301 34.5 13.5 51.5
s12.834 33.167 21.501 48.5c30 53.333 71 95.333 123 126s106.667 47.334 164 50.001v-2l2 2v119h131v-121v2c58.667 -2.66699 113.834 -19.334 165.501 -50.001s92.167 -72.667 121.5 -126c8 -14.667 14.5 -29.5 19.5 -44.5s8.83301 -30.5 11.5 -46.5
c2 -10 3.5 -20.167 4.5 -30.5s1.5 -20.5 1.5 -30.5c0 -86 -31.167 -163.167 -93.5 -231.5s-139.166 -103.833 -230.499 -106.5v-111v0zM672.996 400.001c-14.667 38 -37.5 68.832 -68.5 92.499s-65.5 36.834 -103.5 39.501v-2v-425l-2 -1h2
c56.667 5.33301 101.667 29.166 135 71.499s50 89.833 50 142.5c0 6.66699 -0.333008 13.5 -1 20.5l-2 20.5c-1.33301 7.33301 -2.83301 14.333 -4.5 21s-3.5 13.334 -5.5 20.001v0zM318.996 113c2 -0.666992 4.16504 -1.33301 6.49805 -2s4.83301 -1.33398 7.5 -2.00098
c6.66699 -1.33301 13.334 -2.33301 20.001 -3s12.334 -1 17.001 -1v427l-2 -2v2c-54.667 -3.33301 -98.167 -26 -130.5 -68s-50.5 -88 -54.5 -138c-0.666992 -3.33301 -1 -6.66602 -1 -9.99902v-10c0 -42 11.333 -81.5 34 -118.5s57 -61.833 103 -74.5v0z" />
    <glyph glyph-name="t" unicode="&#x424;" horiz-adv-x="880" 
d="M501 -125l-131.004 0.000976562v110c-26 1.33301 -51.667 5.16602 -77 11.499s-49.666 15.5 -72.999 27.5c-55.333 29.333 -99 70.833 -131 124.5s-48 110.5 -48 170.5c0 9.33301 0.5 18.833 1.5 28.5s2.16699 19.167 3.5 28.5c3.33301 17.333 7.83301 34.5 13.5 51.5
s12.834 33.167 21.501 48.5c30 53.333 71 95.333 123 126s106.667 47.334 164 50.001v-2l2 2v119h131v-121v2c58.667 -2.66699 113.834 -19.334 165.501 -50.001s92.167 -72.667 121.5 -126c8 -14.667 14.5 -29.5 19.5 -44.5s8.83301 -30.5 11.5 -46.5
c2 -10 3.5 -20.167 4.5 -30.5s1.5 -20.5 1.5 -30.5c0 -86 -31.167 -163.167 -93.5 -231.5s-139.166 -103.833 -230.499 -106.5v-111v0zM672.996 400.001c-14.667 38 -37.5 68.832 -68.5 92.499s-65.5 36.834 -103.5 39.501v-2v-425l-2 -1h2
c56.667 5.33301 101.667 29.166 135 71.499s50 89.833 50 142.5c0 6.66699 -0.333008 13.5 -1 20.5l-2 20.5c-1.33301 7.33301 -2.83301 14.333 -4.5 21s-3.5 13.334 -5.5 20.001v0zM318.996 113c2 -0.666992 4.16504 -1.33301 6.49805 -2s4.83301 -1.33398 7.5 -2.00098
c6.66699 -1.33301 13.334 -2.33301 20.001 -3s12.334 -1 17.001 -1v427l-2 -2v2c-54.667 -3.33301 -98.167 -26 -130.5 -68s-50.5 -88 -54.5 -138c-0.666992 -3.33301 -1 -6.66602 -1 -9.99902v-10c0 -42 11.333 -81.5 34 -118.5s57 -61.833 103 -74.5v0z" />
    <glyph glyph-name="u" unicode="&#xd5;" horiz-adv-x="619" 
d="M285 470c6 -9.33301 11.1699 -18.998 15.5029 -28.998s8.5 -20.333 12.5 -31c2.66699 5.33301 5.16699 10.666 7.5 15.999s4.83301 10.666 7.5 15.999l6.5 15c2.33301 5.33301 4.83301 10.666 7.5 15.999l91 164h144l-191 -303l196 -334h-146l-96 177
c-2.66699 5.33301 -5.16699 11 -7.5 17s-4.5 12 -6.5 18c-2.66699 5.33301 -4.83398 11 -6.50098 17s-3.5 11.667 -5.5 17c-0.666992 -2 -1.33398 -3.83301 -2.00098 -5.5s-1.33398 -3.5 -2.00098 -5.5l-6 -14.5l-6 -14.5c-2 -5.33301 -4.16699 -10.666 -6.5 -15.999
s-4.83301 -10.333 -7.5 -15l-94 -175h-145l195 334l-191 303h145l91 -167v0z" />
    <glyph glyph-name="u" unicode="&#x425;" horiz-adv-x="619" 
d="M285 470c6 -9.33301 11.1699 -18.998 15.5029 -28.998s8.5 -20.333 12.5 -31c2.66699 5.33301 5.16699 10.666 7.5 15.999s4.83301 10.666 7.5 15.999l6.5 15c2.33301 5.33301 4.83301 10.666 7.5 15.999l91 164h144l-191 -303l196 -334h-146l-96 177
c-2.66699 5.33301 -5.16699 11 -7.5 17s-4.5 12 -6.5 18c-2.66699 5.33301 -4.83398 11 -6.50098 17s-3.5 11.667 -5.5 17c-0.666992 -2 -1.33398 -3.83301 -2.00098 -5.5s-1.33398 -3.5 -2.00098 -5.5l-6 -14.5l-6 -14.5c-2 -5.33301 -4.16699 -10.666 -6.5 -15.999
s-4.83301 -10.333 -7.5 -15l-94 -175h-145l195 334l-191 303h145l91 -167v0z" />
    <glyph glyph-name="zero" unicode="&#xd6;" horiz-adv-x="760" 
d="M579 0h-495v637h136v-520h276v520h136v-519h84v-264h-137v146v0z" />
    <glyph glyph-name="zero" unicode="&#x426;" horiz-adv-x="760" 
d="M579 0h-495v637h136v-520h276v520h136v-519h84v-264h-137v146v0z" />
    <glyph glyph-name="parenright" unicode="&#xd7;" horiz-adv-x="601" 
d="M50 374l0.00292969 263h136v-230c0 -12.667 1.5 -23.667 4.5 -33s6.5 -17.333 10.5 -24c4 -6 7.5 -10.667 10.5 -14l4.5 -5c8.66699 -6 19 -10.833 31 -14.5s24.333 -5.83398 37 -6.50098h4h4c3.33301 0 6.66602 0.166992 9.99902 0.5s6.66602 0.5 9.99902 0.5
c20.667 2.66699 40.5 9.83398 59.5 21.501s31.833 28.167 38.5 49.5v255h136v-637h-136v267c-16.667 -13.333 -37.834 -24 -63.501 -32s-52.167 -13 -79.5 -15c-4 -0.666992 -8 -1 -12 -1h-12c-48.667 0 -93.167 11.5 -133.5 34.5s-60.5 59.5 -60.5 109.5v2.5
c0 1 0.333008 2.16699 1 3.5v2.5v2.5v0z" />
    <glyph glyph-name="parenright" unicode="&#x427;" horiz-adv-x="601" 
d="M50 374l0.00292969 263h136v-230c0 -12.667 1.5 -23.667 4.5 -33s6.5 -17.333 10.5 -24c4 -6 7.5 -10.667 10.5 -14l4.5 -5c8.66699 -6 19 -10.833 31 -14.5s24.333 -5.83398 37 -6.50098h4h4c3.33301 0 6.66602 0.166992 9.99902 0.5s6.66602 0.5 9.99902 0.5
c20.667 2.66699 40.5 9.83398 59.5 21.501s31.833 28.167 38.5 49.5v255h136v-637h-136v267c-16.667 -13.333 -37.834 -24 -63.501 -32s-52.167 -13 -79.5 -15c-4 -0.666992 -8 -1 -12 -1h-12c-48.667 0 -93.167 11.5 -133.5 34.5s-60.5 59.5 -60.5 109.5v2.5
c0 1 0.333008 2.16699 1 3.5v2.5v2.5v0z" />
    <glyph glyph-name="x" unicode="&#xd8;" horiz-adv-x="861" 
d="M799 637v-637h-713v637h136v-522h152v522h137v-522h152v522h136v0z" />
    <glyph glyph-name="x" unicode="&#x428;" horiz-adv-x="861" 
d="M799 637v-637h-713v637h136v-522h152v522h137v-522h152v522h136v0z" />
    <glyph glyph-name="y" unicode="&#xd9;" horiz-adv-x="921" 
d="M806 118h59v-265h-134v147h-639v637h137v-522h152v522h136v-522h152v522h137v-519v0z" />
    <glyph glyph-name="y" unicode="&#x429;" horiz-adv-x="921" 
d="M806 118h59v-265h-134v147h-639v637h137v-522h152v522h136v-522h152v522h137v-519v0z" />
    <glyph glyph-name="z" unicode="&#xda;" horiz-adv-x="650" 
d="M276 0h-89.999v524h-147v113h284v-256c28 0 54.833 -0.666992 80.5 -2s49.5 -6.66602 71.5 -15.999c39.333 -12.667 69.666 -32.834 90.999 -60.501s32 -64.167 32 -109.5v-28c-4 -62 -28 -103.667 -72 -125s-91.667 -34 -143 -38
c-15.333 -0.666992 -30.333 -1.16699 -45 -1.5s-29 -0.5 -43 -0.5h-19v0zM465.001 190l-1.00195 1c0 36 -10.5 59 -31.5 69s-44.167 15.333 -69.5 16h-4h-4h-34v-171h7.5h7.5c2 -0.666992 4.16699 -1 6.5 -1h7.5c28.667 0 54.834 4.66699 78.501 14s35.834 33.333 36.501 72
v0z" />
    <glyph glyph-name="z" unicode="&#x42a;" horiz-adv-x="650" 
d="M276 0h-89.999v524h-147v113h284v-256c28 0 54.833 -0.666992 80.5 -2s49.5 -6.66602 71.5 -15.999c39.333 -12.667 69.666 -32.834 90.999 -60.501s32 -64.167 32 -109.5v-28c-4 -62 -28 -103.667 -72 -125s-91.667 -34 -143 -38
c-15.333 -0.666992 -30.333 -1.16699 -45 -1.5s-29 -0.5 -43 -0.5h-19v0zM465.001 190l-1.00195 1c0 36 -10.5 59 -31.5 69s-44.167 15.333 -69.5 16h-4h-4h-34v-171h7.5h7.5c2 -0.666992 4.16699 -1 6.5 -1h7.5c28.667 0 54.834 4.66699 78.501 14s35.834 33.333 36.501 72
v0z" />
    <glyph glyph-name="braceleft" unicode="&#xdb;" horiz-adv-x="741" 
d="M216 637v-256.001c10 0 20.333 -0.166992 31 -0.5s21.667 -0.833008 33 -1.5c20 -0.666992 39.333 -2.5 58 -5.5s35 -7.5 49 -13.5c31.333 -14 56.833 -33.167 76.5 -57.5s29.5 -67.5 29.5 -129.5v-6c-4.66699 -62.667 -29 -104.667 -73 -126s-92 -34 -144 -38
c-16 -1.33301 -32 -2.16602 -48 -2.49902s-31.333 -0.5 -46 -0.5h-103v637h137v0zM216 276.999v-170.001c2 0 4.16699 -0.166992 6.5 -0.5s4.83301 -0.5 7.5 -0.5c1.33301 0 2.5 -0.166992 3.5 -0.5s2.16699 -0.5 3.5 -0.5h4h4h2.5h3.5c26.667 0 51 5 73 15
s33.333 33.667 34 71l-1 2c0 36.667 -11.167 59.834 -33.5 69.501s-46.5 14.5 -72.5 14.5h-3.5h-2.5h-29v0zM546 636.998h136v-637h-136v637v0z" />
    <glyph glyph-name="braceleft" unicode="&#x42b;" horiz-adv-x="741" 
d="M216 637v-256.001c10 0 20.333 -0.166992 31 -0.5s21.667 -0.833008 33 -1.5c20 -0.666992 39.333 -2.5 58 -5.5s35 -7.5 49 -13.5c31.333 -14 56.833 -33.167 76.5 -57.5s29.5 -67.5 29.5 -129.5v-6c-4.66699 -62.667 -29 -104.667 -73 -126s-92 -34 -144 -38
c-16 -1.33301 -32 -2.16602 -48 -2.49902s-31.333 -0.5 -46 -0.5h-103v637h137v0zM216 276.999v-170.001c2 0 4.16699 -0.166992 6.5 -0.5s4.83301 -0.5 7.5 -0.5c1.33301 0 2.5 -0.166992 3.5 -0.5s2.16699 -0.5 3.5 -0.5h4h4h2.5h3.5c26.667 0 51 5 73 15
s33.333 33.667 34 71l-1 2c0 36.667 -11.167 59.834 -33.5 69.501s-46.5 14.5 -72.5 14.5h-3.5h-2.5h-29v0zM546 636.998h136v-637h-136v637v0z" />
    <glyph glyph-name="bar" unicode="&#xdc;" horiz-adv-x="549" 
d="M219 637l0.000976562 -255h42c18.667 0 37.167 -0.666992 55.5 -2s36.5 -5.33301 54.5 -12c40 -12.667 70.833 -34 92.5 -64s32.5 -68 32.5 -114v-23c-4 -62.667 -28.167 -104.834 -72.5 -126.501s-92.833 -34.167 -145.5 -37.5
c-16 -1.33301 -31.833 -2.16602 -47.5 -2.49902s-30.834 -0.5 -45.501 -0.5h-102v637h136v0zM219.001 107c2 0 4.16699 -0.167969 6.5 -0.500977s4.83301 -0.5 7.5 -0.5c1.33301 0 2.5 -0.166992 3.5 -0.5s2.16699 -0.5 3.5 -0.5h4h4h2.5h3.5c26.667 0 51 5 73 15
s33.333 33.667 34 71l-1 2c0 36.667 -11.167 59.834 -33.5 69.501s-46.5 14.5 -72.5 14.5h-3.5h-2.5h-29v-170v0z" />
    <glyph glyph-name="bar" unicode="&#x42c;" horiz-adv-x="549" 
d="M219 637l0.000976562 -255h42c18.667 0 37.167 -0.666992 55.5 -2s36.5 -5.33301 54.5 -12c40 -12.667 70.833 -34 92.5 -64s32.5 -68 32.5 -114v-23c-4 -62.667 -28.167 -104.834 -72.5 -126.501s-92.833 -34.167 -145.5 -37.5
c-16 -1.33301 -31.833 -2.16602 -47.5 -2.49902s-30.834 -0.5 -45.501 -0.5h-102v637h136v0zM219.001 107c2 0 4.16699 -0.167969 6.5 -0.500977s4.83301 -0.5 7.5 -0.5c1.33301 0 2.5 -0.166992 3.5 -0.5s2.16699 -0.5 3.5 -0.5h4h4h2.5h3.5c26.667 0 51 5 73 15
s33.333 33.667 34 71l-1 2c0 36.667 -11.167 59.834 -33.5 69.501s-46.5 14.5 -72.5 14.5h-3.5h-2.5h-29v-170v0z" />
    <glyph glyph-name="braceright" unicode="&#xdd;" horiz-adv-x="660" 
d="M310 648c85.333 -10.667 155.834 -47 211.501 -109s83.5 -136.333 83.5 -223c0 -105.333 -35.333 -186.833 -106 -244.5s-150.667 -86.5 -240 -86.5c-8.66699 0 -17.5 0.333008 -26.5 1s-18.167 1.66699 -27.5 3c-24 2.66699 -47.667 7.66699 -71 15
s-46 16.666 -68 27.999l-1 141c28.667 -24 58 -42.667 88 -56s62.333 -20 97 -20c3.33301 0 7.16602 0.166992 11.499 0.5s8.83301 0.833008 13.5 1.5h0.5h0.5c2.66699 0 5.16699 0.166992 7.5 0.5s4.5 0.5 6.5 0.5c48 5.33301 86 23.833 114 55.5s46.333 68.834 55 111.501
h-277v114h275c-0.666992 41.333 -16.167 76 -46.5 104s-64.5 44.667 -102.5 50c-2 0 -4 0.166992 -6 0.5s-4 0.5 -6 0.5h-4h-4c-6.66699 0.666992 -13.167 1.16699 -19.5 1.5s-12.5 0.5 -18.5 0.5c-34 0 -66.333 -5.16699 -97 -15.5s-60.667 -27.833 -90 -52.5l-3 136
c32.667 14 65.5 24.833 98.5 32.5s66.5 11.5 100.5 11.5h25.5c8.33301 0 16.833 -0.666992 25.5 -2v0z" />
    <glyph glyph-name="braceright" unicode="&#x42d;" horiz-adv-x="660" 
d="M310 648c85.333 -10.667 155.834 -47 211.501 -109s83.5 -136.333 83.5 -223c0 -105.333 -35.333 -186.833 -106 -244.5s-150.667 -86.5 -240 -86.5c-8.66699 0 -17.5 0.333008 -26.5 1s-18.167 1.66699 -27.5 3c-24 2.66699 -47.667 7.66699 -71 15
s-46 16.666 -68 27.999l-1 141c28.667 -24 58 -42.667 88 -56s62.333 -20 97 -20c3.33301 0 7.16602 0.166992 11.499 0.5s8.83301 0.833008 13.5 1.5h0.5h0.5c2.66699 0 5.16699 0.166992 7.5 0.5s4.5 0.5 6.5 0.5c48 5.33301 86 23.833 114 55.5s46.333 68.834 55 111.501
h-277v114h275c-0.666992 41.333 -16.167 76 -46.5 104s-64.5 44.667 -102.5 50c-2 0 -4 0.166992 -6 0.5s-4 0.5 -6 0.5h-4h-4c-6.66699 0.666992 -13.167 1.16699 -19.5 1.5s-12.5 0.5 -18.5 0.5c-34 0 -66.333 -5.16699 -97 -15.5s-60.667 -27.833 -90 -52.5l-3 136
c32.667 14 65.5 24.833 98.5 32.5s66.5 11.5 100.5 11.5h25.5c8.33301 0 16.833 -0.666992 25.5 -2v0z" />
    <glyph glyph-name="asciitilde" unicode="&#xde;" horiz-adv-x="1029" 
d="M222 381l73.0029 0.00195312c0 5.33301 0.5 11 1.5 17s2.5 12 4.5 18c3.33301 9.33301 7.16602 18.666 11.499 27.999s8.83301 18 13.5 26c0.666992 1.33301 1.5 2.66602 2.5 3.99902s1.83301 2.66602 2.5 3.99902c30.667 57.333 73.334 100.833 128.001 130.5
s111.667 44.5 171 44.5c8 0 16.167 -0.333008 24.5 -1l24.5 -2c24.667 -3.33301 49.167 -9.33301 73.5 -18s47.5 -20 69.5 -34c47.333 -30.667 84 -71.5 110 -122.5s39 -104.167 39 -159.5c0 -8.66699 -0.333008 -17.667 -1 -27s-2 -18.666 -4 -27.999
c-2 -11.333 -4.5 -22.833 -7.5 -34.5s-6.83301 -22.834 -11.5 -33.501c-28 -64.667 -71.667 -114.667 -131 -150s-122.333 -53 -189 -53c-6.66699 0 -13.334 0.166992 -20.001 0.5s-13.334 0.833008 -20.001 1.5c-20 2.66699 -39.833 6.83398 -59.5 12.501
s-38.834 12.834 -57.501 21.501c-50 25.333 -88.333 58.666 -115 99.999s-46.667 88 -60 140l-73 1v-267h-138v637h138v-256v0zM815.003 238.002c3.33301 8.66699 6.16699 17.502 8.5 26.502s3.83301 18.167 4.5 27.5c0.666992 4.66699 1.16699 9.16699 1.5 13.5
s0.5 8.83301 0.5 13.5v5.5v5.5c-2 36 -11.833 70.667 -29.5 104s-42.5 59.333 -74.5 78c-8.66699 4.66699 -17.667 8.66699 -27 12s-19 6 -29 8c-6.66699 1.33301 -13.334 2.33301 -20.001 3s-13.334 1 -20.001 1c-39.333 0 -76.166 -12 -110.499 -36
s-58.833 -56.667 -73.5 -98c-2.66699 -8 -5.16699 -16.5 -7.5 -25.5s-4.16602 -18.167 -5.49902 -27.5c-0.666992 -4.66699 -1.16699 -9.33398 -1.5 -14.001s-0.5 -9.33398 -0.5 -14.001v-4v-4c1.33301 -43.333 14 -84 38 -122s57.333 -63.333 100 -76
c6.66699 -1.33301 13.334 -2.83301 20.001 -4.5s13.334 -3.16699 20.001 -4.5c3.33301 0 6.66602 -0.166992 9.99902 -0.5s6.66602 -0.5 9.99902 -0.5c41.333 0 79 12 113 36s58.333 56.333 73 97v0z" />
    <glyph glyph-name="asciitilde" unicode="&#x42e;" horiz-adv-x="1029" 
d="M222 381l73.0029 0.00195312c0 5.33301 0.5 11 1.5 17s2.5 12 4.5 18c3.33301 9.33301 7.16602 18.666 11.499 27.999s8.83301 18 13.5 26c0.666992 1.33301 1.5 2.66602 2.5 3.99902s1.83301 2.66602 2.5 3.99902c30.667 57.333 73.334 100.833 128.001 130.5
s111.667 44.5 171 44.5c8 0 16.167 -0.333008 24.5 -1l24.5 -2c24.667 -3.33301 49.167 -9.33301 73.5 -18s47.5 -20 69.5 -34c47.333 -30.667 84 -71.5 110 -122.5s39 -104.167 39 -159.5c0 -8.66699 -0.333008 -17.667 -1 -27s-2 -18.666 -4 -27.999
c-2 -11.333 -4.5 -22.833 -7.5 -34.5s-6.83301 -22.834 -11.5 -33.501c-28 -64.667 -71.667 -114.667 -131 -150s-122.333 -53 -189 -53c-6.66699 0 -13.334 0.166992 -20.001 0.5s-13.334 0.833008 -20.001 1.5c-20 2.66699 -39.833 6.83398 -59.5 12.501
s-38.834 12.834 -57.501 21.501c-50 25.333 -88.333 58.666 -115 99.999s-46.667 88 -60 140l-73 1v-267h-138v637h138v-256v0zM815.003 238.002c3.33301 8.66699 6.16699 17.502 8.5 26.502s3.83301 18.167 4.5 27.5c0.666992 4.66699 1.16699 9.16699 1.5 13.5
s0.5 8.83301 0.5 13.5v5.5v5.5c-2 36 -11.833 70.667 -29.5 104s-42.5 59.333 -74.5 78c-8.66699 4.66699 -17.667 8.66699 -27 12s-19 6 -29 8c-6.66699 1.33301 -13.334 2.33301 -20.001 3s-13.334 1 -20.001 1c-39.333 0 -76.166 -12 -110.499 -36
s-58.833 -56.667 -73.5 -98c-2.66699 -8 -5.16699 -16.5 -7.5 -25.5s-4.16602 -18.167 -5.49902 -27.5c-0.666992 -4.66699 -1.16699 -9.33398 -1.5 -14.001s-0.5 -9.33398 -0.5 -14.001v-4v-4c1.33301 -43.333 14 -84 38 -122s57.333 -63.333 100 -76
c6.66699 -1.33301 13.334 -2.83301 20.001 -4.5s13.334 -3.16699 20.001 -4.5c3.33301 0 6.66602 -0.166992 9.99902 -0.5s6.66602 -0.5 9.99902 -0.5c41.333 0 79 12 113 36s58.333 56.333 73 97v0z" />
    <glyph glyph-name="quotedblleft" unicode="&#xdf;" horiz-adv-x="559" 
d="M203 0l-157.999 -0.000976562l175 290c-44 6.66699 -78.333 26.5 -103 59.5s-37.334 68.833 -38.001 107.5v1v2c0 4.66699 0.166992 9.33398 0.5 14.001s0.833008 9.33398 1.5 14.001c3.33301 18.667 9.5 37 18.5 55s20.833 33.667 35.5 47
c17.333 16 36.666 27.167 57.999 33.5s43 10.166 65 11.499c9.33301 0.666992 18.333 1.16699 27 1.5s17.334 0.5 26.001 0.5h195v-637h-136v298l-167 -298v0zM370.001 365.999l0.000976562 166.998h-25h-14c-4.66699 0 -9.33398 -0.333008 -14.001 -1
c-26 -1.33301 -50 -7.16602 -72 -17.499s-33 -32.166 -33 -65.499c0 -0.666992 0.166992 -1.5 0.5 -2.5s0.5 -1.83301 0.5 -2.5c0 -1.33301 0.166992 -2.5 0.5 -3.5s0.5 -1.83301 0.5 -2.5c2 -30 13.833 -49.5 35.5 -58.5s45.167 -13.833 70.5 -14.5h5h6h6.5h6.5h3.5
c1 0 2.16699 0.333008 3.5 1h10h9v0z" />
    <glyph glyph-name="quotedblleft" unicode="&#x42f;" horiz-adv-x="559" 
d="M203 0l-157.999 -0.000976562l175 290c-44 6.66699 -78.333 26.5 -103 59.5s-37.334 68.833 -38.001 107.5v1v2c0 4.66699 0.166992 9.33398 0.5 14.001s0.833008 9.33398 1.5 14.001c3.33301 18.667 9.5 37 18.5 55s20.833 33.667 35.5 47
c17.333 16 36.666 27.167 57.999 33.5s43 10.166 65 11.499c9.33301 0.666992 18.333 1.16699 27 1.5s17.334 0.5 26.001 0.5h195v-637h-136v298l-167 -298v0zM370.001 365.999l0.000976562 166.998h-25h-14c-4.66699 0 -9.33398 -0.333008 -14.001 -1
c-26 -1.33301 -50 -7.16602 -72 -17.499s-33 -32.166 -33 -65.499c0 -0.666992 0.166992 -1.5 0.5 -2.5s0.5 -1.83301 0.5 -2.5c0 -1.33301 0.166992 -2.5 0.5 -3.5s0.5 -1.83301 0.5 -2.5c2 -30 13.833 -49.5 35.5 -58.5s45.167 -13.833 70.5 -14.5h5h6h6.5h6.5h3.5
c1 0 2.16699 0.333008 3.5 1h10h9v0z" />
    <glyph glyph-name="equal" unicode="&#xe0;" horiz-adv-x="549" 
d="M494 0l-120.001 0.00390625l2 62c-18 -26 -38.667 -45.167 -62 -57.5s-50.666 -18.5 -81.999 -18.5l-5 -1c-46 0.666992 -85.167 15.667 -117.5 45s-53.166 65.666 -62.499 108.999c-0.666992 3.33301 -1.16699 6.66602 -1.5 9.99902s-0.833008 6.66602 -1.5 9.99902
c-0.666992 4 -1.16699 8 -1.5 12s-0.833008 8 -1.5 12c-0.666992 4.66699 -1.16699 9.5 -1.5 14.5s-0.5 9.83301 -0.5 14.5c0 5.33301 0.166992 10.666 0.5 15.999s0.5 10.666 0.5 15.999c4 42 16.667 81.5 38 118.5s53.666 60.833 96.999 71.5
c4 1.33301 8.16699 2.33301 12.5 3l13.5 2c4.66699 0.666992 9.16699 1.16699 13.5 1.5s8.5 0.5 12.5 0.5c30 0 58.167 -7.16699 84.5 -21.5s47.833 -35.166 64.5 -62.499v71h118v-428v0zM166.999 230.004c0 -1.33301 -0.166992 -2.83203 -0.5 -4.49902s-0.5 -3.5 -0.5 -5.5
v-2v-2c-0.666992 -1.33301 -1 -2.5 -1 -3.5v-3.5v-2.5v-3.5c1.33301 -28 10.5 -53.667 27.5 -77s42.5 -35 76.5 -35l3 1l2 -1c30 0 54.167 11.5 72.5 34.5s28.833 48.5 31.5 76.5c0.666992 2.66699 1 5.16699 1 7.5v7.5v6v5c-2 22.667 -8.66699 44.167 -20 64.5
s-28.333 34.166 -51 41.499l-8 2c-2.66699 0.666992 -5.33398 1 -8.00098 1c-4 0.666992 -7.66699 1.16699 -11 1.5s-6.33301 0.5 -9 0.5c-30 0 -54.167 -11.333 -72.5 -34s-29.166 -47.667 -32.499 -75v0z" />
    <glyph glyph-name="equal" unicode="&#x430;" horiz-adv-x="549" 
d="M494 0l-120.001 0.00390625l2 62c-18 -26 -38.667 -45.167 -62 -57.5s-50.666 -18.5 -81.999 -18.5l-5 -1c-46 0.666992 -85.167 15.667 -117.5 45s-53.166 65.666 -62.499 108.999c-0.666992 3.33301 -1.16699 6.66602 -1.5 9.99902s-0.833008 6.66602 -1.5 9.99902
c-0.666992 4 -1.16699 8 -1.5 12s-0.833008 8 -1.5 12c-0.666992 4.66699 -1.16699 9.5 -1.5 14.5s-0.5 9.83301 -0.5 14.5c0 5.33301 0.166992 10.666 0.5 15.999s0.5 10.666 0.5 15.999c4 42 16.667 81.5 38 118.5s53.666 60.833 96.999 71.5
c4 1.33301 8.16699 2.33301 12.5 3l13.5 2c4.66699 0.666992 9.16699 1.16699 13.5 1.5s8.5 0.5 12.5 0.5c30 0 58.167 -7.16699 84.5 -21.5s47.833 -35.166 64.5 -62.499v71h118v-428v0zM166.999 230.004c0 -1.33301 -0.166992 -2.83203 -0.5 -4.49902s-0.5 -3.5 -0.5 -5.5
v-2v-2c-0.666992 -1.33301 -1 -2.5 -1 -3.5v-3.5v-2.5v-3.5c1.33301 -28 10.5 -53.667 27.5 -77s42.5 -35 76.5 -35l3 1l2 -1c30 0 54.167 11.5 72.5 34.5s28.833 48.5 31.5 76.5c0.666992 2.66699 1 5.16699 1 7.5v7.5v6v5c-2 22.667 -8.66699 44.167 -20 64.5
s-28.333 34.166 -51 41.499l-8 2c-2.66699 0.666992 -5.33398 1 -8.00098 1c-4 0.666992 -7.66699 1.16699 -11 1.5s-6.33301 0.5 -9 0.5c-30 0 -54.167 -11.333 -72.5 -34s-29.166 -47.667 -32.499 -75v0z" />
    <glyph glyph-name="K" unicode="&#xe1;" horiz-adv-x="580" 
d="M182 408c12 6.66699 24.5029 12.1709 37.5029 16.5039s25.833 7.5 38.5 9.5c8 1.33301 15.667 2.33301 23 3s14.666 1 21.999 1c57.333 0 110 -19.167 158 -57.5s72 -94.5 72 -168.5c0 -68 -23.5 -122.333 -70.5 -163s-103.5 -61 -169.5 -61l-22 -1
c-57.333 4.66699 -105 27.167 -143 67.5s-61.333 84.5 -70 132.5c0 1.33301 -0.166992 2.83301 -0.5 4.5s-0.5 3.16699 -0.5 4.5c-0.666992 8 -1.5 17.167 -2.5 27.5s-1.5 21.166 -1.5 32.499c0 17.333 0.833008 36 2.5 56s4.16699 40.333 7.5 61
c4.66699 30.667 11.667 60.334 21 89.001s21.333 53 36 73c13.333 17.333 27.666 31.333 42.999 42s31 19.334 47 26.001c14 6 27.833 10.667 41.5 14l39.5 10c16 4 30 8.66699 42 14s20.333 13.333 25 24h101c0 -48.667 -13.833 -81.334 -41.5 -98.001
s-58.167 -29.334 -91.5 -38.001c-2 0 -4.16699 -0.333008 -6.5 -1s-4.83301 -1.33398 -7.5 -2.00098c-18.667 -4.66699 -36.334 -9.83398 -53.001 -15.501s-30.667 -13.834 -42 -24.501c-8.66699 -9.33301 -16.167 -20.5 -22.5 -33.5s-10.5 -27.833 -12.5 -44.5v0z
M410.003 216.004v1.49805v1.5c-0.666992 27.333 -12.5 52.5 -35.5 75.5s-48.833 34.5 -77.5 34.5s-54.5 -9.83301 -77.5 -29.5s-35.5 -47.5 -37.5 -83.5c0 -34.667 11.667 -61 35 -79s49.333 -27 78 -27h1.5h1.5c28 0.666992 53.667 9.83398 77 27.501s35 43.834 35 78.501
v0z" />
    <glyph glyph-name="K" unicode="&#x431;" horiz-adv-x="580" 
d="M182 408c12 6.66699 24.5029 12.1709 37.5029 16.5039s25.833 7.5 38.5 9.5c8 1.33301 15.667 2.33301 23 3s14.666 1 21.999 1c57.333 0 110 -19.167 158 -57.5s72 -94.5 72 -168.5c0 -68 -23.5 -122.333 -70.5 -163s-103.5 -61 -169.5 -61l-22 -1
c-57.333 4.66699 -105 27.167 -143 67.5s-61.333 84.5 -70 132.5c0 1.33301 -0.166992 2.83301 -0.5 4.5s-0.5 3.16699 -0.5 4.5c-0.666992 8 -1.5 17.167 -2.5 27.5s-1.5 21.166 -1.5 32.499c0 17.333 0.833008 36 2.5 56s4.16699 40.333 7.5 61
c4.66699 30.667 11.667 60.334 21 89.001s21.333 53 36 73c13.333 17.333 27.666 31.333 42.999 42s31 19.334 47 26.001c14 6 27.833 10.667 41.5 14l39.5 10c16 4 30 8.66699 42 14s20.333 13.333 25 24h101c0 -48.667 -13.833 -81.334 -41.5 -98.001
s-58.167 -29.334 -91.5 -38.001c-2 0 -4.16699 -0.333008 -6.5 -1s-4.83301 -1.33398 -7.5 -2.00098c-18.667 -4.66699 -36.334 -9.83398 -53.001 -15.501s-30.667 -13.834 -42 -24.501c-8.66699 -9.33301 -16.167 -20.5 -22.5 -33.5s-10.5 -27.833 -12.5 -44.5v0z
M410.003 216.004v1.49805v1.5c-0.666992 27.333 -12.5 52.5 -35.5 75.5s-48.833 34.5 -77.5 34.5s-54.5 -9.83301 -77.5 -29.5s-35.5 -47.5 -37.5 -83.5c0 -34.667 11.667 -61 35 -79s49.333 -27 78 -27h1.5h1.5c28 0.666992 53.667 9.83398 77 27.501s35 43.834 35 78.501
v0z" />
    <glyph glyph-name="quotedbl" unicode="&#xe2;" horiz-adv-x="472" 
d="M421 112c-2 -34.667 -14.168 -62.001 -36.501 -82.001s-67.166 -30 -134.499 -30h-195l-2 428h179c58 0 101.833 -7.5 131.5 -22.5s45.167 -42.167 46.5 -81.5c0 -23.333 -4.5 -43.666 -13.5 -60.999s-29.5 -29.333 -61.5 -36c29.333 -4.66699 51 -16.667 65 -36
s21 -44 21 -74v-5v0zM171.999 184.999v-114.001h8.5h9.5c2.66699 -0.666992 5.5 -1 8.5 -1h8.5h2.5h3.5c22.667 0 43.5 3.5 62.5 10.5s28.833 22.833 29.5 47.5c0 24 -9.83301 39.333 -29.5 46s-41.167 10.334 -64.5 11.001h-4.5h-5.5h-29v0zM171.999 356.998
l-0.000976562 -101l1 -0.5c0.666992 -0.333008 1.66699 -0.5 3 -0.5v0v0c0.666992 -0.666992 1.33398 -1 2.00098 -1h2h16.5c5.66699 0 11.167 0.333008 16.5 1c20 1.33301 38.333 5.5 55 12.5s25 19.833 25 38.5v4c0 18.667 -8.33301 31 -25 37s-35 9.33301 -55 10h-4.5
h-5.5h-31v0z" />
    <glyph glyph-name="quotedbl" unicode="&#x432;" horiz-adv-x="472" 
d="M421 112c-2 -34.667 -14.168 -62.001 -36.501 -82.001s-67.166 -30 -134.499 -30h-195l-2 428h179c58 0 101.833 -7.5 131.5 -22.5s45.167 -42.167 46.5 -81.5c0 -23.333 -4.5 -43.666 -13.5 -60.999s-29.5 -29.333 -61.5 -36c29.333 -4.66699 51 -16.667 65 -36
s21 -44 21 -74v-5v0zM171.999 184.999v-114.001h8.5h9.5c2.66699 -0.666992 5.5 -1 8.5 -1h8.5h2.5h3.5c22.667 0 43.5 3.5 62.5 10.5s28.833 22.833 29.5 47.5c0 24 -9.83301 39.333 -29.5 46s-41.167 10.334 -64.5 11.001h-4.5h-5.5h-29v0zM171.999 356.998
l-0.000976562 -101l1 -0.5c0.666992 -0.333008 1.66699 -0.5 3 -0.5v0v0c0.666992 -0.666992 1.33398 -1 2.00098 -1h2h16.5c5.66699 0 11.167 0.333008 16.5 1c20 1.33301 38.333 5.5 55 12.5s25 19.833 25 38.5v4c0 18.667 -8.33301 31 -25 37s-35 9.33301 -55 10h-4.5
h-5.5h-31v0z" />
    <glyph glyph-name="atilde" unicode="&#xe3;" horiz-adv-x="361" 
d="M180 0h-123v428h274v-102h-151v-326v0z" />
    <glyph glyph-name="atilde" unicode="&#x433;" horiz-adv-x="361" 
d="M180 0h-123v428h274v-102h-151v-326v0z" />
    <glyph glyph-name="adieresis" unicode="&#xe4;" horiz-adv-x="561" 
d="M480 89l55 -0.000976562v-186h-123v97h-253v-97h-123v186h22c2 0 5.83301 1.83301 11.5 5.5s11.5 9.16699 17.5 16.5l8 10c2.66699 3.33301 5 7.33301 7 12c0.666992 0.666992 1.16699 1.5 1.5 2.5s0.5 1.83301 0.5 2.5c10 25.333 17.167 56.333 21.5 93
s7.5 102.334 9.5 197.001h345v-339v0zM253 334.999c-0.666992 -61.333 -3.66797 -106.168 -9.00098 -134.501s-11.666 -50.166 -18.999 -65.499l-5 -10c-2 -4 -4.33301 -7.66699 -7 -11c-2.66699 -4 -5.5 -7.83301 -8.5 -11.5s-6.5 -7.16699 -10.5 -10.5h161v243h-102v0z
" />
    <glyph glyph-name="adieresis" unicode="&#x434;" horiz-adv-x="561" 
d="M480 89l55 -0.000976562v-186h-123v97h-253v-97h-123v186h22c2 0 5.83301 1.83301 11.5 5.5s11.5 9.16699 17.5 16.5l8 10c2.66699 3.33301 5 7.33301 7 12c0.666992 0.666992 1.16699 1.5 1.5 2.5s0.5 1.83301 0.5 2.5c10 25.333 17.167 56.333 21.5 93
s7.5 102.334 9.5 197.001h345v-339v0zM253 334.999c-0.666992 -61.333 -3.66797 -106.168 -9.00098 -134.501s-11.666 -50.166 -18.999 -65.499l-5 -10c-2 -4 -4.33301 -7.66699 -7 -11c-2.66699 -4 -5.5 -7.83301 -8.5 -11.5s-6.5 -7.16699 -10.5 -10.5h161v243h-102v0z
" />
    <glyph glyph-name="yright" unicode="&#xe5;" horiz-adv-x="549" 
d="M493 183l-321.002 0.00292969c6.66699 -26.667 16.334 -47.834 29.001 -63.501s33.334 -24.834 62.001 -27.501h4h4h0.5h1.5c1.33301 -0.666992 2.83301 -1 4.5 -1h4.5c19.333 0 37 4.5 53 13.5s29.667 21.833 41 38.5l100 -49c-25.333 -38 -54.666 -65.5 -87.999 -82.5
s-73 -25.5 -119 -25.5l-13 -1c-64.667 3.33301 -115.334 26.5 -152.001 69.5s-55 93.833 -55 152.5c0 5.33301 0.166992 10.5 0.5 15.5s0.833008 10.167 1.5 15.5c0.666992 3.33301 1.16699 6.66602 1.5 9.99902s0.5 6.66602 0.5 9.99902
c10 56.667 36.5 101.334 79.5 134.001s90.833 49 143.5 49c7.33301 0 15.166 -0.333008 23.499 -1s16.5 -2 24.5 -4c6.66699 -0.666992 13.334 -2 20.001 -4s13 -4 19 -6c51.333 -18.667 85.833 -48 103.5 -88s26.5 -83.667 26.5 -131v-24v0zM273.998 339.003
c-28.667 0 -50.668 -7.00098 -66.001 -21.001s-25.666 -34 -30.999 -60h193c-4.66699 26.667 -14.5 46.834 -29.5 60.501s-37.167 20.5 -66.5 20.5v0z" />
    <glyph glyph-name="yright" unicode="&#x435;" horiz-adv-x="549" 
d="M493 183l-321.002 0.00292969c6.66699 -26.667 16.334 -47.834 29.001 -63.501s33.334 -24.834 62.001 -27.501h4h4h0.5h1.5c1.33301 -0.666992 2.83301 -1 4.5 -1h4.5c19.333 0 37 4.5 53 13.5s29.667 21.833 41 38.5l100 -49c-25.333 -38 -54.666 -65.5 -87.999 -82.5
s-73 -25.5 -119 -25.5l-13 -1c-64.667 3.33301 -115.334 26.5 -152.001 69.5s-55 93.833 -55 152.5c0 5.33301 0.166992 10.5 0.5 15.5s0.833008 10.167 1.5 15.5c0.666992 3.33301 1.16699 6.66602 1.5 9.99902s0.5 6.66602 0.5 9.99902
c10 56.667 36.5 101.334 79.5 134.001s90.833 49 143.5 49c7.33301 0 15.166 -0.333008 23.499 -1s16.5 -2 24.5 -4c6.66699 -0.666992 13.334 -2 20.001 -4s13 -4 19 -6c51.333 -18.667 85.833 -48 103.5 -88s26.5 -83.667 26.5 -131v-24v0zM273.998 339.003
c-28.667 0 -50.668 -7.00098 -66.001 -21.001s-25.666 -34 -30.999 -60h193c-4.66699 26.667 -14.5 46.834 -29.5 60.501s-37.167 20.5 -66.5 20.5v0z" />
    <glyph glyph-name="guilsinglright" unicode="&#xe6;" horiz-adv-x="770" 
d="M446 0h-125v227l-154 -227h-139l171 238l-157 190h136l143 -190v190h125v-190l142 190h136l-155 -190l172 -238h-140l-155 227v-227v0z" />
    <glyph glyph-name="guilsinglright" unicode="&#x436;" horiz-adv-x="770" 
d="M446 0h-125v227l-154 -227h-139l171 238l-157 190h136l143 -190v190h125v-190l142 190h136l-155 -190l172 -238h-140l-155 227v-227v0z" />
    <glyph glyph-name="florin" unicode="&#xe7;" horiz-adv-x="400" 
d="M240 128c0 24 -9.83594 39.3291 -29.5029 45.9961s-41.167 10.334 -64.5 11.001h-4.5h-5.5h-31v71h2c0.666992 0 1.33398 -0.333008 2.00098 -1v0v0c1.33301 0 2.33301 -0.166992 3 -0.5l1 -0.5h16c5.33301 0 11 0.333008 17 1c20.667 1.33301 39.667 5.5 57 12.5
s26 19.833 26 38.5c-0.666992 16.667 -7.5 27.5 -20.5 32.5s-29.5 7.83301 -49.5 8.5l-5 -2c-14 0 -27.333 -1.66699 -40 -5s-23.667 -7 -33 -11c-10 -4 -17.833 -7.66699 -23.5 -11l-8.5 -5v100c0.666992 0 4.5 1 11.5 3s15.833 4.33301 26.5 7c11.333 2.66699 24 5 38 7
s29 3 45 3c10 0 20.167 -0.5 30.5 -1.5s20.5 -2.83301 30.5 -5.5c16 -3.33301 31.667 -8.33301 47 -15s29.666 -15.667 42.999 -27c1.33301 -1.33301 3 -3.33301 5 -6s4 -5.66699 6 -9l6 -12.5c2 -4.33301 3.66699 -8.83301 5 -13.5
c0.666992 -1.33301 1.16699 -2.83301 1.5 -4.5s0.5 -3.16699 0.5 -4.5c0 -28.667 -4.16699 -52.167 -12.5 -70.5s-27.166 -31.166 -56.499 -38.499c26.667 -4.66699 46.5 -14.334 59.5 -29.001s19.5 -40.667 19.5 -78v-9c0 -3.33301 -0.333008 -6.66602 -1 -9.99902
s-1.66699 -7 -3 -11c-2 -5.33301 -4.16699 -10.5 -6.5 -15.5s-4.83301 -9.83301 -7.5 -14.5c-4.66699 -7.33301 -9 -13.5 -13 -18.5l-6 -7.5c-10 -7.33301 -20.5 -13.666 -31.5 -18.999s-21.833 -9.66602 -32.5 -12.999c-14 -4 -28 -7 -42 -9s-27.333 -3 -40 -3
c-17.333 0 -33.5 1.33301 -48.5 4s-28.167 5.33398 -39.5 8.00098c-10.667 3.33301 -19.167 6.33301 -25.5 9l-9.5 4v102l6.5 -5.5c4.33301 -3.66699 10.833 -7.83398 19.5 -12.501s19.5 -8.83398 32.5 -12.501s27.833 -5.5 44.5 -5.5c0.666992 0 1.5 0.166992 2.5 0.5
s1.83301 0.5 2.5 0.5c1.33301 0 2.33301 0.166992 3 0.5s1.33398 0.5 2.00098 0.5h4.5c1.66699 0 3.5 0.333008 5.5 1c12 1.33301 23.333 4.66602 34 9.99902s19 11.333 25 18c2.66699 2.66699 4.83398 5.33398 6.50098 8.00098s2.5 5.33398 2.5 8.00098v2v0z" />
    <glyph glyph-name="florin" unicode="&#x437;" horiz-adv-x="400" 
d="M240 128c0 24 -9.83594 39.3291 -29.5029 45.9961s-41.167 10.334 -64.5 11.001h-4.5h-5.5h-31v71h2c0.666992 0 1.33398 -0.333008 2.00098 -1v0v0c1.33301 0 2.33301 -0.166992 3 -0.5l1 -0.5h16c5.33301 0 11 0.333008 17 1c20.667 1.33301 39.667 5.5 57 12.5
s26 19.833 26 38.5c-0.666992 16.667 -7.5 27.5 -20.5 32.5s-29.5 7.83301 -49.5 8.5l-5 -2c-14 0 -27.333 -1.66699 -40 -5s-23.667 -7 -33 -11c-10 -4 -17.833 -7.66699 -23.5 -11l-8.5 -5v100c0.666992 0 4.5 1 11.5 3s15.833 4.33301 26.5 7c11.333 2.66699 24 5 38 7
s29 3 45 3c10 0 20.167 -0.5 30.5 -1.5s20.5 -2.83301 30.5 -5.5c16 -3.33301 31.667 -8.33301 47 -15s29.666 -15.667 42.999 -27c1.33301 -1.33301 3 -3.33301 5 -6s4 -5.66699 6 -9l6 -12.5c2 -4.33301 3.66699 -8.83301 5 -13.5
c0.666992 -1.33301 1.16699 -2.83301 1.5 -4.5s0.5 -3.16699 0.5 -4.5c0 -28.667 -4.16699 -52.167 -12.5 -70.5s-27.166 -31.166 -56.499 -38.499c26.667 -4.66699 46.5 -14.334 59.5 -29.001s19.5 -40.667 19.5 -78v-9c0 -3.33301 -0.333008 -6.66602 -1 -9.99902
s-1.66699 -7 -3 -11c-2 -5.33301 -4.16699 -10.5 -6.5 -15.5s-4.83301 -9.83301 -7.5 -14.5c-4.66699 -7.33301 -9 -13.5 -13 -18.5l-6 -7.5c-10 -7.33301 -20.5 -13.666 -31.5 -18.999s-21.833 -9.66602 -32.5 -12.999c-14 -4 -28 -7 -42 -9s-27.333 -3 -40 -3
c-17.333 0 -33.5 1.33301 -48.5 4s-28.167 5.33398 -39.5 8.00098c-10.667 3.33301 -19.167 6.33301 -25.5 9l-9.5 4v102l6.5 -5.5c4.33301 -3.66699 10.833 -7.83398 19.5 -12.501s19.5 -8.83398 32.5 -12.501s27.833 -5.5 44.5 -5.5c0.666992 0 1.5 0.166992 2.5 0.5
s1.83301 0.5 2.5 0.5c1.33301 0 2.33301 0.166992 3 0.5s1.33398 0.5 2.00098 0.5h4.5c1.66699 0 3.5 0.333008 5.5 1c12 1.33301 23.333 4.66602 34 9.99902s19 11.333 25 18c2.66699 2.66699 4.83398 5.33398 6.50098 8.00098s2.5 5.33398 2.5 8.00098v2v0z" />
    <glyph glyph-name="comma" unicode="&#xe8;" horiz-adv-x="540" 
d="M180 0l-123.004 -0.000976562v428h123v-232v-14.5c0 -2.33301 -0.333008 -4.16602 -1 -5.49902c0 -1.33301 -0.333008 -3 -1 -5s-1.66699 -6 -3 -12c2.66699 4 4.33398 7 5.00098 9s1.33398 3.66699 2.00098 5v0.5v0.5c0.666992 1.33301 1.66699 2.83301 3 4.5
s4 4.83398 8 9.50098l178 240h118v-428h-123v241c0 7.33301 0.166992 12.166 0.5 14.499s0.5 4.16602 0.5 5.49902c0.666992 1.33301 1.33398 3.16602 2.00098 5.49902s1.33398 6.83301 2.00098 13.5c-2 -4.66699 -3.66699 -8.16699 -5 -10.5s-2.33301 -4.16602 -3 -5.49902
c-0.666992 -0.666992 -1 -1.16699 -1 -1.5s-0.333008 -0.833008 -1 -1.5c-0.666992 -1.33301 -2 -3.16602 -4 -5.49902s-5 -5.5 -9 -9.5l-168 -246v0z" />
    <glyph glyph-name="comma" unicode="&#x438;" horiz-adv-x="540" 
d="M180 0l-123.004 -0.000976562v428h123v-232v-14.5c0 -2.33301 -0.333008 -4.16602 -1 -5.49902c0 -1.33301 -0.333008 -3 -1 -5s-1.66699 -6 -3 -12c2.66699 4 4.33398 7 5.00098 9s1.33398 3.66699 2.00098 5v0.5v0.5c0.666992 1.33301 1.66699 2.83301 3 4.5
s4 4.83398 8 9.50098l178 240h118v-428h-123v241c0 7.33301 0.166992 12.166 0.5 14.499s0.5 4.16602 0.5 5.49902c0.666992 1.33301 1.33398 3.16602 2.00098 5.49902s1.33398 6.83301 2.00098 13.5c-2 -4.66699 -3.66699 -8.16699 -5 -10.5s-2.33301 -4.16602 -3 -5.49902
c-0.666992 -0.666992 -1 -1.16699 -1 -1.5s-0.333008 -0.833008 -1 -1.5c-0.666992 -1.33301 -2 -3.16602 -4 -5.49902s-5 -5.5 -9 -9.5l-168 -246v0z" />
    <glyph glyph-name="L" unicode="&#xe9;" horiz-adv-x="540" 
d="M348 246l-168.003 -245.998h-123v428h123v-232v-14.5c0 -2.33301 -0.333008 -4.16602 -1 -5.49902c0 -1.33301 -0.333008 -3 -1 -5s-1.66699 -6 -3 -12c2.66699 4 4.33398 7 5.00098 9s1.33398 3.66699 2.00098 5v0.5v0.5c0.666992 1.33301 1.66699 2.83301 3 4.5
s4 4.83398 8 9.50098l178 240h118v-428h-123v241c0 7.33301 0.166992 12.166 0.5 14.499s0.5 4.16602 0.5 5.49902c0.666992 1.33301 1.33398 3.16602 2.00098 5.49902s1.33398 6.83301 2.00098 13.5l-5.5 -7.5l-4.5 -6.5l-0.5 -0.5
c-0.333008 -0.333008 -0.5 -0.833008 -0.5 -1.5c-2 -2 -3.83301 -4.33301 -5.5 -7s-3.83398 -6.33398 -6.50098 -11.001v0zM330.997 601.002h76v-3c0 -2.66699 -1 -8 -3 -16s-6.66699 -16.667 -14 -26c-8.66699 -11.333 -22.167 -21.5 -40.5 -30.5
s-44.166 -13.5 -77.499 -13.5s-59 4.83301 -77 14.5s-31 20.5 -39 32.5c-8.66699 11.333 -13.667 21.833 -15 31.5l-2 14.5h81v-2l-1 -3c0 -1.33301 0.333008 -3 1 -5s2 -4 4 -6c2.66699 -4 8 -7.5 16 -10.5s20 -4.5 36 -4.5c18.667 0 31.667 1.33301 39 4
s11.666 6 12.999 10c0.666992 0.666992 1 1.5 1 2.5v2.5v5l2 3v0z" />
    <glyph glyph-name="L" unicode="&#x439;" horiz-adv-x="540" 
d="M348 246l-168.003 -245.998h-123v428h123v-232v-14.5c0 -2.33301 -0.333008 -4.16602 -1 -5.49902c0 -1.33301 -0.333008 -3 -1 -5s-1.66699 -6 -3 -12c2.66699 4 4.33398 7 5.00098 9s1.33398 3.66699 2.00098 5v0.5v0.5c0.666992 1.33301 1.66699 2.83301 3 4.5
s4 4.83398 8 9.50098l178 240h118v-428h-123v241c0 7.33301 0.166992 12.166 0.5 14.499s0.5 4.16602 0.5 5.49902c0.666992 1.33301 1.33398 3.16602 2.00098 5.49902s1.33398 6.83301 2.00098 13.5l-5.5 -7.5l-4.5 -6.5l-0.5 -0.5
c-0.333008 -0.333008 -0.5 -0.833008 -0.5 -1.5c-2 -2 -3.83301 -4.33301 -5.5 -7s-3.83398 -6.33398 -6.50098 -11.001v0zM330.997 601.002h76v-3c0 -2.66699 -1 -8 -3 -16s-6.66699 -16.667 -14 -26c-8.66699 -11.333 -22.167 -21.5 -40.5 -30.5
s-44.166 -13.5 -77.499 -13.5s-59 4.83301 -77 14.5s-31 20.5 -39 32.5c-8.66699 11.333 -13.667 21.833 -15 31.5l-2 14.5h81v-2l-1 -3c0 -1.33301 0.333008 -3 1 -5s2 -4 4 -6c2.66699 -4 8 -7.5 16 -10.5s20 -4.5 36 -4.5c18.667 0 31.667 1.33301 39 4
s11.666 6 12.999 10c0.666992 0.666992 1 1.5 1 2.5v2.5v5l2 3v0z" />
    <glyph glyph-name="asterisk" unicode="&#xea;" horiz-adv-x="540" 
d="M180 428v-190l159 190h149l-172 -190l188 -238h-152l-172 227v-227h-123v428h123v0z" />
    <glyph glyph-name="asterisk" unicode="&#x43a;" horiz-adv-x="540" 
d="M180 428v-190l159 190h149l-172 -190l188 -238h-152l-172 227v-227h-123v428h123v0z" />
    <glyph glyph-name="edieresis" unicode="&#xeb;" horiz-adv-x="549" 
d="M259 334l-1.5 -47.001c-1 -31.333 -4.5 -66 -10.5 -104c-4 -26.667 -9.66699 -52.334 -17 -77.001s-17 -43.667 -29 -57c-14 -15.333 -32.333 -27.333 -55 -36s-47 -13 -73 -13h-23v104l0.5 -0.5c0.333008 -0.333008 0.833008 -0.5 1.5 -0.5s1.5 -0.166992 2.5 -0.5
s2.16699 -0.5 3.5 -0.5c3.33301 0 7.83301 0.5 13.5 1.5s11.167 3.16699 16.5 6.5c4 2 7.83301 4.5 11.5 7.5s7.16699 6.5 10.5 10.5c8.66699 10.667 15.167 29.834 19.5 57.501s7.5 57.167 9.5 88.5c0.666992 16.667 1.16699 33.334 1.5 50.001s0.5 32 0.5 46v42
c0 2 0.166992 4 0.5 6s0.5 3.66699 0.5 5s0.166992 2.5 0.5 3.5l0.5 1.5h351v-428h-123v334h-112v0z" />
    <glyph glyph-name="edieresis" unicode="&#x43b;" horiz-adv-x="549" 
d="M259 334l-1.5 -47.001c-1 -31.333 -4.5 -66 -10.5 -104c-4 -26.667 -9.66699 -52.334 -17 -77.001s-17 -43.667 -29 -57c-14 -15.333 -32.333 -27.333 -55 -36s-47 -13 -73 -13h-23v104l0.5 -0.5c0.333008 -0.333008 0.833008 -0.5 1.5 -0.5s1.5 -0.166992 2.5 -0.5
s2.16699 -0.5 3.5 -0.5c3.33301 0 7.83301 0.5 13.5 1.5s11.167 3.16699 16.5 6.5c4 2 7.83301 4.5 11.5 7.5s7.16699 6.5 10.5 10.5c8.66699 10.667 15.167 29.834 19.5 57.501s7.5 57.167 9.5 88.5c0.666992 16.667 1.16699 33.334 1.5 50.001s0.5 32 0.5 46v42
c0 2 0.166992 4 0.5 6s0.5 3.66699 0.5 5s0.166992 2.5 0.5 3.5l0.5 1.5h351v-428h-123v334h-112v0z" />
    <glyph glyph-name="igrave" unicode="&#xec;" horiz-adv-x="681" 
d="M363 0l-51.999 -0.000976562l-91 235c-2.66699 6 -4.66699 12.5 -6 19.5l-4 20.5v0.5v1.5l-2 10.5l-2 10.5c0 -12.667 -0.666992 -25.167 -2 -37.5s-3.33301 -24.5 -6 -36.5l-38 -224h-121l86 428h104l110 -310l107 310h102l87 -428h-123l-36 224c0 2 -0.333008 4 -1 6
s-1 4 -1 6c-2 10 -3.66699 20.167 -5 30.5s-2 20.833 -2 31.5c0 -2 -0.166992 -4.16699 -0.5 -6.5s-0.833008 -4.5 -1.5 -6.5v-4c0 -1.33301 -0.333008 -2.66602 -1 -3.99902c-0.666992 -7.33301 -1.83398 -14.5 -3.50098 -21.5s-4.5 -13.833 -8.5 -20.5l-89 -235v0z" />
    <glyph glyph-name="igrave" unicode="&#x43c;" horiz-adv-x="681" 
d="M363 0l-51.999 -0.000976562l-91 235c-2.66699 6 -4.66699 12.5 -6 19.5l-4 20.5v0.5v1.5l-2 10.5l-2 10.5c0 -12.667 -0.666992 -25.167 -2 -37.5s-3.33301 -24.5 -6 -36.5l-38 -224h-121l86 428h104l110 -310l107 310h102l87 -428h-123l-36 224c0 2 -0.333008 4 -1 6
s-1 4 -1 6c-2 10 -3.66699 20.167 -5 30.5s-2 20.833 -2 31.5c0 -2 -0.166992 -4.16699 -0.5 -6.5s-0.833008 -4.5 -1.5 -6.5v-4c0 -1.33301 -0.333008 -2.66602 -1 -3.99902c-0.666992 -7.33301 -1.83398 -14.5 -3.50098 -21.5s-4.5 -13.833 -8.5 -20.5l-89 -235v0z" />
    <glyph glyph-name="ellipsis" unicode="&#xed;" horiz-adv-x="549" 
d="M180 253h186v175h123v-428h-123v170h-186v-170h-123v428h123v-175v0z" />
    <glyph glyph-name="ellipsis" unicode="&#x43d;" horiz-adv-x="549" 
d="M180 253h186v175h123v-428h-123v170h-186v-170h-123v428h123v-175v0z" />
    <glyph glyph-name="percent" unicode="&#xee;" horiz-adv-x="561" 
d="M517 212c0 -68 -23.668 -122.332 -71.001 -162.999s-103.666 -61 -168.999 -61l-23 -1c-61.333 4.66699 -112.5 29 -153.5 73s-61.5 95.333 -61.5 154v7.5c0 2.33301 0.333008 4.83301 1 7.5c0 3.33301 0.333008 6.66602 1 9.99902s1 6.33301 1 9
c0.666992 2 1.16699 3.83301 1.5 5.5s0.5 3.5 0.5 5.5c12 61.333 40.667 107 86 137s94 45 146 45h4h5c58 -2 111.167 -22.5 159.5 -61.5s72.5 -94.833 72.5 -167.5v0zM164.999 216.001c0 -25.333 9.50293 -48.001 28.5029 -68.001s40.167 -32.667 63.5 -38
c4 -1.33301 7.83301 -2.16602 11.5 -2.49902s7.16699 -0.5 10.5 -0.5c29.333 0 55.833 10.833 79.5 32.5s35.5 47.167 35.5 76.5v1.5v1.5c-0.666992 27.333 -12.834 52.5 -36.501 75.5s-49.834 34.5 -78.501 34.5c-28 0 -53.833 -11.5 -77.5 -34.5
s-35.834 -48.167 -36.501 -75.5v-1.5v-1.5v0z" />
    <glyph glyph-name="percent" unicode="&#x43e;" horiz-adv-x="561" 
d="M517 212c0 -68 -23.668 -122.332 -71.001 -162.999s-103.666 -61 -168.999 -61l-23 -1c-61.333 4.66699 -112.5 29 -153.5 73s-61.5 95.333 -61.5 154v7.5c0 2.33301 0.333008 4.83301 1 7.5c0 3.33301 0.333008 6.66602 1 9.99902s1 6.33301 1 9
c0.666992 2 1.16699 3.83301 1.5 5.5s0.5 3.5 0.5 5.5c12 61.333 40.667 107 86 137s94 45 146 45h4h5c58 -2 111.167 -22.5 159.5 -61.5s72.5 -94.833 72.5 -167.5v0zM164.999 216.001c0 -25.333 9.50293 -48.001 28.5029 -68.001s40.167 -32.667 63.5 -38
c4 -1.33301 7.83301 -2.16602 11.5 -2.49902s7.16699 -0.5 10.5 -0.5c29.333 0 55.833 10.833 79.5 32.5s35.5 47.167 35.5 76.5v1.5v1.5c-0.666992 27.333 -12.834 52.5 -36.501 75.5s-49.834 34.5 -78.501 34.5c-28 0 -53.833 -11.5 -77.5 -34.5
s-35.834 -48.167 -36.501 -75.5v-1.5v-1.5v0z" />
    <glyph glyph-name="C" unicode="&#xef;" horiz-adv-x="549" 
d="M489 428v-428h-123v339h-186v-339h-123v428h432v0z" />
    <glyph glyph-name="C" unicode="&#x43f;" horiz-adv-x="549" 
d="M489 428v-428h-123v339h-186v-339h-123v428h432v0z" />
    <glyph glyph-name="exclam" unicode="&#xf0;" horiz-adv-x="559" 
d="M57 -193v621h118v-71c17.333 26.667 39.333 47.5 66 62.5s55 22.5 85 22.5c6 0 12.167 -0.333008 18.5 -1s12.833 -1.66699 19.5 -3c8 -2 15.833 -4.5 23.5 -7.5s15.167 -6.16699 22.5 -9.5c32.667 -17.333 57.667 -43.333 75 -78s27 -71 29 -109v-7.5v-7.5v-5.5v-5.5
c-2.66699 -56 -20.667 -107 -54 -153s-79.666 -69 -138.999 -69l-2 -1c-32.667 0.666992 -60.334 7.16699 -83.001 19.5s-43 31.5 -61 57.5c2.66699 -12.667 4.16699 -25.5 4.5 -38.5s0.5 -25.5 0.5 -37.5v-179h-123v0zM386 214c0 40.667 -10.999 71.501 -32.999 92.501
s-46.333 31.833 -73 32.5h-1.5h-1.5h-4h-4c-24.667 -2 -47.334 -13.333 -68.001 -34s-31 -50.334 -31 -89.001v-2c0 -34 8.66699 -62.833 26 -86.5s44.333 -35.5 81 -35.5s64 11.833 82 35.5s27 52.5 27 86.5v0z" />
    <glyph glyph-name="exclam" unicode="&#x440;" horiz-adv-x="559" 
d="M57 -193v621h118v-71c17.333 26.667 39.333 47.5 66 62.5s55 22.5 85 22.5c6 0 12.167 -0.333008 18.5 -1s12.833 -1.66699 19.5 -3c8 -2 15.833 -4.5 23.5 -7.5s15.167 -6.16699 22.5 -9.5c32.667 -17.333 57.667 -43.333 75 -78s27 -71 29 -109v-7.5v-7.5v-5.5v-5.5
c-2.66699 -56 -20.667 -107 -54 -153s-79.666 -69 -138.999 -69l-2 -1c-32.667 0.666992 -60.334 7.16699 -83.001 19.5s-43 31.5 -61 57.5c2.66699 -12.667 4.16699 -25.5 4.5 -38.5s0.5 -25.5 0.5 -37.5v-179h-123v0zM386 214c0 40.667 -10.999 71.501 -32.999 92.501
s-46.333 31.833 -73 32.5h-1.5h-1.5h-4h-4c-24.667 -2 -47.334 -13.333 -68.001 -34s-31 -50.334 -31 -89.001v-2c0 -34 8.66699 -62.833 26 -86.5s44.333 -35.5 81 -35.5s64 11.833 82 35.5s27 52.5 27 86.5v0z" />
    <glyph glyph-name="quotedblleft" unicode="&#xf1;" horiz-adv-x="451" 
d="M392 13c-9.33301 -4.66699 -19 -8.66699 -29 -12s-20 -6.33301 -30 -9c-10 -2 -20 -3.66699 -30 -5s-19.667 -2 -29 -2c-58.667 0 -110.834 21 -156.501 63s-68.5 97.333 -68.5 166l1 5c1.33301 69.333 24.833 123.666 70.5 162.999s97.834 59 156.501 59
c9.33301 0 18.833 -0.5 28.5 -1.5s19.5 -2.5 29.5 -4.5c9.33301 -2 18.833 -4.66699 28.5 -8s19.167 -7.33301 28.5 -12v-125c-10 9.33301 -21.5 17.333 -34.5 24s-26.5 11.334 -40.5 14.001l-14.5 2c-5 0.666992 -9.83301 1 -14.5 1c-28.667 0 -54.667 -9.33301 -78 -28
s-35 -45.667 -35 -81c0 -0.666992 0.166992 -1.16699 0.5 -1.5l0.5 -0.5c0 -0.666992 0.166992 -1.16699 0.5 -1.5s0.5 -0.833008 0.5 -1.5c0.666992 -30 9 -56.167 25 -78.5s39.333 -35.5 70 -39.5h3.5c1 0 2.16699 -0.333008 3.5 -1h2h2c2 0 3.83301 -0.166992 5.5 -0.5
s3.16699 -0.5 4.5 -0.5c19.333 0 37.5 4 54.5 12s31.833 19.333 44.5 34v-130v0z" />
    <glyph glyph-name="quotedblleft" unicode="&#x441;" horiz-adv-x="451" 
d="M392 13c-9.33301 -4.66699 -19 -8.66699 -29 -12s-20 -6.33301 -30 -9c-10 -2 -20 -3.66699 -30 -5s-19.667 -2 -29 -2c-58.667 0 -110.834 21 -156.501 63s-68.5 97.333 -68.5 166l1 5c1.33301 69.333 24.833 123.666 70.5 162.999s97.834 59 156.501 59
c9.33301 0 18.833 -0.5 28.5 -1.5s19.5 -2.5 29.5 -4.5c9.33301 -2 18.833 -4.66699 28.5 -8s19.167 -7.33301 28.5 -12v-125c-10 9.33301 -21.5 17.333 -34.5 24s-26.5 11.334 -40.5 14.001l-14.5 2c-5 0.666992 -9.83301 1 -14.5 1c-28.667 0 -54.667 -9.33301 -78 -28
s-35 -45.667 -35 -81c0 -0.666992 0.166992 -1.16699 0.5 -1.5l0.5 -0.5c0 -0.666992 0.166992 -1.16699 0.5 -1.5s0.5 -0.833008 0.5 -1.5c0.666992 -30 9 -56.167 25 -78.5s39.333 -35.5 70 -39.5h3.5c1 0 2.16699 -0.333008 3.5 -1h2h2c2 0 3.83301 -0.166992 5.5 -0.5
s3.16699 -0.5 4.5 -0.5c19.333 0 37.5 4 54.5 12s31.833 19.333 44.5 34v-130v0z" />
    <glyph glyph-name="two" unicode="&#xf2;" horiz-adv-x="410" 
d="M381 428v-89h-114v-339h-124v339h-114v89h352v0z" />
    <glyph glyph-name="two" unicode="&#x442;" horiz-adv-x="410" 
d="M381 428v-89h-114v-339h-124v339h-114v89h352v0z" />
    <glyph glyph-name="three" unicode="&#xf3;" horiz-adv-x="522" 
d="M198 32l-170 396h141l74 -196c5.33301 -15.333 9.5 -31 12.5 -47s5.5 -32.333 7.5 -49c1.33301 8.66699 3 17.167 5 25.5s4.33301 16.833 7 25.5c2 8 4.33301 16.167 7 24.5l8 25.5l65 191h141l-255 -621h-137l94 225v0z" />
    <glyph glyph-name="three" unicode="&#x443;" horiz-adv-x="522" 
d="M198 32l-170 396h141l74 -196c5.33301 -15.333 9.5 -31 12.5 -47s5.5 -32.333 7.5 -49c1.33301 8.66699 3 17.167 5 25.5s4.33301 16.833 7 25.5c2 8 4.33301 16.167 7 24.5l8 25.5l65 191h141l-255 -621h-137l94 225v0z" />
    <glyph glyph-name="hyphen" unicode="&#xf4;" horiz-adv-x="650" 
d="M384 -13v-178.002h-125v178c-64.667 0.666992 -117.167 24 -157.5 70s-60.5 99 -60.5 159c0 4 0.166992 8.16699 0.5 12.5s0.833008 8.83301 1.5 13.5v2c0 0.666992 0.333008 1.33398 1 2.00098c0 2 0.166992 4.33301 0.5 7s0.5 5.33398 0.5 8.00098
c10 59.333 35 103.833 75 133.5s82.667 45.5 128 47.5h5.5h5.5v232h125v-230c0 -0.666992 -0.166992 -1.16699 -0.5 -1.5l-0.5 -0.5h-0.5h-0.5c55.333 -0.666992 106 -20.167 152 -58.5s69 -94.833 69 -169.5c-0.666992 -68.667 -22.667 -123.5 -66 -164.5
s-95 -61.5 -155 -61.5l2 -1v0zM259 330.998c-30.667 0 -54.665 -10.834 -71.998 -32.501s-27.333 -45.167 -30 -70.5v-5.5v-5.5v-2.5v-3.5c1.33301 -25.333 10.666 -48.666 27.999 -69.999s41.666 -32 72.999 -32h1v222v0zM489.002 218.997c0 28.667 -10.667 54.5 -32 77.5
s-45.666 34.5 -72.999 34.5v-222c27.333 0 51.666 10.833 72.999 32.5s32 47.5 32 77.5v0z" />
    <glyph glyph-name="hyphen" unicode="&#x444;" horiz-adv-x="650" 
d="M384 -13v-178.002h-125v178c-64.667 0.666992 -117.167 24 -157.5 70s-60.5 99 -60.5 159c0 4 0.166992 8.16699 0.5 12.5s0.833008 8.83301 1.5 13.5v2c0 0.666992 0.333008 1.33398 1 2.00098c0 2 0.166992 4.33301 0.5 7s0.5 5.33398 0.5 8.00098
c10 59.333 35 103.833 75 133.5s82.667 45.5 128 47.5h5.5h5.5v232h125v-230c0 -0.666992 -0.166992 -1.16699 -0.5 -1.5l-0.5 -0.5h-0.5h-0.5c55.333 -0.666992 106 -20.167 152 -58.5s69 -94.833 69 -169.5c-0.666992 -68.667 -22.667 -123.5 -66 -164.5
s-95 -61.5 -155 -61.5l2 -1v0zM259 330.998c-30.667 0 -54.665 -10.834 -71.998 -32.501s-27.333 -45.167 -30 -70.5v-5.5v-5.5v-2.5v-3.5c1.33301 -25.333 10.666 -48.666 27.999 -69.999s41.666 -32 72.999 -32h1v222v0zM489.002 218.997c0 28.667 -10.667 54.5 -32 77.5
s-45.666 34.5 -72.999 34.5v-222c27.333 0 51.666 10.833 72.999 32.5s32 47.5 32 77.5v0z" />
    <glyph glyph-name="period" unicode="&#xf5;" horiz-adv-x="522" 
d="M175 0l-145.999 -0.000976562l151 217l-143 211h154l42 -80c4.66699 -8 8.5 -16 11.5 -24s5.83301 -16.333 8.5 -25c1.33301 -2.66699 2.5 -5.5 3.5 -8.5s1.83301 -5.83301 2.5 -8.5c3.33301 12 7.5 23.333 12.5 34l15.5 32l47 80h146l-146 -209l154 -219h-154l-50 88
c-4 7.33301 -7.83301 15.333 -11.5 24s-7.16699 17.667 -10.5 27c-0.666992 2 -1.33398 4.16699 -2.00098 6.5s-1.33398 4.5 -2.00098 6.5c-1.33301 -3.33301 -2.66602 -7 -3.99902 -11s-2.66602 -7.66699 -3.99902 -11
c-2.66699 -7.33301 -5.83398 -14.666 -9.50098 -21.999l-11.5 -22l-54 -86v0z" />
    <glyph glyph-name="period" unicode="&#x445;" horiz-adv-x="522" 
d="M175 0l-145.999 -0.000976562l151 217l-143 211h154l42 -80c4.66699 -8 8.5 -16 11.5 -24s5.83301 -16.333 8.5 -25c1.33301 -2.66699 2.5 -5.5 3.5 -8.5s1.83301 -5.83301 2.5 -8.5c3.33301 12 7.5 23.333 12.5 34l15.5 32l47 80h146l-146 -209l154 -219h-154l-50 88
c-4 7.33301 -7.83301 15.333 -11.5 24s-7.16699 17.667 -10.5 27c-0.666992 2 -1.33398 4.16699 -2.00098 6.5s-1.33398 4.5 -2.00098 6.5c-1.33301 -3.33301 -2.66602 -7 -3.99902 -11s-2.66602 -7.66699 -3.99902 -11
c-2.66699 -7.33301 -5.83398 -14.666 -9.50098 -21.999l-11.5 -22l-54 -86v0z" />
    <glyph glyph-name="odieresis" unicode="&#xf6;" horiz-adv-x="580" 
d="M182 428v-350h186v350h123v-350h55v-175h-123v97h-365v428h124v0z" />
    <glyph glyph-name="odieresis" unicode="&#x446;" horiz-adv-x="580" 
d="M182 428v-350h186v350h123v-350h55v-175h-123v97h-365v428h124v0z" />
    <glyph glyph-name="divide" unicode="&#xf7;" horiz-adv-x="511" 
d="M327 198c-16 -12.667 -35.835 -23.5 -59.502 -32.5s-48.167 -13.5 -73.5 -13.5c-14 0 -28.833 1.83301 -44.5 5.5s-31.5 9.83398 -47.5 18.501c-5.33301 2.66699 -10.666 5.66699 -15.999 9s-10.666 7 -15.999 11c-6.66699 7.33301 -12.167 18 -16.5 32
s-6.5 30.333 -6.5 49v151h122v-154c0 -5.33301 0.833008 -10 2.5 -14s3.5 -7 5.5 -9c2 -2.66699 3.83301 -4.66699 5.5 -6l2.5 -2c6 -3.33301 12.5 -6.5 19.5 -9.5s14.167 -5.5 21.5 -7.5c4 -0.666992 7.83301 -1.16699 11.5 -1.5s7.16699 -0.5 10.5 -0.5h6
c2 0 4.33301 0.333008 7 1c12 1.33301 24 4.66602 36 9.99902s22 11.333 30 18v175h125v-428h-125v198v0z" />
    <glyph glyph-name="divide" unicode="&#x447;" horiz-adv-x="511" 
d="M327 198c-16 -12.667 -35.835 -23.5 -59.502 -32.5s-48.167 -13.5 -73.5 -13.5c-14 0 -28.833 1.83301 -44.5 5.5s-31.5 9.83398 -47.5 18.501c-5.33301 2.66699 -10.666 5.66699 -15.999 9s-10.666 7 -15.999 11c-6.66699 7.33301 -12.167 18 -16.5 32
s-6.5 30.333 -6.5 49v151h122v-154c0 -5.33301 0.833008 -10 2.5 -14s3.5 -7 5.5 -9c2 -2.66699 3.83301 -4.66699 5.5 -6l2.5 -2c6 -3.33301 12.5 -6.5 19.5 -9.5s14.167 -5.5 21.5 -7.5c4 -0.666992 7.83301 -1.16699 11.5 -1.5s7.16699 -0.5 10.5 -0.5h6
c2 0 4.33301 0.333008 7 1c12 1.33301 24 4.66602 36 9.99902s22 11.333 30 18v175h125v-428h-125v198v0z" />
    <glyph glyph-name="oslash" unicode="&#xf8;" horiz-adv-x="731" 
d="M426 428v-350h120v350h123v-428h-611v428h124v-350h119v350h125v0z" />
    <glyph glyph-name="oslash" unicode="&#x448;" horiz-adv-x="731" 
d="M426 428v-350h120v350h123v-428h-611v428h124v-350h119v350h125v0z" />
    <glyph glyph-name="question" unicode="&#xf9;" horiz-adv-x="750" 
d="M295 78v350h125v-350h120v350h123v-350h49v-175h-119v97h-541v428h123v-350h120v0z" />
    <glyph glyph-name="question" unicode="&#x449;" horiz-adv-x="750" 
d="M295 78v350h125v-350h120v350h123v-350h49v-175h-119v97h-541v428h123v-350h120v0z" />
    <glyph glyph-name="A" unicode="&#xfa;" horiz-adv-x="530" 
d="M120 0v335.001h-86v93h209v-172c11.333 0 23.333 -0.166992 36 -0.5s25.667 -0.833008 39 -1.5c38.667 -3.33301 74.167 -13.333 106.5 -30s48.5 -48.667 48.5 -96v-8c0 -32.667 -11.5 -60.834 -34.5 -84.501s-61.5 -35.5 -115.5 -35.5h-203v0zM357 128.001
c0 25.333 -7.83301 41.167 -23.5 47.5s-34.5 9.5 -56.5 9.5h-34v-114h4h4c1.33301 -0.666992 2.66602 -1 3.99902 -1h4c25.333 0 47.833 3 67.5 9s29.834 22.333 30.501 49v0z" />
    <glyph glyph-name="A" unicode="&#x44a;" horiz-adv-x="530" 
d="M120 0v335.001h-86v93h209v-172c11.333 0 23.333 -0.166992 36 -0.5s25.667 -0.833008 39 -1.5c38.667 -3.33301 74.167 -13.333 106.5 -30s48.5 -48.667 48.5 -96v-8c0 -32.667 -11.5 -60.834 -34.5 -84.501s-61.5 -35.5 -115.5 -35.5h-203v0zM357 128.001
c0 25.333 -7.83301 41.167 -23.5 47.5s-34.5 9.5 -56.5 9.5h-34v-114h4h4c1.33301 -0.666992 2.66602 -1 3.99902 -1h4c25.333 0 47.833 3 67.5 9s29.834 22.333 30.501 49v0z" />
    <glyph glyph-name="slash" unicode="&#xfb;" horiz-adv-x="640" 
d="M60 428l124.998 0.000976562v-172c11.333 0 23 -0.166992 35 -0.5s24 -0.833008 36 -1.5c40 -3.33301 76.5 -13.5 109.5 -30.5s49.5 -49.5 49.5 -97.5v-6c-1.33301 -34.667 -13.166 -63.334 -35.499 -86.001s-52.166 -34 -89.499 -34h-230v428v0zM297.998 128.001
c0 25.333 -8.16895 41.167 -24.502 47.5s-35.166 9.5 -56.499 9.5h-32v-114h4h4c1.33301 -0.666992 2.66602 -1 3.99902 -1h4c24.667 0 46.834 3 66.501 9s29.834 22.333 30.501 49v0zM456.996 428.002h123v-428h-123v428v0z" />
    <glyph glyph-name="slash" unicode="&#x44b;" horiz-adv-x="640" 
d="M60 428l124.998 0.000976562v-172c11.333 0 23 -0.166992 35 -0.5s24 -0.833008 36 -1.5c40 -3.33301 76.5 -13.5 109.5 -30.5s49.5 -49.5 49.5 -97.5v-6c-1.33301 -34.667 -13.166 -63.334 -35.499 -86.001s-52.166 -34 -89.499 -34h-230v428v0zM297.998 128.001
c0 25.333 -8.16895 41.167 -24.502 47.5s-35.166 9.5 -56.499 9.5h-32v-114h4h4c1.33301 -0.666992 2.66602 -1 3.99902 -1h4c24.667 0 46.834 3 66.501 9s29.834 22.333 30.501 49v0zM456.996 428.002h123v-428h-123v428v0z" />
    <glyph glyph-name="udieresis" unicode="&#xfc;" horiz-adv-x="462" 
d="M57 428l123.001 0.000976562v-172h21h21c18.667 -0.666992 36.667 -1.5 54 -2.5s33 -2.83301 47 -5.5c24 -7.33301 44.5 -20.833 61.5 -40.5s25.5 -44.5 25.5 -74.5v-13c0 -34.667 -12.333 -63.334 -37 -86.001s-67.334 -34 -128.001 -34h-188v428v0zM293.001 128.001
c0 25.333 -7.66504 41.167 -22.998 47.5s-34 9.5 -56 9.5h-34v-114h4h4c1.33301 -0.666992 2.66602 -1 3.99902 -1h4c25.333 0 47.666 3 66.999 9s29.333 22.333 30 49v0z" />
    <glyph glyph-name="udieresis" unicode="&#x44c;" horiz-adv-x="462" 
d="M57 428l123.001 0.000976562v-172h21h21c18.667 -0.666992 36.667 -1.5 54 -2.5s33 -2.83301 47 -5.5c24 -7.33301 44.5 -20.833 61.5 -40.5s25.5 -44.5 25.5 -74.5v-13c0 -34.667 -12.333 -63.334 -37 -86.001s-67.334 -34 -128.001 -34h-188v428v0zM293.001 128.001
c0 25.333 -7.66504 41.167 -22.998 47.5s-34 9.5 -56 9.5h-34v-114h4h4c1.33301 -0.666992 2.66602 -1 3.99902 -1h4c25.333 0 47.666 3 66.999 9s29.333 22.333 30 49v0z" />
    <glyph glyph-name="period" unicode="&#xfd;" horiz-adv-x="451" 
d="M175 100c22 2.66699 41.1719 11.9971 57.5049 27.9971s26.833 34.333 31.5 55h-167v73h167c-4.66699 24.667 -17 42.834 -37 54.501s-41.333 17.834 -64 18.501h-2h-2h-6h-6c-18 -2 -35.167 -6.16699 -51.5 -12.5s-29.833 -14.5 -40.5 -24.5l-2 125l19.5 7.5
c6.33301 2.33301 12.5 4.5 18.5 6.5c12.667 4 25.5 6.83301 38.5 8.5s25.5 2.5 37.5 2.5c59.333 0 112.166 -19.667 158.499 -59s70.166 -93.666 71.499 -162.999v-3c0 -70.667 -22.833 -126.5 -68.5 -167.5s-98.5 -61.5 -158.5 -61.5c-10 0 -20.5 0.666992 -31.5 2
s-22.167 3.33301 -33.5 6c-8.66699 2 -17.334 4.5 -26.001 7.5s-17.334 6.83301 -26.001 11.5l2 128c13.333 -14 28.166 -24.833 44.499 -32.5s33.833 -11.5 52.5 -11.5h4.5h5.5h1l1 1h6h5v0z" />
    <glyph glyph-name="period" unicode="&#x44d;" horiz-adv-x="451" 
d="M175 100c22 2.66699 41.1719 11.9971 57.5049 27.9971s26.833 34.333 31.5 55h-167v73h167c-4.66699 24.667 -17 42.834 -37 54.501s-41.333 17.834 -64 18.501h-2h-2h-6h-6c-18 -2 -35.167 -6.16699 -51.5 -12.5s-29.833 -14.5 -40.5 -24.5l-2 125l19.5 7.5
c6.33301 2.33301 12.5 4.5 18.5 6.5c12.667 4 25.5 6.83301 38.5 8.5s25.5 2.5 37.5 2.5c59.333 0 112.166 -19.667 158.499 -59s70.166 -93.666 71.499 -162.999v-3c0 -70.667 -22.833 -126.5 -68.5 -167.5s-98.5 -61.5 -158.5 -61.5c-10 0 -20.5 0.666992 -31.5 2
s-22.167 3.33301 -33.5 6c-8.66699 2 -17.334 4.5 -26.001 7.5s-17.334 6.83301 -26.001 11.5l2 128c13.333 -14 28.166 -24.833 44.499 -32.5s33.833 -11.5 52.5 -11.5h4.5h5.5h1l1 1h6h5v0z" />
    <glyph glyph-name="thorn" unicode="&#xfe;" horiz-adv-x="741" 
d="M185 256l54.999 0.000976562v3c0 0.666992 0.166992 1.5 0.5 2.5s0.5 2.16699 0.5 3.5c0.666992 0.666992 1 1.5 1 2.5v3.5c0.666992 0.666992 1 1.66699 1 3v3c14 52 40.167 91.5 78.5 118.5s79.166 41.833 122.499 44.5c2.66699 0.666992 5.33398 1 8.00098 1h8h1.5
h1.5c56.667 -0.666992 108.5 -20.5 155.5 -59.5s70.5 -95.5 70.5 -169.5c0 -68 -22.833 -122.333 -68.5 -163s-99.167 -61 -160.5 -61l-21 -1c-48.667 4 -90.167 20.5 -124.5 49.5s-58.166 65.5 -71.499 109.5c-0.666992 2.66699 -1.16699 5.5 -1.5 8.5
s-0.833008 6.16699 -1.5 9.5c-0.666992 2.66699 -1.16699 5.66699 -1.5 9s-0.833008 6.66602 -1.5 9.99902h-52v-183h-123v428h123v-172v0zM463.999 107.001l1.5 -0.00195312h1.5c26 0.666992 49.833 11.834 71.5 33.501s32.5 46.834 32.5 75.501v1.5v1.5
c-0.666992 26.667 -11.834 51.334 -33.501 74.001s-45.167 34.667 -70.5 36h-1.5h-1.5h-1.5h-1.5c-26 -1.33301 -50 -13.333 -72 -36s-33.333 -47.334 -34 -74.001v-1.5v-1.5c0 -26 9.66699 -49.167 29 -69.5s40.333 -32.833 63 -37.5
c3.33301 -0.666992 6.33301 -1.16699 9 -1.5s5.33398 -0.5 8.00098 -0.5v0z" />
    <glyph glyph-name="thorn" unicode="&#x44e;" horiz-adv-x="741" 
d="M185 256l54.999 0.000976562v3c0 0.666992 0.166992 1.5 0.5 2.5s0.5 2.16699 0.5 3.5c0.666992 0.666992 1 1.5 1 2.5v3.5c0.666992 0.666992 1 1.66699 1 3v3c14 52 40.167 91.5 78.5 118.5s79.166 41.833 122.499 44.5c2.66699 0.666992 5.33398 1 8.00098 1h8h1.5
h1.5c56.667 -0.666992 108.5 -20.5 155.5 -59.5s70.5 -95.5 70.5 -169.5c0 -68 -22.833 -122.333 -68.5 -163s-99.167 -61 -160.5 -61l-21 -1c-48.667 4 -90.167 20.5 -124.5 49.5s-58.166 65.5 -71.499 109.5c-0.666992 2.66699 -1.16699 5.5 -1.5 8.5
s-0.833008 6.16699 -1.5 9.5c-0.666992 2.66699 -1.16699 5.66699 -1.5 9s-0.833008 6.66602 -1.5 9.99902h-52v-183h-123v428h123v-172v0zM463.999 107.001l1.5 -0.00195312h1.5c26 0.666992 49.833 11.834 71.5 33.501s32.5 46.834 32.5 75.501v1.5v1.5
c-0.666992 26.667 -11.834 51.334 -33.501 74.001s-45.167 34.667 -70.5 36h-1.5h-1.5h-1.5h-1.5c-26 -1.33301 -50 -13.333 -72 -36s-33.333 -47.334 -34 -74.001v-1.5v-1.5c0 -26 9.66699 -49.167 29 -69.5s40.333 -32.833 63 -37.5
c3.33301 -0.666992 6.33301 -1.16699 9 -1.5s5.33398 -0.5 8.00098 -0.5v0z" />
    <glyph glyph-name="space" unicode="&#xff;" horiz-adv-x="501" 
d="M70 303c0 22 2.16699 39.332 6.5 51.999s12.833 24.334 25.5 35.001c1.33301 1.33301 3 2.83301 5 4.5s4 3.16699 6 4.5s4 2.5 6 3.5s3.66699 2.16699 5 3.5c18.667 10 38.5 16.167 59.5 18.5s48.833 3.5 83.5 3.5h175v-428h-123v203l-149 -203h-136l154 196
c-36.667 4 -65.5 15.667 -86.5 35s-31.5 43.333 -31.5 72v0zM319 359.999l-43 -0.00195312c-22.667 0 -43.5 -3 -62.5 -9s-28.5 -19.667 -28.5 -41v-2c0 -0.666992 0.333008 -1 1 -1v-2v-2c2 -21.333 12.167 -35.666 30.5 -42.999s38.5 -11.666 60.5 -12.999
c7.33301 -0.666992 14.5 -1 21.5 -1h20.5v114v0z" />
    <glyph glyph-name="space" unicode="&#x44f;" horiz-adv-x="501" 
d="M70 303c0 22 2.16699 39.332 6.5 51.999s12.833 24.334 25.5 35.001c1.33301 1.33301 3 2.83301 5 4.5s4 3.16699 6 4.5s4 2.5 6 3.5s3.66699 2.16699 5 3.5c18.667 10 38.5 16.167 59.5 18.5s48.833 3.5 83.5 3.5h175v-428h-123v203l-149 -203h-136l154 196
c-36.667 4 -65.5 15.667 -86.5 35s-31.5 43.333 -31.5 72v0zM319 359.999l-43 -0.00195312c-22.667 0 -43.5 -3 -62.5 -9s-28.5 -19.667 -28.5 -41v-2c0 -0.666992 0.333008 -1 1 -1v-2v-2c2 -21.333 12.167 -35.666 30.5 -42.999s38.5 -11.666 60.5 -12.999
c7.33301 -0.666992 14.5 -1 21.5 -1h20.5v114v0z" />
    <glyph glyph-name="amacron" unicode="&#x101;" 
 />
    <glyph glyph-name="OE" unicode="&#x152;" 
 />
    <glyph glyph-name="glyph258" unicode="&#x153;" 
 />
    <glyph glyph-name="perthousand" unicode="&#x160;" 
 />
    <glyph glyph-name="seven" unicode="&#x161;" 
 />
    <glyph glyph-name="glyph259" unicode="&#x178;" 
 />
    <glyph glyph-name="less" unicode="&#x192;" 
 />
    <glyph glyph-name="glyph237" unicode="&#x2c6;" 
 />
    <glyph glyph-name="six" unicode="&#x2dc;" 
 />
    <glyph glyph-name="numbersign" unicode="&#x2013;" 
 />
    <glyph glyph-name="O" unicode="&#x2014;" 
 />
    <glyph glyph-name="four" unicode="&#x2018;" 
 />
    <glyph glyph-name="quoteright" unicode="&#x2019;" 
 />
    <glyph glyph-name="parenleft" unicode="&#x201a;" 
 />
    <glyph glyph-name="oe" unicode="&#x201c;" 
 />
    <glyph glyph-name="B" unicode="&#x201d;" 
 />
    <glyph glyph-name="greater" unicode="&#x201e;" 
 />
    <glyph glyph-name="glyph233" unicode="&#x2020;" 
 />
    <glyph glyph-name="glyph236" unicode="&#x2021;" 
 />
    <glyph glyph-name="glyph257" unicode="&#x2022;" 
 />
    <glyph glyph-name="glyph232" unicode="&#x2026;" 
 />
    <glyph glyph-name="v" unicode="&#x2030;" 
 />
    <glyph glyph-name="glyph243" unicode="&#x2039;" 
 />
    <glyph glyph-name="eight" unicode="&#x203a;" 
 />
    <glyph glyph-name="dollar" unicode="&#x2122;" 
 />
    <glyph glyph-name="periodcentered" unicode="&#x2219;" 
 />
    <glyph glyph-name="glyph1" 
 />
    <glyph glyph-name="glyph2" horiz-adv-x="365" 
 />
    <glyph glyph-name="s" 
 />
    <glyph glyph-name="backslash" 
 />
    <glyph glyph-name="nine" 
 />
    <glyph glyph-name="colon" 
 />
    <glyph glyph-name="Y" 
 />
    <glyph glyph-name="X" 
 />
    <glyph glyph-name="asciicircum" 
 />
    <glyph glyph-name="semicolon" 
 />
    <glyph glyph-name="equal" 
 />
    <glyph glyph-name="exclam" 
 />
    <glyph glyph-name="five" 
 />
    <glyph glyph-name="Q" 
 />
    <glyph glyph-name="quotedblright" 
 />
    <glyph glyph-name="hyphen" 
 />
    <glyph glyph-name="space" 
 />
    <glyph glyph-name="E" 
 />
    <glyph glyph-name="M" 
 />
    <glyph glyph-name="plus" 
 />
    <glyph glyph-name="glyph229" 
 />
    <glyph glyph-name="glyph230" 
 />
    <glyph glyph-name="glyph231" 
 />
    <glyph glyph-name="glyph234" 
 />
    <glyph glyph-name="glyph235" 
 />
    <glyph glyph-name="glyph238" 
 />
    <glyph glyph-name="glyph239" 
 />
    <glyph glyph-name="glyph240" 
 />
    <glyph glyph-name="glyph241" 
 />
    <glyph glyph-name="glyph242" 
 />
    <glyph glyph-name="glyph244" 
 />
    <glyph glyph-name="glyph245" 
 />
    <glyph glyph-name="glyph246" 
 />
    <glyph glyph-name="glyph247" 
 />
    <glyph glyph-name="glyph248" 
 />
    <glyph glyph-name="glyph249" 
 />
    <glyph glyph-name="glyph250" 
 />
    <glyph glyph-name="glyph251" 
 />
    <glyph glyph-name="glyph252" 
 />
    <glyph glyph-name="glyph253" 
 />
    <glyph glyph-name="glyph254" 
 />
    <glyph glyph-name="glyph255" 
 />
    <glyph glyph-name="glyph256" 
 />
    <glyph glyph-name="glyph268" 
 />
    <glyph glyph-name="glyph269" 
 />
    <glyph glyph-name="glyph270" 
 />
    <glyph glyph-name="glyph271" 
 />
    <glyph glyph-name="glyph272" 
 />
    <glyph glyph-name="glyph273" 
 />
    <glyph glyph-name="glyph274" 
 />
    <glyph glyph-name="glyph275" 
 />
    <glyph glyph-name="glyph276" 
 />
    <glyph glyph-name="glyph277" 
 />
    <glyph glyph-name="glyph278" 
 />
    <glyph glyph-name="glyph279" 
 />
    <glyph glyph-name="glyph280" 
 />
    <glyph glyph-name="glyph281" 
 />
    <glyph glyph-name="glyph282" 
 />
    <glyph glyph-name="glyph283" 
 />
    <glyph glyph-name="glyph284" 
 />
    <glyph glyph-name="glyph285" 
 />
    <glyph glyph-name="glyph286" 
 />
    <glyph glyph-name="glyph287" 
 />
    <glyph glyph-name="glyph288" 
 />
    <glyph glyph-name="glyph289" 
 />
    <glyph glyph-name="glyph290" 
 />
    <glyph glyph-name="glyph291" 
 />
    <glyph glyph-name="glyph292" 
 />
    <glyph glyph-name="glyph293" 
 />
    <glyph glyph-name="glyph294" 
 />
    <glyph glyph-name="glyph295" 
 />
    <glyph glyph-name="glyph296" 
 />
    <glyph glyph-name="glyph297" 
 />
    <glyph glyph-name="glyph298" 
 />
    <glyph glyph-name="glyph299" 
 />
    <glyph glyph-name="glyph300" 
 />
    <glyph glyph-name="glyph301" 
 />
    <glyph glyph-name="glyph302" 
 />
    <glyph glyph-name="glyph303" 
 />
    <glyph glyph-name="glyph304" 
 />
    <glyph glyph-name="glyph305" 
 />
    <glyph glyph-name="glyph306" 
 />
    <glyph glyph-name="glyph307" 
 />
    <glyph glyph-name="glyph308" 
 />
    <glyph glyph-name="glyph309" 
 />
    <glyph glyph-name="glyph310" 
 />
    <glyph glyph-name="glyph311" 
 />
    <glyph glyph-name="glyph312" 
 />
    <glyph glyph-name="glyph313" 
 />
    <glyph glyph-name="glyph314" 
 />
    <glyph glyph-name="glyph315" 
 />
    <glyph glyph-name="glyph316" 
 />
    <glyph glyph-name="glyph317" 
 />
    <glyph glyph-name="glyph318" 
 />
    <glyph glyph-name="glyph319" 
 />
    <glyph glyph-name="glyph320" 
 />
    <glyph glyph-name="glyph321" 
 />
    <glyph glyph-name="glyph322" 
 />
    <glyph glyph-name="glyph323" 
 />
    <glyph glyph-name="glyph324" 
 />
    <glyph glyph-name="glyph325" 
 />
    <glyph glyph-name="glyph326" 
 />
    <glyph glyph-name="glyph327" 
 />
    <glyph glyph-name="glyph328" 
 />
    <glyph glyph-name="glyph329" 
 />
    <glyph glyph-name="glyph330" 
 />
    <glyph glyph-name="glyph331" 
 />
    <glyph glyph-name="glyph332" 
 />
    <glyph glyph-name="glyph333" 
 />
    <glyph glyph-name="glyph334" 
 />
    <glyph glyph-name="glyph335" 
 />
    <glyph glyph-name="glyph336" 
 />
    <glyph glyph-name="glyph337" 
 />
    <glyph glyph-name="glyph338" 
 />
    <glyph glyph-name="glyph339" 
 />
    <glyph glyph-name="glyph340" 
 />
    <glyph glyph-name="glyph341" 
 />
    <glyph glyph-name="glyph342" 
 />
    <glyph glyph-name="glyph343" 
 />
    <glyph glyph-name="glyph344" 
 />
    <glyph glyph-name="glyph345" 
 />
    <glyph glyph-name="glyph346" 
 />
    <glyph glyph-name="glyph347" 
 />
    <glyph glyph-name="glyph348" 
 />
    <glyph glyph-name="glyph349" 
 />
    <glyph glyph-name="glyph350" 
 />
    <glyph glyph-name="glyph351" 
 />
    <glyph glyph-name="glyph352" 
 />
    <glyph glyph-name="glyph353" 
 />
    <glyph glyph-name="glyph354" 
 />
    <glyph glyph-name="glyph355" 
 />
    <glyph glyph-name="glyph356" 
 />
    <glyph glyph-name="glyph357" 
 />
    <glyph glyph-name="glyph358" 
 />
    <glyph glyph-name="glyph359" 
 />
    <glyph glyph-name="glyph360" 
 />
    <glyph glyph-name="glyph361" 
 />
    <glyph glyph-name="glyph362" 
 />
    <glyph glyph-name="glyph363" 
 />
    <glyph glyph-name="glyph364" 
 />
    <glyph glyph-name="glyph365" 
 />
    <glyph glyph-name="glyph366" 
 />
    <glyph glyph-name="glyph367" 
 />
    <glyph glyph-name="glyph368" 
 />
    <glyph glyph-name="glyph369" 
 />
    <glyph glyph-name="glyph370" 
 />
    <glyph glyph-name="glyph371" 
 />
    <glyph glyph-name="glyph372" 
 />
    <glyph glyph-name="glyph373" 
 />
    <glyph glyph-name="glyph374" 
 />
    <glyph glyph-name="glyph375" 
 />
    <glyph glyph-name="glyph376" 
 />
    <glyph glyph-name="glyph377" 
 />
    <glyph glyph-name="glyph378" 
 />
    <glyph glyph-name="glyph379" 
 />
    <glyph glyph-name="glyph380" 
 />
    <glyph glyph-name="glyph381" 
 />
    <glyph glyph-name="glyph382" 
 />
    <glyph glyph-name="glyph383" 
 />
    <glyph glyph-name="glyph384" 
 />
    <glyph glyph-name="glyph385" 
 />
    <glyph glyph-name="glyph386" 
 />
    <glyph glyph-name="glyph387" 
 />
    <glyph glyph-name="glyph388" 
 />
    <glyph glyph-name="glyph389" 
 />
    <glyph glyph-name="glyph390" 
 />
    <glyph glyph-name="glyph391" 
 />
    <glyph glyph-name="glyph392" 
 />
    <glyph glyph-name="glyph393" 
 />
    <glyph glyph-name="glyph394" 
 />
    <glyph glyph-name="glyph395" 
 />
    <glyph glyph-name="glyph396" 
 />
    <glyph glyph-name="glyph397" 
 />
    <glyph glyph-name="glyph398" 
 />
    <glyph glyph-name="glyph399" 
 />
    <glyph glyph-name="glyph400" 
 />
    <glyph glyph-name="glyph401" 
 />
    <glyph glyph-name="glyph402" 
 />
    <glyph glyph-name="glyph403" 
 />
    <glyph glyph-name="glyph404" 
 />
    <glyph glyph-name="glyph405" 
 />
    <glyph glyph-name="glyph406" 
 />
    <glyph glyph-name="glyph407" 
 />
    <glyph glyph-name="glyph408" 
 />
    <glyph glyph-name="glyph409" 
 />
    <glyph glyph-name="glyph410" 
 />
    <glyph glyph-name="glyph411" 
 />
    <glyph glyph-name="glyph412" 
 />
    <glyph glyph-name="glyph413" 
 />
    <glyph glyph-name="glyph414" 
 />
    <glyph glyph-name="glyph415" 
 />
    <glyph glyph-name="glyph416" 
 />
    <glyph glyph-name="glyph417" 
 />
    <glyph glyph-name="glyph418" 
 />
    <glyph glyph-name="glyph419" 
 />
    <glyph glyph-name="glyph420" 
 />
    <glyph glyph-name="glyph421" 
 />
    <glyph glyph-name="glyph422" 
 />
    <glyph glyph-name="glyph423" 
 />
    <glyph glyph-name="glyph424" 
 />
    <glyph glyph-name="glyph425" 
 />
    <glyph glyph-name="glyph426" 
 />
    <glyph glyph-name="glyph427" 
 />
    <glyph glyph-name="glyph428" 
 />
    <glyph glyph-name="glyph429" 
 />
    <glyph glyph-name="glyph430" 
 />
    <glyph glyph-name="glyph431" 
 />
    <glyph glyph-name="glyph432" 
 />
    <glyph glyph-name="glyph433" 
 />
    <glyph glyph-name="glyph434" 
 />
    <glyph glyph-name="glyph435" 
 />
    <glyph glyph-name="glyph436" 
 />
    <glyph glyph-name="glyph437" 
 />
    <glyph glyph-name="glyph438" 
 />
    <glyph glyph-name="glyph439" 
 />
    <glyph glyph-name="glyph440" 
 />
    <glyph glyph-name="glyph441" 
 />
    <glyph glyph-name="glyph442" 
 />
    </font>
</defs>
</svg>
